<svg xmlns="http://www.w3.org/2000/svg" width="163" height="40" viewBox="0 0 163 40">
  <g fill="#FFF">
    <path d="M68 0L56 0 56 16C56 17.2442748 56.7604348 18 58 18L70 18 70 2C70.0334788.755725191 69.2384787 0 68 0zM64 2L67 2 67 6 64 6 64 2 64 2zM58 2L62 2 62 3 58 3 58 2zM58 5L62 5 62 6 58 6 58 5zM67 15L58 15 58 14 67 14 67 15zM67 12L58 12 58 11 67 11 67 12zM67 9L58 9 58 8 67 8 67 9zM86 0L74 0 74 16C74 17.2442748 74.7604348 18 76 18L88 18 88 2C88.0334788.755725191 87.2384787 0 86 0zM82 2L85 2 85 6 82 6 82 2 82 2zM76 2L80 2 80 3 76 3 76 2zM76 5L80 5 80 6 76 6 76 5zM85 15L76 15 76 14 85 14 85 15zM85 12L76 12 76 11 85 11 85 12zM85 9L76 9 76 8 85 8 85 9zM105 0L93 0 93 16C93 17.2442748 93.7604348 18 95 18L107 18 107 2C107.033479.755725191 106.238479 0 105 0zM101 2L104 2 104 6 101 6 101 2 101 2zM95 2L99 2 99 3 95 3 95 2zM95 5L99 5 99 6 95 6 95 5zM104 15L95 15 95 14 104 14 104 15zM104 12L95 12 95 11 104 11 104 12zM104 9L95 9 95 8 104 8 104 9zM68 22L56 22 56 38C56 39.2442748 56.7604348 40 58 40L70 40 70 24C70.0334788 22.7557252 69.2384787 22 68 22zM64 24L67 24 67 28 64 28 64 24 64 24zM58 24L62 24 62 25 58 25 58 24zM58 27L62 27 62 28 58 28 58 27zM67 37L58 37 58 36 67 36 67 37zM67 34L58 34 58 33 67 33 67 34zM67 31L58 31 58 30 67 30 67 31zM86 22L74 22 74 38C74 39.2442748 74.7604348 40 76 40L88 40 88 24C88.0334788 22.7557252 87.2384787 22 86 22zM82 24L85 24 85 28 82 28 82 24 82 24zM76 24L80 24 80 25 76 25 76 24zM76 27L80 27 80 28 76 28 76 27zM85 37L76 37 76 36 85 36 85 37zM85 34L76 34 76 33 85 33 85 34zM85 31L76 31 76 30 85 30 85 31zM105 22L93 22 93 38C93 39.2442748 93.7604348 40 95 40L107 40 107 24C107.033479 22.7557252 106.238479 22 105 22zM101 24L104 24 104 28 101 28 101 24 101 24zM95 24L99 24 99 25 95 25 95 24zM95 27L99 27 99 28 95 28 95 27zM104 37L95 37 95 36 104 36 104 37zM104 34L95 34 95 33 104 33 104 34zM104 31L95 31 95 30 104 30 104 31z"/>
    <path d="M124 0L112 0 112 16C112 17.2442748 112.760435 18 114 18L126 18 126 2C126.033479.755725191 125.238479 0 124 0zM120 2L123 2 123 6 120 6 120 2 120 2zM114 2L118 2 118 3 114 3 114 2zM114 5L118 5 118 6 114 6 114 5zM123 15L114 15 114 14 123 14 123 15zM123 12L114 12 114 11 123 11 123 12zM123 9L114 9 114 8 123 8 123 9zM142 0L130 0 130 16C130 17.2442748 130.760435 18 132 18L144 18 144 2C144.033479.755725191 143.238479 0 142 0zM138 2L141 2 141 6 138 6 138 2 138 2zM132 2L136 2 136 3 132 3 132 2zM132 5L136 5 136 6 132 6 132 5zM141 15L132 15 132 14 141 14 141 15zM141 12L132 12 132 11 141 11 141 12zM141 9L132 9 132 8 141 8 141 9zM161 0L149 0 149 16C149 17.2442748 149.760435 18 151 18L163 18 163 2C163.033479.755725191 162.238479 0 161 0zM157 2L160 2 160 6 157 6 157 2 157 2zM151 2L155 2 155 3 151 3 151 2zM151 5L155 5 155 6 151 6 151 5zM160 15L151 15 151 14 160 14 160 15zM160 12L151 12 151 11 160 11 160 12zM160 9L151 9 151 8 160 8 160 9zM124 22L112 22 112 38C112 39.2442748 112.760435 40 114 40L126 40 126 24C126.033479 22.7557252 125.238479 22 124 22zM120 24L123 24 123 28 120 28 120 24 120 24zM114 24L118 24 118 25 114 25 114 24zM114 27L118 27 118 28 114 28 114 27zM123 37L114 37 114 36 123 36 123 37zM123 34L114 34 114 33 123 33 123 34zM123 31L114 31 114 30 123 30 123 31zM142 22L130 22 130 38C130 39.2442748 130.760435 40 132 40L144 40 144 24C144.033479 22.7557252 143.238479 22 142 22zM138 24L141 24 141 28 138 28 138 24 138 24zM132 24L136 24 136 25 132 25 132 24zM132 27L136 27 136 28 132 28 132 27zM141 37L132 37 132 36 141 36 141 37zM141 34L132 34 132 33 141 33 141 34zM141 31L132 31 132 30 141 30 141 31zM161 22L149 22 149 38C149 39.2442748 149.760435 40 151 40L163 40 163 24C163.033479 22.7557252 162.238479 22 161 22zM157 24L160 24 160 28 157 28 157 24 157 24zM151 24L155 24 155 25 151 25 151 24zM151 27L155 27 155 28 151 28 151 27zM160 37L151 37 151 36 160 36 160 37zM160 34L151 34 151 33 160 33 160 34zM160 31L151 31 151 30 160 30 160 31zM12 0L1.77635684e-15 0 1.77635684e-15 16C1.77635684e-15 17.2442748.76043481 18 2 18L14 18 14 2C14.0334788.755725191 13.2384787 0 12 0zM8 2L11 2 11 6 8 6 8 2 8 2zM2 2L6 2 6 3 2 3 2 2zM2 5L6 5 6 6 2 6 2 5zM11 15L2 15 2 14 11 14 11 15zM11 12L2 12 2 11 11 11 11 12zM11 9L2 9 2 8 11 8 11 9zM30 0L18 0 18 16C18 17.2442748 18.7604348 18 20 18L32 18 32 2C32.0334788.755725191 31.2384787 0 30 0zM26 2L29 2 29 6 26 6 26 2 26 2zM20 2L24 2 24 3 20 3 20 2zM20 5L24 5 24 6 20 6 20 5zM29 15L20 15 20 14 29 14 29 15zM29 12L20 12 20 11 29 11 29 12zM29 9L20 9 20 8 29 8 29 9zM49 0L37 0 37 16C37 17.2442748 37.7604348 18 39 18L51 18 51 2C51.0334788.755725191 50.2384787 0 49 0zM45 2L48 2 48 6 45 6 45 2 45 2zM39 2L43 2 43 3 39 3 39 2zM39 5L43 5 43 6 39 6 39 5zM48 15L39 15 39 14 48 14 48 15zM48 12L39 12 39 11 48 11 48 12zM48 9L39 9 39 8 48 8 48 9zM12 22L1.77635684e-15 22 1.77635684e-15 38C1.77635684e-15 39.2442748.76043481 40 2 40L14 40 14 24C14.0334788 22.7557252 13.2384787 22 12 22zM8 24L11 24 11 28 8 28 8 24 8 24zM2 24L6 24 6 25 2 25 2 24zM2 27L6 27 6 28 2 28 2 27zM11 37L2 37 2 36 11 36 11 37zM11 34L2 34 2 33 11 33 11 34zM11 31L2 31 2 30 11 30 11 31zM30 22L18 22 18 38C18 39.2442748 18.7604348 40 20 40L32 40 32 24C32.0334788 22.7557252 31.2384787 22 30 22zM26 24L29 24 29 28 26 28 26 24 26 24zM20 24L24 24 24 25 20 25 20 24zM20 27L24 27 24 28 20 28 20 27zM29 37L20 37 20 36 29 36 29 37zM29 34L20 34 20 33 29 33 29 34zM29 31L20 31 20 30 29 30 29 31zM49 22L37 22 37 38C37 39.2442748 37.7604348 40 39 40L51 40 51 24C51.0334788 22.7557252 50.2384787 22 49 22zM45 24L48 24 48 28 45 28 45 24 45 24zM39 24L43 24 43 25 39 25 39 24zM39 27L43 27 43 28 39 28 39 27zM48 37L39 37 39 36 48 36 48 37zM48 34L39 34 39 33 48 33 48 34zM48 31L39 31 39 30 48 30 48 31z" opacity=".2"/>
  </g>
</svg>
