<?xml version="1.0" encoding="UTF-8"?>
<svg width="51px" height="40px" viewBox="0 0 51 40" version="1.1" xmlns="http://www.w3.org/2000/svg" xmlns:xlink="http://www.w3.org/1999/xlink">
    <!-- Generator: Sketch 42 (36781) - http://www.bohemiancoding.com/sketch -->
    <title>articles-icon</title>
    <desc>Created with Sketch.</desc>
    <defs></defs>
    <g id="Blog" stroke="none" stroke-width="1" fill="none" fill-rule="evenodd">
        <g id="Blog-2.0-v6" transform="translate(-1098.000000, -1884.000000)" fill-rule="nonzero" fill="#FFFFFF">
            <g id="view-all-posts" transform="translate(251.000000, 1844.000000)">
                <g id="Group-4" transform="translate(847.000000, 40.000000)">
                    <g id="articles-icon">
                        <path d="M12.2290076,0 L1.77635684e-15,0 L1.77635684e-15,16.2824427 C1.77635684e-15,17.2442748 0.755725191,18 1.71755725,18 L13.9122137,18 L13.9122137,1.71755725 C13.9465649,0.755725191 13.1564885,0 12.2290076,0 Z M8.20992366,2.37022901 L11.5419847,2.37022901 L11.5419847,6.5610687 L8.20992366,6.5610687 L8.20992366,2.37022901 L8.20992366,2.37022901 Z M2.40458015,2.33587786 L6.38931298,2.33587786 L6.38931298,3.53816794 L2.40458015,3.53816794 L2.40458015,2.33587786 Z M2.40458015,5.35877863 L6.38931298,5.35877863 L6.38931298,6.5610687 L2.40458015,6.5610687 L2.40458015,5.35877863 Z M11.5763359,15.5954198 L2.40458015,15.5954198 L2.40458015,14.3931298 L11.5763359,14.3931298 L11.5763359,15.5954198 Z M11.5763359,12.6068702 L2.40458015,12.6068702 L2.40458015,11.4045802 L11.5763359,11.4045802 L11.5763359,12.6068702 Z M11.5763359,9.58396947 L2.40458015,9.58396947 L2.40458015,8.38167939 L11.5763359,8.38167939 L11.5763359,9.58396947 Z" id="Shape-Copy-17"></path>
                        <path d="M31.2290076,0 L19,0 L19,16.2824427 C19,17.2442748 19.7557252,18 20.7175573,18 L32.9122137,18 L32.9122137,1.71755725 C32.9465649,0.755725191 32.1564885,0 31.2290076,0 Z M27.2099237,2.37022901 L30.5419847,2.37022901 L30.5419847,6.5610687 L27.2099237,6.5610687 L27.2099237,2.37022901 L27.2099237,2.37022901 Z M21.4045802,2.33587786 L25.389313,2.33587786 L25.389313,3.53816794 L21.4045802,3.53816794 L21.4045802,2.33587786 Z M21.4045802,5.35877863 L25.389313,5.35877863 L25.389313,6.5610687 L21.4045802,6.5610687 L21.4045802,5.35877863 Z M30.5763359,15.5954198 L21.4045802,15.5954198 L21.4045802,14.3931298 L30.5763359,14.3931298 L30.5763359,15.5954198 Z M30.5763359,12.6068702 L21.4045802,12.6068702 L21.4045802,11.4045802 L30.5763359,11.4045802 L30.5763359,12.6068702 Z M30.5763359,9.58396947 L21.4045802,9.58396947 L21.4045802,8.38167939 L30.5763359,8.38167939 L30.5763359,9.58396947 Z" id="Shape-Copy-16"></path>
                        <path d="M49.2290076,0 L37,0 L37,16.2824427 C37,17.2442748 37.7557252,18 38.7175573,18 L50.9122137,18 L50.9122137,1.71755725 C50.9465649,0.755725191 50.1564885,0 49.2290076,0 Z M45.2099237,2.37022901 L48.5419847,2.37022901 L48.5419847,6.5610687 L45.2099237,6.5610687 L45.2099237,2.37022901 L45.2099237,2.37022901 Z M39.4045802,2.33587786 L43.389313,2.33587786 L43.389313,3.53816794 L39.4045802,3.53816794 L39.4045802,2.33587786 Z M39.4045802,5.35877863 L43.389313,5.35877863 L43.389313,6.5610687 L39.4045802,6.5610687 L39.4045802,5.35877863 Z M48.5763359,15.5954198 L39.4045802,15.5954198 L39.4045802,14.3931298 L48.5763359,14.3931298 L48.5763359,15.5954198 Z M48.5763359,12.6068702 L39.4045802,12.6068702 L39.4045802,11.4045802 L48.5763359,11.4045802 L48.5763359,12.6068702 Z M48.5763359,9.58396947 L39.4045802,9.58396947 L39.4045802,8.38167939 L48.5763359,8.38167939 L48.5763359,9.58396947 Z" id="Shape-Copy-15"></path>
                        <path d="M12.2290076,22 L1.77635684e-15,22 L1.77635684e-15,38.2824427 C1.77635684e-15,39.2442748 0.755725191,40 1.71755725,40 L13.9122137,40 L13.9122137,23.7175573 C13.9465649,22.7557252 13.1564885,22 12.2290076,22 Z M8.20992366,24.370229 L11.5419847,24.370229 L11.5419847,28.5610687 L8.20992366,28.5610687 L8.20992366,24.370229 L8.20992366,24.370229 Z M2.40458015,24.3358779 L6.38931298,24.3358779 L6.38931298,25.5381679 L2.40458015,25.5381679 L2.40458015,24.3358779 Z M2.40458015,27.3587786 L6.38931298,27.3587786 L6.38931298,28.5610687 L2.40458015,28.5610687 L2.40458015,27.3587786 Z M11.5763359,37.5954198 L2.40458015,37.5954198 L2.40458015,36.3931298 L11.5763359,36.3931298 L11.5763359,37.5954198 Z M11.5763359,34.6068702 L2.40458015,34.6068702 L2.40458015,33.4045802 L11.5763359,33.4045802 L11.5763359,34.6068702 Z M11.5763359,31.5839695 L2.40458015,31.5839695 L2.40458015,30.3816794 L11.5763359,30.3816794 L11.5763359,31.5839695 Z" id="Shape-Copy-14"></path>
                        <path d="M31.2290076,22 L19,22 L19,38.2824427 C19,39.2442748 19.7557252,40 20.7175573,40 L32.9122137,40 L32.9122137,23.7175573 C32.9465649,22.7557252 32.1564885,22 31.2290076,22 Z M27.2099237,24.370229 L30.5419847,24.370229 L30.5419847,28.5610687 L27.2099237,28.5610687 L27.2099237,24.370229 L27.2099237,24.370229 Z M21.4045802,24.3358779 L25.389313,24.3358779 L25.389313,25.5381679 L21.4045802,25.5381679 L21.4045802,24.3358779 Z M21.4045802,27.3587786 L25.389313,27.3587786 L25.389313,28.5610687 L21.4045802,28.5610687 L21.4045802,27.3587786 Z M30.5763359,37.5954198 L21.4045802,37.5954198 L21.4045802,36.3931298 L30.5763359,36.3931298 L30.5763359,37.5954198 Z M30.5763359,34.6068702 L21.4045802,34.6068702 L21.4045802,33.4045802 L30.5763359,33.4045802 L30.5763359,34.6068702 Z M30.5763359,31.5839695 L21.4045802,31.5839695 L21.4045802,30.3816794 L30.5763359,30.3816794 L30.5763359,31.5839695 Z" id="Shape-Copy-13"></path>
                        <path d="M49.2290076,22 L37,22 L37,38.2824427 C37,39.2442748 37.7557252,40 38.7175573,40 L50.9122137,40 L50.9122137,23.7175573 C50.9465649,22.7557252 50.1564885,22 49.2290076,22 Z M45.2099237,24.370229 L48.5419847,24.370229 L48.5419847,28.5610687 L45.2099237,28.5610687 L45.2099237,24.370229 L45.2099237,24.370229 Z M39.4045802,24.3358779 L43.389313,24.3358779 L43.389313,25.5381679 L39.4045802,25.5381679 L39.4045802,24.3358779 Z M39.4045802,27.3587786 L43.389313,27.3587786 L43.389313,28.5610687 L39.4045802,28.5610687 L39.4045802,27.3587786 Z M48.5763359,37.5954198 L39.4045802,37.5954198 L39.4045802,36.3931298 L48.5763359,36.3931298 L48.5763359,37.5954198 Z M48.5763359,34.6068702 L39.4045802,34.6068702 L39.4045802,33.4045802 L48.5763359,33.4045802 L48.5763359,34.6068702 Z M48.5763359,31.5839695 L39.4045802,31.5839695 L39.4045802,30.3816794 L48.5763359,30.3816794 L48.5763359,31.5839695 Z" id="Shape-Copy-12"></path>
                    </g>
                </g>
            </g>
        </g>
    </g>
</svg>