<svg xmlns="http://www.w3.org/2000/svg" xmlns:xlink="http://www.w3.org/1999/xlink" width="1440" height="397" viewBox="0 0 1440 397">
  <defs>
    <rect id="blog-cover@1x-a" width="1440" height="397"/>
    <linearGradient id="blog-cover@1x-c" x1="34.305%" x2="91.474%" y1="-126.088%" y2="71.828%">
      <stop offset="0%" stop-color="#000758"/>
      <stop offset="100%" stop-color="#109B9B"/>
    </linearGradient>
    <path id="blog-cover@1x-d" d="M649.67,0 L649.67,203.76 C599.2,229.34 553.15,256.17 511.37,281.09 C472.5,304.27 437.37,325.81 405.72,343.16 C371.18,362.16 339.6,377.53 310.33,390.11 C180.78,445.84 96.33,446.28 0.48,454.04 L0.48,0 L649.67,0 Z"/>
    <linearGradient id="blog-cover@1x-f" x1="-.001%" y1="50.012%" y2="50.012%">
      <stop offset="0%" stop-color="#6F0084"/>
      <stop offset="100%" stop-color="#00AEA0"/>
    </linearGradient>
    <linearGradient id="blog-cover@1x-g" x1="226084%" x2="242972%" y1="6328%" y2="6328%">
      <stop offset="0%" stop-color="#6F0084"/>
      <stop offset="100%" stop-color="#00AEA0"/>
    </linearGradient>
    <linearGradient id="blog-cover@1x-h" x1="236220%" x2="242377%" y1="22238%" y2="22238%">
      <stop offset="0%" stop-color="#6F0084"/>
      <stop offset="100%" stop-color="#00AEA0"/>
    </linearGradient>
    <linearGradient id="blog-cover@1x-i" x1="233826%" x2="243261%" y1="33717%" y2="33717%">
      <stop offset="0%" stop-color="#6F0084"/>
      <stop offset="100%" stop-color="#00AEA0"/>
    </linearGradient>
    <linearGradient id="blog-cover@1x-j" x1="232146%" x2="240052%" y1="36159%" y2="36159%">
      <stop offset="0%" stop-color="#6F0084"/>
      <stop offset="100%" stop-color="#00AEA0"/>
    </linearGradient>
    <linearGradient id="blog-cover@1x-k" x1="-.018%" x2="99.977%" y1="49.945%" y2="49.945%">
      <stop offset="0%" stop-color="#00AEA0"/>
      <stop offset="100%" stop-color="#B800AA"/>
    </linearGradient>
    <linearGradient id="blog-cover@1x-l" x1="-.002%" x2="99.999%" y1="49.996%" y2="49.996%">
      <stop offset="0%" stop-color="#B800AA"/>
      <stop offset="100%" stop-color="#00AEA0"/>
    </linearGradient>
    <linearGradient id="blog-cover@1x-m" x1="239279%" x2="242999%" y1="17356%" y2="17356%">
      <stop offset="0%" stop-color="#B800AA"/>
      <stop offset="100%" stop-color="#00AEA0"/>
    </linearGradient>
    <linearGradient id="blog-cover@1x-n" x1="246889%" x2="247381%" y1="16619%" y2="16619%">
      <stop offset="0%" stop-color="#B800AA"/>
      <stop offset="100%" stop-color="#00AEA0"/>
    </linearGradient>
    <linearGradient id="blog-cover@1x-o" x1="254953%" x2="263828%" y1="10008%" y2="10008%">
      <stop offset="0%" stop-color="#00AEA0"/>
      <stop offset="100%" stop-color="#B800AA"/>
    </linearGradient>
    <linearGradient id="blog-cover@1x-p" x1="222308%" x2="233594%" y1="13643%" y2="13643%">
      <stop offset="0%" stop-color="#B800AA"/>
      <stop offset="100%" stop-color="#00AEA0"/>
    </linearGradient>
    <linearGradient id="blog-cover@1x-q" x1="241467%" x2="243366%" y1="3090%" y2="3090%">
      <stop offset="0%" stop-color="#00AEA0"/>
      <stop offset="100%" stop-color="#B800AA"/>
    </linearGradient>
    <linearGradient id="blog-cover@1x-r" x1="232779%" x2="240503%" y1="23073%" y2="23073%">
      <stop offset="0%" stop-color="#B800AA"/>
      <stop offset="100%" stop-color="#00AEA0"/>
    </linearGradient>
    <linearGradient id="blog-cover@1x-s" x1="251138%" x2="253234%" y1="9761%" y2="9761%">
      <stop offset="0%" stop-color="#00AEA0"/>
      <stop offset="100%" stop-color="#B800AA"/>
    </linearGradient>
    <linearGradient id="blog-cover@1x-t" x1="251530%" x2="262774%" y1="13186%" y2="13186%">
      <stop offset="0%" stop-color="#6F0084"/>
      <stop offset="100%" stop-color="#00AEA0"/>
    </linearGradient>
    <linearGradient id="blog-cover@1x-u" x1="212698%" x2="227740%" y1="30708%" y2="30708%">
      <stop offset="0%" stop-color="#B800AA"/>
      <stop offset="100%" stop-color="#00AEA0"/>
    </linearGradient>
    <linearGradient id="blog-cover@1x-v" x1="75761.358%" x2="76358.224%" y1="32868%" y2="34798%">
      <stop offset="0%" stop-color="#010758"/>
      <stop offset="60%" stop-color="#010758" stop-opacity=".2"/>
      <stop offset="100%" stop-color="#010758" stop-opacity="0"/>
    </linearGradient>
    <linearGradient id="blog-cover@1x-w" x1="103.574%" x2="57.201%" y1="139.406%" y2="54.144%">
      <stop offset="0%" stop-color="#00D6C6" stop-opacity=".5"/>
      <stop offset="100%" stop-color="#FFF" stop-opacity="0"/>
    </linearGradient>
  </defs>
  <g fill="none" fill-rule="evenodd">
    <mask id="blog-cover@1x-b" fill="#fff">
      <use xlink:href="#blog-cover@1x-a"/>
    </mask>
    <use fill="#FFF" xlink:href="#blog-cover@1x-a"/>
    <rect width="1440" height="397" fill="#FFF" mask="url(#blog-cover@1x-b)"/>
    <path fill="url(#blog-cover@1x-c)" d="M0,0 L1440,0 L1440,297 C1440,352.228475 1395.22847,397 1340,397 L0,397 L0,0 Z" mask="url(#blog-cover@1x-b)"/>
    <g mask="url(#blog-cover@1x-b)">
      <g transform="rotate(-8 434.284 -6267.551)">
        <path fill="#C9F5F2" fill-rule="nonzero" d="M473.33,326.2 C474.39,325.36 476.41,324.47 477.16,325.2 C478.045534,326.263925 478.610786,327.557415 478.79,328.93 L474.97,330.88 L473.33,326.2 Z"/>
        <path fill="#C9F5F2" fill-rule="nonzero" d="M474.69,331.54 L472.69,326.03 L472.97,325.8 C473.97,325.03 476.34,323.8 477.45,324.8 C478.437746,325.960358 479.060498,327.386774 479.24,328.9 L479.24,329.21 L474.69,331.54 Z M473.92,326.38 L475.25,330.13 L478.25,328.6 C478.020523,327.476861 477.52691,326.424506 476.81,325.53 C476.44,325.18 475,325.61 473.92,326.38 Z"/>
        <path fill="#C9F5F2" fill-rule="nonzero" d="M477.5,327.54 C478.75,326.82 480.14,330.97 476.41,333.13 L474.26,329.41 L477.5,327.54 Z"/>
        <path stroke="#C9F5F2" d="M477.5,327.54 C478.75,326.82 480.14,330.97 476.41,333.13 L474.26,329.41 L477.5,327.54 Z"/>
        <circle cx="467.57" cy="331.43" r="8.48" fill="#C9F5F2" fill-rule="nonzero"/>
        <circle cx="467.603" cy="331.496" r="8.48" stroke="#C9F5F2" transform="rotate(-37.94 467.603 331.496)"/>
        <path fill="#C9F5F2" fill-rule="nonzero" d="M476,330.18 C477.39,334.18 478.74,339.94 474.09,342.63 C469.09,345.54 465.09,341.29 462.35,338.09 L476,330.18 Z"/>
        <path stroke="#C9F5F2" d="M476,330.18 C477.39,334.18 478.74,339.94 474.09,342.63 C469.09,345.54 465.09,341.29 462.35,338.09 L476,330.18 Z"/>
        <circle cx="467.21" cy="331.07" r="5.37" fill="#00AEA0" fill-rule="nonzero"/>
        <circle cx="467.178" cy="331.064" r="5.37" stroke="#00AEA0" transform="rotate(-88.83 467.178 331.064)"/>
        <path fill="#FFF" fill-rule="nonzero" d="M461.22,369.07 L400.41,404.29 C399.540125,404.794065 398.505615,404.931852 397.534132,404.67304 C396.562649,404.414228 395.733804,403.780025 395.23,402.91 L372,362.72 L439.38,323.72 L462.66,363.91 C463.680219,365.733386 463.036963,368.038386 461.22,369.07 Z"/>
        <path fill="#FFF" fill-rule="nonzero" d="M445.71,377.2 C442.21,379.2 424.51,389.39 405.17,400.61 L401.52,402.73 L400.61,403.26 C400.31,403.44 399.98,403.63 399.75,403.74 C399.235677,403.968848 398.668331,404.051875 398.11,403.98 C397.553587,403.910092 397.029224,403.680901 396.6,403.32 C396.143162,402.905189 395.77568,402.401602 395.52,401.84 C394.81,400.62 394.1,399.41 393.4,398.19 L385.21,384.13 L372.82,363 L372.96,362.91 C376.48,360.84 380.03,358.65 383.5,356.68 C395.5,349.88 407.38,343.14 419.18,336.05 C420.97,335.05 424,333.33 427.63,331.23 L439.12,324.54 L450.34,343.65 L460.18,360.51 L462.11,363.75 C462.801642,364.687236 463.005866,365.897724 462.66,367.01 C462.363249,367.791555 461.902981,368.500709 461.31,369.09 C461.23,369.22 461.31,369.27 461.48,369.2 C461.868345,369.052331 462.212551,368.807945 462.48,368.49 C463.122335,367.803363 463.510486,366.917674 463.58,365.98 C463.622931,365.463804 463.565196,364.944182 463.41,364.45 C463.329077,364.196022 463.228783,363.948629 463.11,363.71 L462.77,363.09 C461.31,360.47 459.77,357.75 458.19,355.09 L439.55,322.8 L383.55,355.12 L370.8,362.49 L385.15,387.26 C386.9,390.26 389.09,394.01 391.38,397.95 L393.12,400.95 L393.99,402.45 L394.43,403.2 C394.594927,403.489936 394.785701,403.764384 395,404.02 C396.365974,405.633877 398.67128,406.079125 400.54,405.09 C401.08,404.79 401.54,404.53 401.99,404.25 L415.51,396.38 L438.28,383.23 C444.88,379.37 451.45,375.44 457.87,371.57 C459.047367,370.883074 460.149983,370.075383 461.16,369.16 C461.27,369.03 458.48,370.45 455.16,372.21 C451.84,373.97 447.89,376 445.71,377.2 Z"/>
        <rect width="6.07" height="6.07" x="388.358" y="372.756" fill="#C9F5F2" fill-rule="nonzero" rx=".88" transform="rotate(-30.08 391.393 375.791)"/>
        <rect width="6.07" height="6.07" x="388.348" y="372.746" stroke="#C9F5F2" rx=".88" transform="rotate(-30.08 391.383 375.781)"/>
        <rect width="6.07" height="6.07" x="397.425" y="367.498" fill="#C9F5F2" fill-rule="nonzero" rx=".88" transform="rotate(-30.08 400.46 370.533)"/>
        <path fill="#C9F5F2" fill-rule="nonzero" d="M402.14,372.27 C401.96,372.34 401.47,372.6 400.8,372.98 L399.72,373.59 C399.701436,373.600718 399.678564,373.600718 399.66,373.59 L399.57,373.45 C399.04,372.57 398.5,371.67 398.01,370.87 L397.38,369.87 C397.338914,369.798838 397.338914,369.711162 397.38,369.64 L397.38,369.56 L397.6,369.39 C397.740384,369.268642 397.894821,369.164565 398.06,369.08 C398.62,368.82 399.19,368.56 399.73,368.27 C400.005535,368.128942 400.272651,367.972012 400.53,367.8 L400.92,367.54 L401.1,367.4 L401.17,367.33 C401.272354,367.347498 401.366721,367.396429 401.44,367.47 L402.09,368.47 L403.14,370.04 L403.6,370.78 L403.79,371.06 C403.864184,371.146623 403.906525,371.256005 403.91,371.37 C403.943591,371.511365 403.943591,371.658635 403.91,371.8 C403.85,371.96 403.91,372.38 404.22,372.34 C404.476379,372.291917 404.697079,372.130071 404.82,371.9 C405.028228,371.47439 405.001755,370.9714 404.75,370.57 L403.65,368.57 L403.1,367.57 L402.82,367.08 L402.68,366.83 C402.599442,366.68614 402.498384,366.554764 402.38,366.44 C401.86651,365.951343 401.091568,365.861613 400.48,366.22 L399.48,366.77 L397.48,367.88 L396.64,368.35 C396.120365,368.675783 395.818015,369.25752 395.85,369.87 C395.867307,370.149847 395.95316,370.421145 396.1,370.66 L396.34,371.07 L396.82,371.88 L398.06,373.88 L398.37,374.38 C398.523133,374.600992 398.729486,374.779832 398.97,374.9 C399.131562,374.977224 399.303279,375.031096 399.48,375.06 L399.68,375.06 C399.856599,375.062773 400.0324,375.035726 400.2,374.98 C400.283334,374.955311 400.36379,374.921787 400.44,374.88 L400.59,374.8 L401.11,374.52 C401.46,374.34 401.8,374.14 402.11,373.93 C402.688871,373.549973 403.237202,373.12535 403.75,372.66 C403.868782,372.502949 403.905898,372.298811 403.85,372.11 C403.275082,372.043216 402.692549,372.097722 402.14,372.27 Z"/>
        <rect width="6.07" height="6.07" x="406.492" y="362.249" fill="#C9F5F2" fill-rule="nonzero" rx=".88" transform="rotate(-30.08 409.527 365.284)"/>
        <rect width="6.07" height="6.07" x="406.502" y="362.259" stroke="#C9F5F2" rx=".88" transform="rotate(-30.08 409.537 365.294)"/>
        <rect width="6.07" height="6.07" x="415.565" y="356.991" fill="#C9F5F2" fill-rule="nonzero" rx=".88" transform="rotate(-30.08 418.6 360.026)"/>
        <rect width="6.07" height="6.07" x="415.565" y="356.981" stroke="#C9F5F2" rx=".88" transform="rotate(-30.08 418.6 360.016)"/>
        <rect width="21.554" height="6.091" x="434.725" y="352.51" fill="#C9F5F2" fill-rule="nonzero" rx=".88" transform="rotate(-29.887 445.502 355.556)"/>
        <rect width="21.554" height="6.091" x="434.725" y="352.51" stroke="#C9F5F2" stroke-width="1.003" rx=".88" transform="rotate(-29.887 445.502 355.556)"/>
        <rect width="6.07" height="6.07" x="389.202" y="358.844" fill="#C9F5F2" fill-rule="nonzero" rx=".88" transform="rotate(-30.08 392.237 361.879)"/>
        <rect width="6.07" height="6.07" x="389.202" y="358.834" stroke="#C9F5F2" rx=".88" transform="rotate(-30.08 392.237 361.869)"/>
        <rect width="6.07" height="6.07" x="398.274" y="353.576" fill="#C9F5F2" fill-rule="nonzero" rx=".88" transform="rotate(-30.08 401.309 356.611)"/>
        <rect width="6.07" height="6.07" x="398.274" y="353.586" stroke="#C9F5F2" rx=".88" transform="rotate(-30.08 401.309 356.621)"/>
        <rect width="6.07" height="6.07" x="380.179" y="364.075" fill="#C9F5F2" fill-rule="nonzero" rx=".88" transform="rotate(-30.08 383.214 367.11)"/>
        <rect width="6.07" height="6.07" x="380.169" y="364.065" stroke="#C9F5F2" rx=".88" transform="rotate(-30.08 383.204 367.1)"/>
        <rect width="6.07" height="6.07" x="407.332" y="348.332" fill="#C9F5F2" fill-rule="nonzero" rx=".88" transform="rotate(-30.08 410.367 351.367)"/>
        <rect width="6.07" height="6.07" x="407.332" y="348.332" stroke="#C9F5F2" rx=".88" transform="rotate(-30.08 410.367 351.367)"/>
        <rect width="6.07" height="6.07" x="416.4" y="343.083" fill="#C9F5F2" fill-rule="nonzero" rx=".88" transform="rotate(-30.08 419.435 346.118)"/>
        <rect width="6.07" height="6.07" x="416.4" y="343.073" stroke="#C9F5F2" rx=".88" transform="rotate(-30.08 419.435 346.108)"/>
        <rect width="28" height="9.33" x="408.84" y="368.217" fill="#C9F5F2" fill-rule="nonzero" rx=".88" transform="rotate(-30.08 422.84 372.882)"/>
        <rect width="28" height="9.33" x="408.84" y="368.217" stroke="#C9F5F2" rx=".88" transform="rotate(-30.08 422.84 372.882)"/>
        <rect width="6.07" height="6.07" x="425.477" y="337.834" fill="#C9F5F2" fill-rule="nonzero" rx=".88" transform="rotate(-30.08 428.512 340.87)"/>
        <rect width="6.07" height="6.07" x="425.477" y="337.844" stroke="#C9F5F2" rx=".88" transform="rotate(-30.08 428.512 340.88)"/>
        <rect width="6.07" height="6.07" x="434.544" y="332.585" fill="#C9F5F2" fill-rule="nonzero" rx=".88" transform="rotate(-30.08 437.579 335.62)"/>
        <rect width="6.07" height="6.07" x="434.544" y="332.575" stroke="#C9F5F2" rx=".88" transform="rotate(-30.08 437.579 335.61)"/>
        <path fill="#00506B" fill-rule="nonzero" d="M489.6,393.86 C492.29,398.5 491.6,415.28 490.6,420.24 C489.6,425.2 486.68,431.53 466.43,443.24 C446.18,454.95 439.29,454.24 434.43,452.76 C429.57,451.28 415.78,443.04 413.09,438.4 L489.6,393.86 Z"/>
        <path stroke="#00506B" stroke-width="2" d="M489.6,393.86 C492.29,398.5 491.6,415.28 490.6,420.24 C489.6,425.2 486.68,431.53 466.43,443.24 C446.18,454.95 439.29,454.24 434.43,452.76 C429.57,451.28 415.78,443.04 413.09,438.4 L489.6,393.86 Z"/>
        <path fill="#FF927C" fill-rule="nonzero" stroke="#FF927C" d="M478,352 C473.64,352.09 452.49,351.14 450.55,350.37 C448.61,349.6 443.82,346.06 442.83,345.47 C441.84,344.88 439.19,343.66 438.73,343.37 C438.060309,343.165262 437.358299,343.087261 436.66,343.14 C436.02,343.14 434.86,343.03 434.66,343.78 C434.374127,343.64829 434.071166,343.557401 433.76,343.51 C433.13,343.51 432.45,344.23 432.12,344.77 C431.79,345.31 431.62,345.99 432.02,346.38 C431.538239,346.230145 431.033951,346.165839 430.53,346.19 C429.525556,346.478283 428.712423,347.217495 428.33,348.19 C428.243121,348.687648 428.320332,349.200051 428.55,349.65 C427.894622,349.480041 427.225239,349.369593 426.55,349.32 C426.18489,349.382802 425.884418,349.642311 425.769152,349.994395 C425.653886,350.346479 425.742717,350.733438 426,351 C426.61,351.59 430.82,353.36 431.29,353.58 L432.34,354.05 C431.24,354.36 430.34,354.85 430.34,355.59 C430.25,356.71 431.78,356.35 433.16,356.9 C434.54,357.45 436.76,358.53 438.95,359.22 C441.229234,359.845725 443.586938,360.138754 445.95,360.09 C447.08,359.98 448.43,358.85 450.81,359.04 C453.19,359.23 475.31,363.23 476.87,364.33 L491.56,365.83 C491.782853,363.605268 491.513135,361.358755 490.77,359.25 C488.58,354.76 484.78,351.91 478,352 Z M432.54,350.58 C432.19,350.52 430.74,350.16 429.34,349.84 C429.77,349.55 430.34,349.04 430.64,349.06 C432.109975,349.629763 433.539881,350.297944 434.92,351.06 C434.21,351 433,350.69 432.51,350.62 L432.54,350.58 Z M432.85,346.58 C433.13,346.45 433.33,346.18 433.55,346.22 C433.95,346.31 435.96,347.45 436.85,347.86 C436,347.69 434.26,347.08 432.82,346.65 L432.85,346.58 Z"/>
        <path fill="#000" fill-rule="nonzero" d="M478.17,365.27 C477.99,365.1 477.66,365.47 477.82,365.85 C477.82,365.92 477.98,366.09 477.92,366.06 C477.71,365.97 477.42,365.86 477.7,366.23 C477.35,366.01 477.64,366.59 477.64,366.61 L477.64,366.81 C477.695106,366.881718 477.762894,366.942726 477.84,366.99 C477.96,367.08 478.64,367.44 478.91,367.58 L479.31,367.8 L479.41,367.86 C479.518381,367.886692 479.631619,367.886692 479.74,367.86 C479.74,367.86 479.84,367.86 479.84,367.79 C479.84,367.72 479.77,367.5 479.84,367.53 C479.91,367.56 479.98,367.6 479.96,367.53 C479.884907,367.36206 479.794527,367.201383 479.69,367.05 L479.17,366.35 C479,366.19 478.29,365.36 478.17,365.27 Z"/>
        <path fill="#FF927C" fill-rule="nonzero" stroke="#FF927C" d="M406.23,364.5 C405.83,365.57 404.98,369.85 404.65,370.78 C403.913985,372.551204 403.273072,374.360447 402.73,376.2 C402.309241,377.551156 401.556261,378.775178 400.54,379.76 C399.4,380.96 397.95,385.61 397.41,389.05 C396.96,391.87 396.27,405.81 395.84,410.17 C398.31,410.63 405.79,413.79 410.08,415.11 L402.43,431.11 C395.43,429.25 384.98,423.11 382.51,418.11 C380.04,413.11 382.69,401.56 383.57,399.06 C384.45,396.56 392.1,380.44 392.27,378.8 C392.44,377.16 391.08,372.98 390.59,371.07 C390.080708,369.086389 389.746097,367.06199 389.59,365.02 C389.917541,363.885123 390.427536,362.811093 391.1,361.84 C391.285522,361.649765 391.489907,361.478886 391.71,361.33 C392.194789,360.48473 392.932868,359.813112 393.82,359.41 C394.25,359.29 394.62,359.91 394.68,360.62 C394.679024,360.11463 394.715793,359.609893 394.79,359.11 C394.94,358.63 396.48,357.86 396.92,357.72 C397.55416,357.699586 398.155835,358.000423 398.52,358.52 C398.9,359.03 398.28,359.52 397.93,359.62 C397.58,359.72 397.66,360.33 397.76,361.12 C397.86,361.91 398.21,365.64 398.76,364.93 C399.31,364.22 400.04,361.17 400.45,359.77 C400.8,358.56 401.62,355.59 402.45,355.72 C403.28,355.85 403.35,358.04 402.96,359.72 C402.525044,362.220612 402.290964,364.752031 402.26,367.29 C402.782079,366.306581 403.387636,365.369806 404.07,364.49 C405.17,363.18 406.63,363.43 406.23,364.5 Z"/>
        <path stroke="#EF5C8A" stroke-width=".75" d="M394.64,364.21 C394.64,363.65 394.76,360.08 394.8,358.77 M391.87,366.69 C391.87,365.89 391.43,362.12 391.71,361.32 M434.62,343.42 C436.26924,344.214834 437.862872,345.120231 439.39,346.13"/>
        <path fill="#00AEA0" fill-rule="nonzero" d="M493,386.39 C491.67,391.39 489,397.73 486.94,402.78 C484.88,407.83 476.49,421.72 458.56,432.1 C451.56,436.1 443,440.87 435.56,442.37 C428.12,443.87 418.12,439.79 415.5,439.37 C412.88,438.95 388.41,424.74 386.1,423.84 C383.79,422.94 383.91,420.09 386.1,415.84 C388.43,411.37 394.03,408.05 396.53,407.99 C399.03,407.93 415.77,411.99 418.31,410.99 C420.85,409.99 423.81,408.6 429.71,406.71 C440.38,403.3 456.64,390.17 456.64,390.17 C458.76,388.93 463.26,382.17 464.64,381.73 C465.82,381.25 468.71,376.54 469.56,375.88 C469.722073,375.674679 469.918269,375.498779 470.14,375.36 C470.97,374.58 473.75,370.59 474.27,368.53 C474.540396,367.47414 474.874338,366.435581 475.27,365.42 C476.06,362.73 478.54,360.81 481.75,359.42 C488.02,356.68 491.43,358.27 492.6,359.71 C493.77,361.15 494.3,381.38 493,386.39 Z"/>
        <path stroke="#00AEA0" d="M493,386.39 C491.67,391.39 489,397.73 486.94,402.78 C484.88,407.83 476.49,421.72 458.56,432.1 C451.56,436.1 443,440.87 435.56,442.37 C428.12,443.87 418.12,439.79 415.5,439.37 C412.88,438.95 388.41,424.74 386.1,423.84 C383.79,422.94 383.91,420.09 386.1,415.84 C388.43,411.37 394.03,408.05 396.53,407.99 C399.03,407.93 415.77,411.99 418.31,410.99 C420.85,409.99 423.81,408.6 429.71,406.71 C440.38,403.3 456.64,390.17 456.64,390.17 C458.76,388.93 463.26,382.17 464.64,381.73 C465.82,381.25 468.71,376.54 469.56,375.88 C469.722073,375.674679 469.918269,375.498779 470.14,375.36 C470.97,374.58 473.75,370.59 474.27,368.53 C474.540396,367.47414 474.874338,366.435581 475.27,365.42 C476.06,362.73 478.54,360.81 481.75,359.42 C488.02,356.68 491.43,358.27 492.6,359.71 C493.77,361.15 494.3,381.38 493,386.39 Z"/>
        <path stroke="#EF5C8A" stroke-width=".75" d="M434.89,351.14 C434.21,350.98 432.96,350.45 432.5,350.38 C432.04,350.31 429.19,349.49 427.79,349.17 M436.82,347.93 C435.96,347.69 432.44,346.41 430.99,345.98 M474.2,362.8 C475.503792,360.447814 477.273101,358.385889 479.4,356.74"/>
        <path fill="#FF927C" fill-rule="nonzero" d="M454.54,382.17 C451.43,379.94 442.34,374.82 432.42,380.03 C421.61,385.73 424.84,402.62 425.72,406.03 L454.54,382.17 Z"/>
        <path stroke="#FF927C" d="M454.54,382.17 C451.43,379.94 442.34,374.82 432.42,380.03 C421.61,385.73 424.84,402.62 425.72,406.03 L454.54,382.17 Z"/>
        <path fill="#FF927C" fill-rule="nonzero" d="M435.54,379 C434.54,378.54 431.82,377 430.18,378 C428.54,379 428.5,382.11 428.42,383.16 L435.54,379 Z"/>
        <path stroke="#FF927C" d="M435.54,379 C434.54,378.54 431.82,377 430.18,378 C428.54,379 428.5,382.11 428.42,383.16 L435.54,379 Z"/>
        <path fill="#002C51" fill-rule="nonzero" d="M427,400.84 C427,400.84 425.71,390.56 432.67,385.24 C439.63,379.92 449.67,378.43 457.94,384.05 C466.21,389.67 464.35,399.98 466.48,404.79 C468.61,409.6 472.92,417.68 468.43,426.12 C463.94,434.56 448.88,435.25 447.06,428.97 C445.24,422.69 442.42,423.41 438.37,422.11 C434.32,420.81 428.09,415.46 426.55,410.79 C424.32,404 427,400.84 427,400.84 Z"/>
        <path stroke="#002C51" stroke-width="2" d="M427,400.84 C427,400.84 425.71,390.56 432.67,385.24 C439.63,379.92 449.67,378.43 457.94,384.05 C466.21,389.67 464.35,399.98 466.48,404.79 C468.61,409.6 472.92,417.68 468.43,426.12 C463.94,434.56 448.88,435.25 447.06,428.97 C445.24,422.69 442.42,423.41 438.37,422.11 C434.32,420.81 428.09,415.46 426.55,410.79 C424.32,404 427,400.84 427,400.84 Z"/>
        <mask id="blog-cover@1x-e" fill="#fff">
          <use xlink:href="#blog-cover@1x-d"/>
        </mask>
        <g mask="url(#blog-cover@1x-e)">
          <g transform="translate(6 -33)">
            <polygon fill="#6F0084" fill-rule="nonzero" points="198.18 194.42 193.68 189.99 198.1 185.49 196.67 184.09 192.25 188.59 187.75 184.17 186.35 185.6 190.85 190.02 186.43 194.52 187.85 195.92 192.28 191.42 196.78 195.84"/>
            <polygon fill="#007585" fill-rule="nonzero" points="273.49 282.69 269.83 279.45 273.08 275.79 271.58 274.46 268.33 278.12 264.68 274.87 263.35 276.37 267.01 279.61 263.76 283.27 265.25 284.6 268.5 280.94 272.16 284.19 273.49 282.69"/>
            <path fill="#53007A" fill-rule="nonzero" d="M19.14,440 C11.33,430.65 17.03,421.33 22.99,413.33 C27.18,407.71 25.28,403.77 22.86,398.78 C21.05,395.04 19.01,390.78 19.61,385.36 C20.29,379.14 23.06,376.95 25.74,374.83 C28.59,372.57 31.54,370.24 32.9,362.63 C34.14,355.71 32.49,351.99 30.9,348.4 C29,344.14 27.19,340.11 30.15,331.87 L32.03,332.55 C29.35,340.02 30.91,343.55 32.73,347.55 C34.38,351.23 36.24,355.41 34.89,362.94 C33.39,371.3 29.99,373.99 27,376.36 C24.43,378.36 22.21,380.15 21.62,385.54 C21.08,390.42 22.91,394.21 24.68,397.87 C27.18,403.02 29.53,407.87 24.61,414.49 C18.86,422.21 13.81,430.49 20.7,438.68 L19.14,440 Z" opacity=".25"/>
            <path fill="url(#blog-cover@1x-f)" fill-rule="nonzero" d="M190.86,463.5 C190.86,370.17 237.94,298.77 237.94,298.77 L204.24,281.68 C183.41,279.81 175.83,288.5 174.45,309.85 C173.51,324.39 146.45,320.39 139.13,336.85 C130.92,355.45 147.89,365.47 128.2,386.41 C110.32,405.41 89.7,449.41 120.12,478.78 C120.12,478.78 141.58,475.15 155.49,472 C169.4,468.85 190.86,463.5 190.86,463.5 Z" opacity=".25"/>
            <path fill="url(#blog-cover@1x-g)" fill-rule="nonzero" d="M210.72,148.14 C198.72,118.29 227.63,108.08 239.2,109.62 C251.92,111.31 258.46,106.62 257.51,92.07 C256.25,72.86 270.46,60.78 290.96,60.07 C311.46,59.36 312.57,57.55 320.9,42 C329.23,26.45 347.2,20.17 364.08,15.94 L376.72,104.03 C376.72,104.03 314.25,110.77 231.64,176.54 L210.72,148.14 Z" opacity=".25"/>
            <path fill="url(#blog-cover@1x-h)" fill-rule="nonzero" d="M309.45,258.2 C307,241.09 323.67,232.56 336.11,240.54 C351.4,250.35 343.98,229.28 364.91,231.9 L370.77,253.81 C370.77,253.81 339.97,266.92 323.89,279.09 L309.45,258.2 Z" opacity=".25"/>
            <path fill="#53007A" fill-rule="nonzero" d="M50.87,442 C45.11,435.16 47.03,423.64 55.34,415.21 C62.21,408.21 58.51,402.01 55.24,396.5 L54.57,395.37 C51.14,389.48 53.76,375.31 65.52,367.37 C69.52,364.65 68.31,361.45 65.52,355.56 C62.92,349.98 59.69,343.04 63.45,335.06 L65.26,335.91 C61.9,343.05 64.79,349.25 67.34,354.71 C69.89,360.17 72.23,365.22 66.6,369.03 C56.15,376.1 53.17,389.08 56.26,394.38 C56.47,394.75 56.69,395.12 56.92,395.5 C60.19,401.02 64.68,408.58 56.73,416.64 C49.15,424.33 47.27,434.64 52.36,440.73 L50.87,442 Z" opacity=".25"/>
            <polygon fill="#6F0084" fill-rule="nonzero" points="122.48 213.56 121.3 196.96 123.3 196.82 124.33 211.42 138.94 210.39 139.08 212.38 122.48 213.56"/>
            <polygon fill="#00D6C6" fill-rule="nonzero" points="282.91 424.2 271.89 416.57 273.03 414.93 282.41 421.42 288.9 412.05 290.54 413.19 282.91 424.2"/>
            <polygon fill="#53007A" fill-rule="nonzero" points="155.34 398.71 146.76 386.19 148.41 385.06 155.86 395.93 166.73 388.48 167.86 390.13" opacity=".25"/>
            <path fill="#00D6C6" fill-rule="nonzero" d="M341.13,322.86 C340.661118,321.793213 339.616903,321.094454 338.451922,321.067907 C337.286941,321.041359 336.211981,321.691827 335.694991,322.736148 C335.178001,323.78047 335.312524,325.02969 336.04,325.94 C336.582075,326.830447 337.547541,327.375651 338.59,327.38 C339.657623,327.363551 340.636042,326.780885 341.159128,325.850041 C341.682213,324.919196 341.67112,323.780478 341.13,322.86 Z"/>
            <path fill="#007585" fill-rule="nonzero" d="M260.53,351.16 C259.936451,350.161424 258.966552,349.443223 257.838261,349.166792 C256.70997,348.89036 255.517924,349.078885 254.53,349.69 C253.033206,350.598933 252.229306,352.318356 252.491639,354.049752 C252.753971,355.781148 254.031134,357.185258 255.73,357.61 C256.057721,357.688995 256.392975,357.732578 256.73,357.74 C258.291972,357.733797 259.730124,356.88872 260.495708,355.527222 C261.261292,354.165724 261.236198,352.497849 260.43,351.16 L260.53,351.16 Z"/>
            <path fill="#00506B" fill-rule="nonzero" d="M268.16,248.19 C267.98,247.98 267.45,248 267.16,248.13 C267.403753,248.056822 267.597323,247.870697 267.68,247.63 C267.754403,247.336122 267.726178,247.025644 267.6,246.75 C267.358282,246.352724 267.034366,246.01176 266.65,245.75 C264.523362,244.252517 261.691607,244.22862 259.54,245.69 C258.473124,246.410242 257.647395,247.434564 257.17,248.63 C256.678965,249.854684 256.598263,251.205566 256.94,252.48 C257.521252,254.673485 259.303297,256.342938 261.53,256.78 C262.854336,257.019856 264.22066,256.830672 265.43,256.24 C265.930678,255.993876 266.397804,255.684699 266.82,255.32 C266.994283,255.175157 267.161161,255.021629 267.32,254.86 C268.335968,253.973457 268.993732,252.746816 269.17,251.41 C269.264846,250.246168 268.902563,249.091167 268.16,248.19 Z M182.48,461.15 C180.823146,458.388577 177.241424,457.493147 174.48,459.150001 C171.718577,460.806855 170.823146,464.388576 172.48,467.15 C173.260034,468.447879 174.540659,469.366745 176.02,469.69 C176.443211,469.785965 176.876055,469.83294 177.31,469.83 C178.392793,469.829979 179.454771,469.532487 180.38,468.97 C183.117196,467.388825 184.056863,463.889682 182.48,461.15 Z"/>
            <path fill="#6F0084" fill-rule="nonzero" d="M254.89,133.76 C254.10617,132.467553 252.826628,131.553078 251.35,131.23 C248.265266,130.585782 245.207826,132.437717 244.35,135.47 C243.946005,136.926699 244.159385,138.485463 244.94,139.78 C245.969614,141.457494 247.801779,142.474099 249.77,142.46 C252.449716,142.447861 254.796497,140.660227 255.52,138.08 C255.906586,136.614266 255.679089,135.054282 254.89,133.76 Z" opacity=".25"/>
            <path fill="#53007A" fill-rule="nonzero" d="M162,134.12 C161.290649,132.939361 160.125686,132.103627 158.78,131.81 C155.942933,131.183955 153.112481,132.889258 152.34,135.69 C151.970402,137.018419 152.165802,138.4405 152.88,139.62 C153.816927,141.149042 155.486797,142.075061 157.28,142.06 C158.271144,142.057569 159.242791,141.784402 160.09,141.27 C162.588581,139.820511 163.442905,136.622389 162,134.12 Z"/>
            <path fill="#00506B" fill-rule="nonzero" d="M446.69 179.55C446.360736 178.055464 445.459874 176.749034 444.18 175.91 442.922341 175.069654 441.374525 174.783273 439.89945 175.118002 438.424376 175.45273 437.151768 176.37913 436.38 177.68 434.783849 180.409637 435.580073 183.909521 438.2 185.68 439.104574 186.287923 440.170128 186.611768 441.26 186.61 441.6708 186.612254 442.080389 186.565252 442.48 186.47 443.957439 186.14143 445.232203 185.214328 446 183.91 446.785494 182.600698 447.032823 181.037866 446.69 179.55zM449.62 134.75C449.28291 133.25888 448.383898 131.955134 447.11 131.11 445.84952 130.270095 444.299286 129.985044 442.822477 130.321628 441.345669 130.658211 440.072051 131.586855 439.3 132.89 438.513893 134.199214 438.26991 135.763581 438.62 137.25 439.183988 139.885724 441.494883 141.781736 444.19 141.82 444.600192 141.821319 445.009296 141.777726 445.41 141.69 448.485346 140.931171 450.367787 137.82805 449.62 134.75zM585.47 214.24C585.140237 212.748375 584.24384 211.44322 582.97 210.6 581.706872 209.764381 580.157933 209.479145 578.68 209.81 576.648945 210.272659 575.018999 211.783728 574.404146 213.774003 573.789293 215.764277 574.282944 217.931387 575.699146 219.459003 577.115347 220.986619 579.238945 221.642659 581.27 221.18 582.744191 220.83807 584.015314 219.910007 584.79 218.61 585.574696 217.296599 585.81851 215.729736 585.47 214.24zM117.61 348C117.144581 346.122017 115.964028 344.500102 114.32 343.48 112.176086 341.869771 109.309349 341.600509 106.903093 342.783359 104.496836 343.966209 102.959128 346.400575 102.924689 349.081623 102.89025 351.762671 104.364921 354.235732 106.74 355.48 107.935567 356.241069 109.32275 356.64682 110.74 356.65 112.907643 356.6739 114.964051 355.692169 116.308442 353.991622 117.652833 352.291076 118.133494 350.063616 117.61 347.96L117.61 348zM355.6 103C353.456086 101.389771 350.589349 101.120509 348.183093 102.303359 345.776836 103.486209 344.239128 105.920575 344.204689 108.601623 344.17025 111.282671 345.644921 113.755732 348.02 115 349.218648 115.753057 350.604434 116.154935 352.02 116.16 354.447456 116.177122 356.713465 114.945923 358.02 112.9 360.054329 109.493172 358.976571 105.084163 355.6 103z"/>
            <path fill="#53007A" fill-rule="nonzero" d="M109.55,135.13 C108.993552,132.929522 107.606567,131.030033 105.68,129.83 C101.775133,127.309065 96.569071,128.396632 94,132.27 C92.8072526,134.151529 92.4453426,136.442419 93,138.6 C94.0058579,142.51457 97.5282904,145.256067 101.57,145.27 C104.399799,145.284391 107.040488,143.850875 108.57,141.47 C109.746317,139.578268 110.100239,137.288613 109.55,135.13 Z M267.05,79.77 C265.346044,76.4754253 261.813031,74.5447305 258.12,74.89 C256.293458,75.0625666 254.571413,75.8201265 253.21,77.05 C250.901555,79.1510018 249.963295,82.3673397 250.78,85.38 C251.27065,87.1993338 252.319965,88.8187773 253.78,90.01 C254.392701,90.5018907 255.064596,90.9151065 255.78,91.24 C256.076016,91.3777297 256.379874,91.4979371 256.69,91.6 C258.477945,92.2494544 260.431937,92.2811407 262.24,91.69 C263.787924,91.1454536 265.117687,90.1139227 266.03,88.75 C266.200804,88.4752683 266.247995,88.1413012 266.16,87.83 C266.23,87.97 266.38,87.99 266.58,87.83 C266.868931,87.5841071 267.103856,87.2810879 267.27,86.94 C267.558932,86.3461082 267.757781,85.7124878 267.86,85.06 C268.153898,83.2553663 267.87042,81.4040103 267.05,79.77 Z"/>
            <path fill="#007585" fill-rule="nonzero" d="M306.75,292.87 C306.161997,291.874242 305.200911,291.154327 304.08,290.87 C302.074468,290.361283 299.988694,291.339048 299.096825,293.206003 C298.204956,295.072958 298.755023,297.309899 300.411004,298.550334 C302.066985,299.790769 304.368348,299.689731 305.909247,298.308941 C307.450146,296.928151 307.802055,294.65161 306.75,292.87 Z M351,262.24 C349.760121,260.188262 347.091738,259.530121 345.04,260.77 C342.988262,262.009879 342.330121,264.678262 343.57,266.73 C344.15286,267.730353 345.116126,268.451901 346.24,268.73 C346.566884,268.813434 346.902649,268.857083 347.24,268.86 C348.803762,268.857386 350.245206,268.013721 351.013234,266.651558 C351.781263,265.289394 351.757106,263.619379 350.95,262.28 L351,262.24 Z"/>
            <path fill="#00D6C6" fill-rule="nonzero" d="M434.76,238.42 C433.747184,236.735788 431.729012,235.94237 429.840382,236.485918 C427.951752,237.029466 426.664089,238.774303 426.701498,240.739237 C426.738907,242.704171 428.09205,244.398732 430,244.87 C431.116088,245.151131 432.298369,244.970906 433.28,244.37 C434.278133,243.776201 434.996625,242.807119 435.274769,241.67951 C435.552912,240.5519 435.367499,239.359854 434.76,238.37 L434.76,238.42 Z"/>
            <path fill="#C9F5F2" fill-rule="nonzero" d="M448.51,308.39 C447.927157,307.905378 447.174264,307.674827 446.42,307.75 C445.668251,307.809828 444.972418,308.170364 444.49,308.75 C443.745036,309.639409 443.61119,310.890743 444.151185,311.917595 C444.69118,312.944446 445.798013,313.543339 446.952994,313.433616 C448.107974,313.323893 449.082236,312.527296 449.419214,311.417132 C449.756193,310.306968 449.389113,309.103221 448.49,308.37 L448.51,308.39 Z"/>
            <path fill="#00D6C6" fill-rule="nonzero" d="M446,272.14 C444.571068,270.965041 442.461169,271.166196 441.28,272.59 C440.098272,274.020467 440.299732,276.138031 441.73,277.32 C442.327796,277.8184 443.081693,278.090936 443.86,278.09 L444.19,278.09 C445.076891,278.002677 445.893087,277.567613 446.46,276.88 C447.026338,276.191805 447.296048,275.306794 447.209778,274.419715 C447.123508,273.532636 446.688328,272.716177 446,272.15 L446,272.14 Z"/>
            <path fill="#C9F5F2" fill-rule="nonzero" d="M490.34,297.15 C489.998365,296.862016 489.55454,296.724899 489.11,296.77 C488.667418,296.815676 488.261029,297.035054 487.98,297.38 C487.694671,297.721482 487.557432,298.16272 487.598735,298.605796 C487.640039,299.048872 487.85647,299.45714 488.2,299.74 C488.502167,299.98628 488.880182,300.120528 489.27,300.12 C489.771439,300.125326 490.248729,299.905038 490.57,299.52 C490.854738,299.175614 490.990544,298.73198 490.947381,298.287216 C490.904218,297.842453 490.685644,297.43321 490.34,297.15 Z M419.42,322.05 C419.076721,321.765038 418.634192,321.628322 418.19,321.67 C417.74449,321.715252 417.334828,321.934457 417.05,322.28 C416.765821,322.622743 416.630269,323.064773 416.673456,323.507905 C416.716642,323.951036 416.934991,324.358576 417.28,324.64 C417.995784,325.22629 419.050887,325.123462 419.64,324.41 C420.228674,323.696852 420.130345,322.642053 419.42,322.05 Z M355.15,330.34 C354.574801,329.887407 353.772778,329.859286 353.167293,330.270483 C352.561808,330.681679 352.292212,331.437555 352.500816,332.13911 C352.70942,332.840665 353.348214,333.326435 354.08,333.34 L354.24,333.34 C354.684806,333.302177 355.095631,333.086795 355.379747,332.742469 C355.663863,332.398143 355.797322,331.953895 355.75,331.51 C355.720745,331.053714 355.503468,330.630023 355.15,330.34 Z M427,325 C426.280945,324.412625 425.222696,324.515325 424.63,325.23 C424.168564,325.821416 424.15512,326.647076 424.597056,327.253202 C425.038992,327.859327 425.829208,328.099026 426.533403,327.84056 C427.237598,327.582095 427.685115,326.888103 427.63,326.14 C427.580751,325.691088 427.353881,325.280562 427,325 Z M398.66,274 C397.943576,273.410236 396.885626,273.508442 396.29,274.22 C395.708213,274.940739 395.810485,275.994578 396.52,276.59 C396.822973,276.834843 397.200462,276.968904 397.59,276.97 C398.089597,276.969861 398.562891,276.746055 398.88,276.36 C399.165329,276.018518 399.302568,275.57728 399.261265,275.134204 C399.219961,274.691128 399.00353,274.28286 398.66,274 Z M354,280.14 C353.424801,279.687407 352.622778,279.659286 352.017293,280.070483 C351.411808,280.481679 351.142212,281.237555 351.350816,281.93911 C351.55942,282.640665 352.198214,283.126435 352.93,283.14 L353.09,283.14 C353.534806,283.102177 353.945631,282.886795 354.229747,282.542469 C354.513863,282.198143 354.647322,281.753895 354.6,281.31 C354.57315,280.853054 354.355407,280.428455 354,280.14 Z M441.46,341.1 C441.116721,340.815038 440.674192,340.678322 440.23,340.72 C439.78449,340.765252 439.374828,340.984457 439.09,341.33 C438.805821,341.672743 438.670269,342.114773 438.713456,342.557905 C438.756642,343.001036 438.974991,343.408576 439.32,343.69 C439.616451,343.940651 439.991789,344.078747 440.38,344.08 L440.55,344.08 C440.993923,344.038716 441.401907,343.818477 441.68,343.47 C441.96589,343.126872 442.103385,342.684028 442.062104,342.239319 C442.020823,341.79461 441.804164,341.384642 441.46,341.1 Z M468,249 C466.784626,248.013398 465.001909,248.187213 464,249.39 C463.011008,250.602753 463.180337,252.385169 464.38,253.39 C464.891071,253.815624 465.534907,254.049103 466.2,254.05 C467.394888,254.033658 468.453658,253.276133 468.854874,252.1505 C469.25609,251.024866 468.915164,249.76844 468,249 Z M282.91,362.09 C282.325549,361.608362 281.573925,361.3782 280.82,361.45 C280.068569,361.510936 279.37314,361.871262 278.89,362.45 C278.400247,363.030058 278.169017,363.785171 278.25,364.54 C278.384778,366.00615 279.617681,367.126182 281.09,367.12 C281.896978,367.123905 282.667783,366.785517 283.211096,366.188826 C283.754409,365.592135 284.019292,364.793083 283.94,363.99 C283.861543,363.245345 283.49117,362.562132 282.91,362.09 Z"/>
            <path fill="#A8009C" fill-rule="nonzero" d="M105.76,297.35 C105.074129,296.779935 104.189258,296.506891 103.301419,296.591358 C102.41358,296.675825 101.59607,297.110829 101.03,297.8 C100.463662,298.488195 100.193952,299.373206 100.280222,300.260285 C100.366492,301.147364 100.801672,301.963823 101.49,302.53 C102.1753,303.096924 103.057915,303.368062 103.943303,303.28365 C104.828692,303.199238 105.644172,302.766206 106.21,302.08 C107.391728,300.649533 107.190268,298.531969 105.76,297.35 Z M139.61,294.94 C138.18226,293.767285 136.074604,293.971921 134.899126,295.397388 C133.723649,296.822854 133.924203,298.930902 135.34739,300.109138 C136.770578,301.287374 138.87901,301.090903 140.06,299.67 C141.236044,298.237793 141.035015,296.124749 139.61,294.94 Z" opacity=".25"/>
            <path fill="#00D6C6" fill-rule="nonzero" d="M408.71,219.3 C407.494626,218.313398 405.711909,218.487213 404.71,219.69 C404.014748,220.545437 403.870887,221.723488 404.339848,222.721097 C404.808809,223.718706 405.807712,224.35956 406.91,224.37 C408.120515,224.37622 409.203836,223.619659 409.61482,222.48103 C410.025805,221.342401 409.675426,220.068351 408.74,219.3 L408.71,219.3 Z"/>
            <circle cx="101.25" cy="274.28" r="2.36" fill="#53007A" fill-rule="nonzero"/>
            <path fill="#53007A" fill-rule="nonzero" d="M101.25,277.14 C100.586859,277.137796 99.9445048,276.908384 99.43,276.49 C98.8515689,276.002345 98.4916231,275.30405 98.43,274.55 C98.3501981,273.795284 98.5812896,273.040626 99.07,272.46 C100.074831,271.260337 101.857247,271.091008 103.07,272.08 C104.272787,273.081909 104.446602,274.864626 103.46,276.08 C102.975436,276.656961 102.280801,277.016876 101.53,277.08 L101.25,277.14 Z M101.25,272.42 L101.07,272.42 C100.06005,272.520306 99.3144753,273.407895 99.39,274.42 C99.4411301,274.911102 99.6814312,275.363012 100.06,275.68 C100.855766,276.323806 102.020349,276.212682 102.68,275.43 C103.329376,274.63592 103.217832,273.466942 102.43,272.81 C102.096477,272.549277 101.683252,272.411536 101.26,272.42 L101.25,272.42 Z"/>
            <circle cx="77.53" cy="279.09" r="2.36" fill="#53007A" fill-rule="nonzero"/>
            <path fill="#53007A" fill-rule="nonzero" d="M77.53,282 C76.1899588,281.982552 75.0417356,281.03694 74.7676768,279.725106 C74.4936179,278.413273 75.167227,277.087057 76.3882033,276.534579 C77.6091795,275.982101 79.0500524,276.351538 79.8545647,277.423347 C80.6590771,278.495156 80.6114556,279.981874 79.74,281 C79.1856472,281.641323 78.3776761,282.006921 77.53,282 Z M77.53,277.28 L77.35,277.28 C76.8563041,277.322494 76.4012787,277.564452 76.09,277.95 C75.4971365,278.746011 75.6337294,279.867282 76.4003575,280.49768 C77.1669856,281.128078 78.2935214,281.045477 78.96,280.31 C79.3910017,279.754676 79.4721104,279.003809 79.1696396,278.369255 C78.8671688,277.734701 78.2327988,277.324879 77.53,277.31 L77.53,277.28 Z"/>
            <circle cx="55.87" cy="228.92" r="2.36" fill="#53007A" fill-rule="nonzero"/>
            <path fill="#53007A" fill-rule="nonzero" d="M55.87,232.28 C54.2969135,232.280172 52.9342789,231.188898 52.5907365,229.653782 C52.247194,228.118667 53.014716,226.550686 54.4378249,225.880341 C55.8609338,225.209997 57.5586393,225.61675 58.5234569,226.859219 C59.4882746,228.101687 59.4619062,229.847241 58.46,231.06 C57.8226678,231.833673 56.8723774,232.2813 55.87,232.28 Z M55.87,227.56 C55.2789719,227.540699 54.7432061,227.905527 54.5446051,228.462523 C54.3460042,229.019519 54.5300889,229.641015 55,230 C55.2821829,230.225198 55.640454,230.332679 56,230.3 C56.360229,230.267523 56.6920308,230.090802 56.92,229.81 C57.2605918,229.405972 57.3341392,228.840371 57.1082018,228.362675 C56.8822644,227.884979 56.398387,227.583025 55.87,227.59 L55.87,227.56 Z"/>
            <path fill="#00D6C6" fill-rule="nonzero" d="M385.66,296 C385.03607,294.954511 383.842143,294.389793 382.638144,294.570686 C381.434145,294.751579 380.458874,295.642206 380.169712,296.824881 C379.880549,298.007556 380.334847,299.24771 381.31955,299.963738 C382.304252,300.679766 383.624055,300.729651 384.66,300.09 C386.054733,299.228812 386.500021,297.407582 385.66,296 Z"/>
            <path fill="#A8009C" fill-rule="nonzero" d="M271,181.62 L269,181.37 C269.06,180.94 270.42,170.71 280.21,166.61 C283.522199,165.130075 287.228732,164.778744 290.76,165.61 C294.461288,166.479207 298.35315,165.952221 301.69,164.13 C306.42,161.86 307.8,158.92 309.26,155.82 C310.82,152.49 312.44,149.05 318.14,146.82 C324.07,144.52 327.59,146.04 330.7,147.38 C333.3,148.51 335.54,149.48 339.05,148.13 C342.56,146.78 344.96,143.92 347.52,140.89 C350.76,137.04 354.12,133.06 360.06,131.59 C370.8,128.94 378.58,136.67 378.9,137.01 L377.48,138.41 C377.41,138.34 370.14,131.16 360.54,133.53 C355.23,134.85 352.08,138.53 349.05,142.18 C346.44,145.27 343.75,148.47 339.77,150 C335.5,151.64 332.66,150.41 329.9,149.22 C326.9,147.92 324.03,146.68 318.9,148.69 C313.9,150.61 312.63,153.41 311.11,156.69 C309.59,159.97 307.97,163.37 302.6,165.95 C296.92,168.67 293.6,168.13 290.47,167.6 C287.308967,166.845724 283.98741,167.155034 281.02,168.48 C272.3,172.09 271,181.52 271,181.62 Z M281.64,199.42 L279.95,198.35 C284.95,190.45 290.59,186.06 304.58,187.07 C311.82,187.59 313.95,183.85 316.43,179.52 C318.43,176.09 320.43,172.52 325.09,171 C330.27,169.28 333.8,170.41 337.21,171.49 C340.79,172.63 344.16,173.7 349.7,171.93 C353.53,170.71 356.56,167.57 359.5,164.53 C365.06,158.78 370.8,152.84 381.74,159.53 L380.74,161.24 C371.17,155.39 366.45,160.24 360.98,165.93 C357.87,169.14 354.65,172.47 350.35,173.85 C344.2,175.85 340.19,174.54 336.65,173.41 C333.39,172.41 330.32,171.41 325.76,172.91 C321.82,174.21 320.06,177.28 318.21,180.52 C315.63,185.03 312.96,189.68 304.47,189.08 C291.37,188.13 286.35,192 281.64,199.42 Z M545.57,236 C545.57,235.92 544.57,227.92 539.14,225.11 C536.6,223.79 534.03,224.47 531.05,225.26 C527.7,226.15 523.91,227.15 519.49,225.38 C515.07,223.61 513.05,220.48 511.29,217.73 C509.73,215.29 508.38,213.17 505.56,212.16 C503.36,211.37 500.28,212.35 497.03,213.38 C491.48,215.14 485.19,217.13 481.4,210.61 C478.64,205.84 475.75,203.28 472.59,202.81 C469.43,202.34 465.83,203.99 461.83,207.7 L460.47,206.24 C465,202.03 469.06,200.24 472.88,200.83 C476.7,201.42 480.04,204.27 483.13,209.61 C486.13,214.74 491.13,213.15 496.42,211.47 C500.01,210.33 503.42,209.26 506.24,210.28 C509.69,211.52 511.36,214.13 512.98,216.66 C514.6,219.19 516.38,221.97 520.24,223.52 C524.1,225.07 527.35,224.17 530.54,223.33 C533.73,222.49 536.83,221.66 540.06,223.33 C546.42,226.62 547.52,235.39 547.56,235.76 L545.57,236 Z M539,246 L537,245.75 C537,245.75 537.48,241.44 534.51,239.06 C532.59,237.53 530.07,238.17 526.88,238.97 C523.69,239.77 519.81,240.75 515.81,239.35 C511.81,237.95 509.92,235.35 508.09,232.88 C506.26,230.41 504.71,228.27 501.21,227.24 C498.51,226.45 495.21,227.87 492,229.24 C487.3,231.24 482,233.54 478.73,227.94 C474.08,219.94 465.63,217.61 457.2,222.04 L456.27,220.27 C465.73,215.27 475.22,217.91 480.46,226.94 C482.7,230.81 486,229.64 491.21,227.41 C494.73,225.89 498.38,224.33 501.77,225.33 C505.92,226.54 507.84,229.16 509.7,231.7 C511.42,234.04 513.05,236.26 516.47,237.46 C519.89,238.66 523.2,237.83 526.39,237.03 C529.82,236.17 533.07,235.35 535.76,237.5 C539.62,240.6 539,245.8 539,246 Z" opacity=".25"/>
            <path fill="url(#blog-cover@1x-i)" fill-rule="nonzero" d="M336.11,409.46 L318.73,412 C318.73,412 294.89,415.47 291.73,395.6 C288.57,375.73 308.6,367.99 295.45,360.4 C282.3,352.81 283.66,340.96 289.75,328.12 L367.34,369.46 L379.64,386.46 L336.11,409.46 Z" opacity=".2"/>
            <path fill="url(#blog-cover@1x-j)" fill-rule="nonzero" d="M273.94,396 C276.47,396.18 299.87,395.93 307.06,395.57 C308.34,395.5 309.64,395.31 310.89,395.35 C315.180072,395.610029 319.482537,395.589987 323.77,395.29 C326.49,395.6 337.45,395.02 338.25,395.01 C341.63,394.96 340.98,394.92 344.35,394.84 C345.131241,394.820338 345.909993,394.743466 346.68,394.61 C347.56,394.48 347.82,393.83 347.09,393.61 C346.559709,393.42287 346.00927,393.298685 345.45,393.24 C344.51,393.17 343.53,393.17 342.57,393.17 L311.14,393.17 C306.8,393.17 302.44,393.17 298.14,393.25 C293.84,393.33 285.14,393.58 285.14,393.54 C282.4,393.54 279.65,393.47 276.93,393.54 C274.54,393.62 272.15,393.82 269.81,394.05 C269.303023,394.111841 268.843781,394.379431 268.54,394.79 C268.37,395 272.38,395.88 273.94,396 Z" opacity=".25"/>
            <path fill="url(#blog-cover@1x-k)" fill-rule="nonzero" d="M452,330.45 C453.63,328.19 467.09,306.3 471,299.45 C471.69,298.22 472.28,296.91 473,295.77 C475.72745,291.920778 478.225134,287.913799 480.48,283.77 C482.33,281.41 488.25,270.91 488.7,270.16 C490.63,266.99 490.21,267.58 492.12,264.4 C492.5553,263.660672 492.945997,262.895974 493.29,262.11 C493.69,261.22 493.29,260.63 492.67,261.18 C492.196747,261.576014 491.767597,262.021927 491.39,262.51 C490.78,263.34 490.21,264.26 489.64,265.15 L471.31,294.39 C468.78,298.39 466.24,302.48 463.76,306.57 C461.28,310.66 456.43,318.85 456.4,318.84 C454.79,321.38 453.13,323.9 451.6,326.48 C450.27,328.75 449.05,331.08 447.88,333.38 C447.63368,333.866796 447.590524,334.431424 447.76,334.95 C447.85,335.09 451,331.84 452,330.45 Z" opacity=".25"/>
            <path fill="url(#blog-cover@1x-l)" fill-rule="nonzero" d="M99.48,226.13 C104.48,229.05 151.3,254.45 165.84,262.01 C168.43,263.35 171.12,264.6 173.59,266.01 C182.1,270.84 190.59,275.71 199.34,280.06 C204.62,283.31 226.8,294.81 228.41,295.67 C235.18,299.33 233.89,298.57 240.67,302.21 C242.25,303.05 243.89,303.84 245.44,304.56 C247.26,305.4 248.1,305.12 246.77,304.12 C245.770954,303.356574 244.732885,302.645614 243.66,301.99 C241.83,300.9 239.86,299.83 237.94,298.77 C217.02,287.31 196.096667,275.853333 175.17,264.4 C166.49,259.65 157.79,254.88 149.07,250.19 C140.35,245.5 122.9,236.19 122.9,236.19 C117.43,233.19 111.98,230.11 106.49,227.19 C101.68,224.64 96.8,222.19 92.01,219.84 C91.1196196,219.373997 90.1345799,219.117477 89.13,219.09 C88.85,219.15 96.41,224.32 99.48,226.13 Z" opacity=".5"/>
            <path fill="url(#blog-cover@1x-m)" fill-rule="nonzero" d="M341.17,145.53 C342.17,150.13 353.1,192.27 356.74,205.15 C357.39,207.45 358.18,209.74 358.74,212 C360.56,219.8 362.32,227.56 364.69,235.22 C365.63,240.22 371.21,259.84 371.59,261.28 C373.19,267.36 372.92,266.17 374.59,272.28 C374.96,273.69 375.43,275.11 375.88,276.43 C376.41,277.98 377.16,278.29 377.06,276.93 C376.998956,275.902391 376.86866,274.88007 376.67,273.87 C376.31,272.16 375.86,270.39 375.42,268.65 C370.62,249.77 365.82,230.886667 361.02,212 C359.02,204.16 357.02,196.3 354.96,188.48 C352.9,180.66 348.69,165.07 348.72,165.05 C347.47,160.11 346.28,155.14 344.95,150.24 C343.78,145.94 342.49,141.68 341.19,137.52 C340.962576,136.711264 340.516156,135.981075 339.9,135.41 C339.6,135.24 340.56,142.68 341.17,145.53 Z" opacity=".25"/>
            <path fill="url(#blog-cover@1x-n)" fill-rule="nonzero" d="M415.9,154.76 C415.79,158.06 416.73,188.62 417.31,198 C417.41,199.67 417.64,201.37 417.64,203 C417.64,208.62 417.54,214.21 418.08,219.82 C417.84,223.38 418.74,237.68 418.78,238.73 C418.93,243.14 418.96,242.29 419.13,246.73 C419.178991,247.734446 419.279121,248.735743 419.43,249.73 C419.59,250.88 420.24,251.2 420.43,250.25 C420.605448,249.545269 420.712609,248.825278 420.75,248.1 L420.75,244.33 C420.443333,230.65 420.126667,216.983333 419.8,203.33 C419.66,197.65 419.53,191.97 419.33,186.33 C419.13,180.69 418.62,169.33 418.65,169.33 C418.57,165.75 418.56,162.16 418.4,158.6 C418.26,155.48 417.98,152.36 417.68,149.31 C417.626528,148.68916 417.353528,148.107704 416.91,147.67 C416.74,147.46 416,152.71 415.9,154.76 Z" opacity=".25"/>
            <path fill="url(#blog-cover@1x-o)" fill-rule="nonzero" d="M503.73,193.86 C506.73,189.51 532.96,148.21 540.78,135.36 C542.17,133.07 543.47,130.68 544.92,128.51 C549.92,121.02 554.92,113.6 559.42,105.81 C562.76,101.2 574.66,81.6 575.56,80.18 C579.33,74.18 578.56,75.34 582.31,69.36 C583.18,67.97 584,66.51 584.75,65.14 C585.63,63.52 585.38,62.71 584.36,63.85 C583.582214,64.7013414 582.857514,65.5997032 582.19,66.54 C581.07,68.15 579.96,69.88 578.87,71.54 C567.043333,89.9733333 555.22,108.403333 543.4,126.83 C538.49,134.48 533.57,142.14 528.73,149.83 C523.89,157.52 514.28,172.92 514.25,172.91 C511.15,177.73 507.99,182.53 504.98,187.37 C502.34,191.62 499.81,195.93 497.36,200.18 C496.870763,200.974177 496.588806,201.878502 496.54,202.81 C496.59,203.1 501.87,196.55 503.73,193.86 Z" opacity=".5"/>
            <path fill="url(#blog-cover@1x-p)" fill-rule="nonzero" d="M176.89,104.2 C180.33,109.2 213.72,154.52 224.22,168.28 C226.09,170.73 228.09,173.14 229.83,175.59 C235.83,184.03 241.72,192.46 248.15,200.59 C251.75,206.06 267.77,227.02 268.92,228.59 C273.76,235.12 272.86,233.82 277.71,240.34 C278.83,241.85 280.05,243.34 281.2,244.73 C282.56,246.36 283.45,246.49 282.62,244.94 C282.011498,243.770204 281.343972,242.632071 280.62,241.53 C279.35,239.67 277.96,237.76 276.62,235.89 L232.03,174.89 C225.85,166.45 219.68,157.99 213.45,149.6 C207.22,141.21 194.71,124.49 194.73,124.46 C190.84,119.13 187,113.75 183.06,108.46 C179.61,103.86 176.06,99.34 172.55,94.93 C171.910881,94.0910465 171.090451,93.4073545 170.15,92.93 C169.81,92.8 174.76,101.1 176.89,104.2 Z" opacity=".5"/>
            <path fill="url(#blog-cover@1x-q)" fill-rule="nonzero" d="M361.85,9.1 C362.24,13.21 367.72,50.98 369.7,62.55 C370.05,64.61 370.53,66.68 370.77,68.7 C371.58,75.7 372.34,82.61 373.71,89.5 C374.01,93.94 377.03,111.57 377.22,112.87 C378.03,118.32 377.93,117.25 378.75,122.7 C378.95,123.96 379.22,125.24 379.5,126.43 C379.83,127.84 380.5,128.17 380.61,126.97 C380.675123,126.06784 380.675123,125.16216 380.61,124.26 C380.47,122.74 380.25,121.15 380.04,119.59 C377.693333,102.67 375.34,85.7533333 372.98,68.84 C371.98,61.84 370.98,54.78 369.98,47.76 C368.98,40.74 366.75,26.76 366.78,26.76 C366.17,22.34 365.62,17.89 364.93,13.49 C364.33,9.64 363.59,5.8 362.83,2.05 C362.703569,1.31606213 362.354451,0.638773119 361.83,0.11 C361.61,7.31498195e-14 361.61,6.56 361.85,9.1 Z" opacity=".25"/>
            <path fill="url(#blog-cover@1x-r)" fill-rule="nonzero" d="M279.11,216.48 C281.41,220.15 304.25,253.09 311.51,263.05 C312.8,264.82 314.22,266.54 315.39,268.33 C319.39,274.49 323.39,280.66 327.9,286.51 C330.28,290.51 341.36,305.69 342.14,306.82 C345.46,311.57 344.85,310.61 348.14,315.35 C348.91,316.45 349.77,317.52 350.59,318.51 C351.59,319.68 352.33,319.68 351.83,318.51 C351.465517,317.636619 351.037712,316.791035 350.55,315.98 C349.7,314.61 348.75,313.23 347.82,311.86 C337.686667,297.066667 327.546667,282.273333 317.4,267.48 C313.19,261.33 308.98,255.18 304.71,249.08 C300.44,242.98 291.84,230.85 291.86,230.83 C289.22,226.95 286.62,223.03 283.86,219.22 C281.49,215.88 279.01,212.62 276.55,209.44 C276.08358,208.813481 275.443937,208.337226 274.71,208.07 C274.56,208.05 277.69,214.21 279.11,216.48 Z" opacity=".25"/>
            <path fill="url(#blog-cover@1x-s)" fill-rule="nonzero" d="M483.82,66.48 C482.77,70.89 474.82,112.13 472.72,124.86 C472.34,127.13 472.08,129.45 471.6,131.64 C469.96,139.18 468.27,146.64 467.17,154.33 C465.92,159.05 462.67,178.47 462.4,179.88 C461.28,185.88 461.55,184.69 460.4,190.65 C460.15,192.03 459.97,193.46 459.82,194.8 C459.64,196.37 460.19,196.96 460.68,195.73 C461.05108,194.811256 461.361742,193.86925 461.61,192.91 C462.01,191.27 462.35,189.54 462.69,187.85 C466.33,169.41 469.966667,150.973333 473.6,132.54 C475.1,124.88 476.6,117.22 478.05,109.54 C479.5,101.86 482.27,86.54 482.31,86.54 C483.31,81.72 484.31,76.89 485.16,72.07 C485.92,67.85 486.55,63.6 487.16,59.44 C487.288138,58.6360298 487.191227,57.8122802 486.88,57.06 C486.75,56.88 484.47,63.75 483.82,66.48 Z" opacity=".5"/>
            <path fill="#00D6C6" fill-rule="nonzero" d="M328.72,333.79 C328.311737,333.423211 327.778661,333.226438 327.23,333.24 C326.677283,333.263622 326.156213,333.504392 325.78,333.91 C312.35,348.49 307.29,360.32 307.08,360.81 C306.864104,361.319106 306.859826,361.893227 307.06811,362.405494 C307.276394,362.91776 307.680094,363.326 308.19,363.54 C308.444624,363.641855 308.715787,363.696088 308.99,363.7 C309.370739,363.701227 309.744441,363.597421 310.07,363.4 C310.451048,363.166595 310.74587,362.815616 310.91,362.4 C310.96,362.29 315.85,350.82 328.84,336.71 C329.214112,336.304294 329.411659,335.766544 329.389153,335.215137 C329.366646,334.663729 329.125931,334.143868 328.72,333.77 L328.72,333.79 Z M369.63,303.58 C369.374731,303.090028 368.934186,302.722431 368.406421,302.559031 C367.878656,302.39563 367.307471,302.449986 366.82,302.71 C360.724219,305.909649 354.841924,309.500488 349.21,313.46 C348.312413,314.110944 348.083228,315.351535 348.689,316.280207 C349.294772,317.208879 350.522514,317.499118 351.48,316.94 L351.61,316.86 C357.095785,313.010456 362.820654,309.513409 368.75,306.39 C369.234301,306.139799 369.595492,305.702758 369.75,305.18 C369.925592,304.652081 369.882373,304.075821 369.63,303.58 Z M429.82,286.73 C429.32,286.73 417.36,285.73 399.24,290.25 C398.235029,290.517236 397.581838,291.485612 397.710511,292.517516 C397.839184,293.54942 398.710177,294.327738 399.75,294.34 C399.918414,294.339204 400.086179,294.319072 400.25,294.28 C417.72,289.92 429.34,290.86 429.46,290.87 C429.897209,290.913252 430.336496,290.811338 430.71,290.58 C431.282343,290.23964 431.65486,289.643612 431.71,288.98 C431.808166,287.837164 430.962627,286.83057 429.82,286.73 Z"/>
            <path fill="#007585" fill-rule="nonzero" d="M238.36,403.26 C237.479246,403.077177 236.561948,403.252976 235.811193,403.748474 C235.060438,404.243972 234.538164,405.018292 234.36,405.9 C231.17,421.62 231.2,431.72 231.21,432.14 C231.220968,433.989491 232.720485,435.484544 234.57,435.49 C236.43282,435.473498 237.931096,433.95286 237.92,432.09 C237.92,432 237.92,422.25 240.92,407.24 C241.2926,405.437609 240.154617,403.668402 238.36,403.26 Z M294.59,303.1 C293.96296,302.454804 293.099675,302.093597 292.2,302.1 C291.305381,302.104212 290.44915,302.463973 289.82,303.1 C279.998066,312.991615 271.187748,323.838691 263.52,335.48 C262.649355,336.795649 262.807975,338.539233 263.90174,339.676174 C264.995506,340.813114 266.731646,341.039083 268.08,340.22 C268.50527,339.968612 268.870457,339.627315 269.15,339.22 C276.565161,327.949434 285.09109,317.450313 294.6,307.88 C295.233253,307.247836 295.589102,306.389785 295.589102,305.495 C295.589102,304.600215 295.233253,303.742164 294.6,303.11 L294.59,303.1 Z M406.53,243 C406.126805,241.19322 404.338139,240.052945 402.53,240.45 C387.266908,243.902207 372.41606,248.974291 358.23,255.58 C357.420279,255.955707 356.793339,256.638175 356.487533,257.476796 C356.181727,258.315418 356.222193,259.241257 356.6,260.05 C356.968823,260.86391 357.650166,261.494783 358.49,261.8 C359.329423,262.114152 360.260362,262.074461 361.07,261.69 C374.816145,255.278777 389.20778,250.354176 404,247 C404.35146,246.917421 404.688544,246.782587 405,246.6 C406.227935,245.851144 406.843065,244.403781 406.53,243 Z M528.27,252.86 C527.78,252.6 515.86,246.27 495.63,241.28 C494.761818,241.068876 493.845391,241.209035 493.08,241.67 C492.313315,242.131872 491.7626,242.880556 491.55,243.75 C491.335812,244.618623 491.475803,245.536766 491.939123,246.302087 C492.402443,247.067409 493.151062,247.617093 494.02,247.83 C513.13,252.54 524.61,258.55 525.09,258.83 C525.577753,259.095373 526.124737,259.232979 526.68,259.23 C527.292788,259.230688 527.894235,259.064771 528.42,258.75 C528.942911,258.439477 529.368866,257.989281 529.65,257.45 C530.080929,256.659381 530.177539,255.72919 529.918285,254.866888 C529.659031,254.004586 529.065476,253.281896 528.27,252.86 Z"/>
            <path fill="#00506B" fill-rule="nonzero" d="M218.17,309.6 C217.808561,308.120268 216.592169,307.003428 215.087028,306.769344 C213.581887,306.535259 212.083763,307.229929 211.29,308.53 C198.954714,328.865522 188.948349,350.525293 181.46,373.1 C181.144703,374.048071 181.220781,375.082767 181.671354,375.974526 C182.121928,376.866286 182.909738,377.541369 183.86,377.85 C184.240178,377.977918 184.638885,378.042116 185.04,378.04 C185.723875,378.040754 186.394866,377.853983 186.98,377.5 C187.75086,377.033418 188.329111,376.306169 188.61,375.45 C195.91998,353.423071 205.688248,332.289799 217.73,312.45 C218.252822,311.597407 218.411351,310.57057 218.17,309.6 Z M374.84,189.66 C374.582358,188.69319 373.95,187.868939 373.0829,187.3697 C372.2158,186.870461 371.185478,186.73741 370.22,187 C346.629965,193.332011 324.041245,202.931628 303.11,215.52 C301.952459,216.214882 301.253563,217.474519 301.276578,218.824419 C301.299593,220.17432 302.041022,221.409401 303.221578,222.064419 C304.402133,222.719438 305.842459,222.694882 307,222 C327.331153,209.777262 349.26972,200.453876 372.18,194.3 C373.146057,194.044607 373.970232,193.414214 374.469632,192.548714 C374.969031,191.683213 375.102349,190.654191 374.84,189.69 L374.84,189.66 Z M93.37,405.57 C92.2914699,405.332893 91.1629095,405.536497 90.2352303,406.135545 C89.3075511,406.734593 88.6576433,407.679433 88.43,408.76 C83.3,432.65 81.04,455.05 81.69,475.36 C81.7760165,477.59479 83.6135561,479.361655 85.85,479.36 L85.98,479.36 C86.6864449,479.339435 87.375506,479.136162 87.98,478.77 C89.2669639,477.98933 90.0318238,476.574339 89.98,475.07 C89.35,455.44 91.55,433.71 96.53,410.49 C96.9955837,408.262494 95.589348,406.073038 93.37,405.57 Z M190.42,216.48 C188.678778,214.982402 186.054396,215.174648 184.55,216.91 C170.39346,233.39438 157.506558,250.927921 146,269.36 C144.96621,270.994987 145.195828,273.12682 146.554074,274.504163 C147.91232,275.881505 150.040739,276.140864 151.69,275.13 C152.247016,274.794693 152.716538,274.332025 153.06,273.78 C164.32158,255.704621 176.941291,238.511727 190.81,222.35 C191.531856,221.514774 191.892128,220.426876 191.811477,219.325888 C191.730825,218.224901 191.215864,217.201117 190.38,216.48 L190.42,216.48 Z M268.82,150.65 C267.632011,148.685627 265.079726,148.050908 263.11,149.23 C245.894082,159.714289 229.75575,171.873306 214.93,185.53 C214.115343,186.274998 213.630212,187.313254 213.581446,188.416118 C213.53268,189.518983 213.924278,190.596006 214.67,191.41 C216.010283,192.867881 218.189654,193.185184 219.89,192.17 C220.124457,192.027098 220.345375,191.863084 220.55,191.68 C234.969221,178.395725 250.665431,166.568299 267.41,156.37 C269.375584,155.182183 270.006738,152.626236 268.82,150.66 L268.82,150.65 Z M638.15,143.2 C637.849295,142.125249 637.128389,141.216907 636.15,140.68 C621.989084,132.77146 607.117211,126.209354 591.73,121.08 C590.1375,120.530499 588.370822,120.998223 587.258842,122.263731 C586.146862,123.529239 585.910243,125.3414 586.66,126.85 C587.140603,127.843866 588.002567,128.601241 589.05,128.95 C603.946533,133.923227 618.343079,140.284492 632.05,147.95 C632.678871,148.303988 633.388344,148.489967 634.11,148.49 C634.868154,148.491132 635.61199,148.283549 636.26,147.89 C636.872789,147.527213 637.379665,147.009992 637.73,146.39 C638.297695,145.427928 638.44933,144.276225 638.15,143.2 Z M530.16,105.18 C529.513456,104.283405 528.533006,103.685043 527.44,103.52 C504.161514,99.9810206 480.645891,98.2325602 457.1,98.29 C454.804787,98.3010083 452.949974,100.164761 452.95,102.46 C452.955498,104.755224 454.814776,106.614502 457.11,106.62 L458.11,106.62 C480.873994,106.602247 503.60632,108.317201 526.11,111.75 C526.319737,111.76485 526.530263,111.76485 526.74,111.75 C527.500995,111.748896 528.247461,111.541544 528.9,111.15 C529.97056,110.520789 530.704055,109.446219 530.9,108.22 C531.064876,107.148688 530.798815,106.055677 530.16,105.18 Z"/>
            <path fill="url(#blog-cover@1x-t)" fill-rule="nonzero" d="M472.2,131.72 C473.6,122.02 497.58,114.98 512.25,133.14 C526.92,151.3 531.48,158.8 550.62,156.77 C573.62,154.32 577.26,172.54 573.42,180.54 L553.53,207.84 C542.52547,199.066966 529.927211,192.506363 516.43,188.52 C491.49,181.37 462.3,180.6 462.3,180.6 L472.2,131.72 Z" opacity=".25"/>
            <path fill="#00506B" fill-rule="nonzero" d="M519.94,185.76 C519.32,185.58 504.59,181.31 480.94,178.81 C479.946407,178.700719 478.950193,178.991573 478.171483,179.618294 C477.392772,180.245016 476.895664,181.156015 476.79,182.15 C476.688024,183.145278 476.982673,184.140617 477.61,184.92 C478.234719,185.698392 479.146717,186.192241 480.14,186.29 C503.14,188.74 517.67,192.94 517.82,192.99 C519.784296,193.48469 521.788413,192.338728 522.358376,190.394939 C522.928339,188.451149 521.8604,186.40439 519.94,185.76 Z"/>
            <polygon fill="#53007A" fill-rule="nonzero" points="544.14 186.34 543.57 184.42 556.22 180.71 552.5 168.06 554.42 167.5 558.7 182.06 544.14 186.34" opacity=".25"/>
            <path fill="#C9F5F2" fill-rule="nonzero" d="M345.81,401.5 C345.223547,401.014804 344.467378,400.784352 343.71,400.86 C342.558222,400.970625 341.586577,401.76435 341.248351,402.870891 C340.910125,403.977433 341.271964,405.178751 342.165065,405.914415 C343.058167,406.650079 344.306548,406.775128 345.327822,406.231225 C346.349097,405.687323 346.942026,404.581643 346.83,403.43 C346.758549,402.677111 346.391803,401.98317 345.81,401.5 Z M326.36,396 C325.784801,395.547407 324.982778,395.519286 324.377293,395.930483 C323.771808,396.341679 323.502212,397.097555 323.710816,397.79911 C323.91942,398.500665 324.558214,398.986435 325.29,399 L325.45,399 C325.895603,398.962735 326.307,398.74621 326.59,398.4 C326.872056,398.055154 327.008395,397.613847 326.97,397.17 C326.937056,396.71247 326.716255,396.288966 326.36,396 Z"/>
            <path fill="url(#blog-cover@1x-u)" fill-rule="nonzero" d="M87.52,330.54 C92.23,331.79 136.25,341.54 149.84,344.23 C152.26,344.72 154.75,345.08 157.08,345.65 C165.13,347.65 173.08,349.65 181.29,351.09 C186.29,352.55 207.06,356.66 208.57,356.99 C214.93,358.38 213.71,358.06 220.07,359.43 C221.54,359.75 223.07,359.99 224.5,360.2 C226.18,360.44 226.81,359.92 225.5,359.38 C224.52304,358.964563 223.52109,358.610541 222.5,358.32 C220.76,357.85 218.91,357.43 217.1,357.02 L158.1,343.65 C149.93,341.8 141.75,339.95 133.56,338.17 C125.37,336.39 109,332.93 109,332.9 C103.85,331.73 98.7,330.49 93.56,329.4 C89.05,328.46 84.51,327.64 80.06,326.87 C79.2133321,326.699003 78.3363291,326.7577 77.52,327.04 C77.29,327.18 84.61,329.76 87.52,330.54 Z" opacity=".5"/>
            <path fill="url(#blog-cover@1x-v)" fill-rule="nonzero" d="M450.06,347.17 C432.37,357.68 415.59,367.45 399.72,376.17 C387.14,383.07 374.943333,389.513333 363.13,395.5 L369.31,391.61 L427.76,357.61 L450.06,347.17 Z"/>
            <path fill="#FFF" fill-rule="nonzero" d="M425.38,338.22 C421.94,331.03 418.38,323.87 414.97,316.87 C414.360064,315.586242 413.623051,314.36682 412.77,313.23 C412.77,313.17 412.7,313.13 412.67,313.07 L412.75,313.14 C412.87,313.24 412.92,313.2 412.86,312.97 C412.730671,312.534297 412.464114,312.151999 412.1,311.88 C411.30849,311.236105 410.259909,311.002675 409.27,311.25 C409.007394,311.324695 408.752821,311.425185 408.51,311.55 L407.88,311.89 L406.6,312.59 C403.87,314.11 401.03,315.75 398.25,317.35 L352.9,343.54 L341.56,350.09 L340.14,350.91 L339.43,351.32 L339.08,351.52 C338.95,351.6 338.79,351.7 338.66,351.8 C337.534642,352.655409 337.024015,354.096949 337.36,355.47 C337.525487,356.089191 337.822195,356.665553 338.23,357.16 L339.16,358.5 L341.03,361.19 L356,382.71 C359.253333,387.376667 362.506667,392.066667 365.76,396.78 L389.87,382.78 L427.4,360.91 L434.29,356.91 C431.28,350.72 428.32,344.45 425.38,338.22 Z"/>
            <path fill="url(#blog-cover@1x-w)" fill-rule="nonzero" d="M495,16 L428.64,359.46 L370.41,393.19 L0.6,309.84 C61.93,75.16 322.81,-35.56 495,16 Z"/>
            <path fill="#00D6C6" fill-rule="nonzero" d="M370.38,393.15 L345.2,356.77 C344.954617,356.416971 344.867982,355.977438 344.961047,355.557698 C345.054111,355.137959 345.318401,354.776232 345.69,354.56 L407.69,318.65 C408.063926,318.432457 408.51211,318.382221 408.924919,318.511581 C409.337729,318.64094 409.677094,318.937965 409.86,319.33 L428.6,359.42 L370.38,393.15 Z"/>
            <path stroke="#00D6C6" d="M370.38,393.15 L345.2,356.77 C344.954617,356.416971 344.867982,355.977438 344.961047,355.557698 C345.054111,355.137959 345.318401,354.776232 345.69,354.56 L407.69,318.65 C408.063926,318.432457 408.51211,318.382221 408.924919,318.511581 C409.337729,318.64094 409.677094,318.937965 409.86,319.33 L428.6,359.42 L370.38,393.15 Z"/>
            <path fill="#C9F5F2" fill-rule="nonzero" d="M364.31,355 L353.39,361.32 C353.239991,361.376157 353.071316,361.316482 352.989996,361.178484 C352.908676,361.040487 352.938195,360.864019 353.06,360.76 L363.98,354.44 C364.052887,354.396049 364.140281,354.382947 364.222853,354.40359 C364.305424,354.424233 364.37637,354.47692 364.42,354.55 C364.512469,354.704856 364.46348,354.905265 364.31,355 Z"/>
            <path fill="#C9F5F2" fill-rule="nonzero" d="M362.49,355.67 C362.1,355.86 360.16,356.97 358.05,358.2 L354.94,360.03 C354.04,360.55 352.94,361.29 353.22,361.08 L353.5,360.9 C353.680644,360.773963 353.86755,360.657147 354.06,360.55 C355.384572,359.887625 356.670021,359.149744 357.91,358.34 C358.77,357.95 361.97,355.93 362.21,355.79 L364.01,354.71 C364.060592,354.654152 364.139408,354.633481 364.210897,354.65731 C364.282385,354.68114 364.333035,354.744967 364.34,354.82 C364.345639,354.906575 364.345639,354.993425 364.34,355.08 C364.34,355.14 364.42,355.21 364.58,355.08 C364.695184,354.95644 364.744569,354.785374 364.712962,354.619436 C364.681355,354.453498 364.572541,354.312565 364.42,354.24 C364.272756,354.178888 364.107244,354.178888 363.96,354.24 C363.78,354.31 363.78,354.33 363.68,354.37 L363.25,354.62 L353.83,359.99 L352.83,360.58 C352.662436,360.705199 352.556628,360.896261 352.539416,361.104722 C352.522204,361.313183 352.595241,361.519013 352.74,361.67 C352.889725,361.820647 353.098326,361.8975 353.31,361.88 C353.416054,361.876169 353.519351,361.845181 353.61,361.79 L353.74,361.72 L355.68,360.59 L359.55,358.29 C360.37,357.82 361.2,357.37 362.01,356.88 C362.82,356.39 363.4,355.99 364.07,355.53 C364.207914,355.431722 364.304193,355.285519 364.34,355.12 C363.706012,355.239026 363.086043,355.423341 362.49,355.67 Z M402.42,333 L391.5,339.32 C391.399843,339.405532 391.258418,339.423318 391.140201,339.365249 C391.021985,339.307179 390.949619,339.184376 390.956095,339.052827 C390.962572,338.921277 391.046651,338.806176 391.17,338.76 L402.09,332.43 C402.245159,332.345912 402.439015,332.398782 402.53,332.55 C402.622469,332.704856 402.57348,332.905265 402.42,333 Z"/>
            <path fill="#C9F5F2" fill-rule="nonzero" d="M400.6,333.6 C400.21,333.79 398.27,334.9 396.16,336.13 L393.05,337.96 C392.15,338.48 391.05,339.22 391.33,339.01 L391.61,338.82 C391.790759,338.69721 391.977669,338.583729 392.17,338.48 C393.494572,337.817625 394.780021,337.079744 396.02,336.27 C396.88,335.88 400.08,333.86 400.32,333.72 L402.12,332.63 C402.171896,332.573279 402.25286,332.553423 402.325111,332.579696 C402.397362,332.605969 402.446659,332.673193 402.45,332.75 L402.45,333 C402.45,333.07 402.53,333.13 402.69,333 C402.805127,332.874589 402.854373,332.702231 402.822881,332.534928 C402.791388,332.367625 402.682845,332.224969 402.53,332.15 C402.381793,332.09393 402.218207,332.09393 402.07,332.15 C401.89,332.23 401.89,332.24 401.79,332.29 L401.36,332.54 L391.94,337.91 L390.94,338.49 C390.771936,338.617111 390.666032,338.809843 390.648849,339.01986 C390.631666,339.229878 390.704832,339.437261 390.85,339.59 C390.999725,339.740647 391.208326,339.8175 391.42,339.8 C391.52522,339.791448 391.627448,339.760779 391.72,339.71 L391.85,339.64 L393.79,338.51 L397.66,336.2 C398.48,335.74 399.31,335.29 400.12,334.8 C400.93,334.31 401.51,333.91 402.18,333.45 C402.317914,333.351722 402.414193,333.205519 402.45,333.04 C401.815643,333.162253 401.195664,333.349923 400.6,333.6 Z"/>
            <circle cx="367.72" cy="352.69" r="1" fill="#C9F5F2" fill-rule="nonzero"/>
            <path fill="#C9F5F2" fill-rule="nonzero" d="M368.22,352.64 C368.204583,352.828959 368.100767,352.999515 367.94,353.1 C367.718381,353.214103 367.448641,353.173844 367.27,353 C367.22,353 367.14,352.93 367.14,352.86 C367.165335,352.665387 367.212292,352.474206 367.28,352.29 C367.35,352.29 367.46,352.17 367.6,352.12 C367.702069,352.081412 367.811025,352.064388 367.92,352.07 C368.026113,352.09384 368.125332,352.141738 368.21,352.21 C368.249259,352.237851 368.293335,352.258194 368.34,352.27 C368.448738,352.275793 368.552078,352.22221 368.61,352.13 C368.629811,352.071635 368.629811,352.008365 368.61,351.95 C368.570655,351.867593 368.512408,351.795641 368.44,351.74 C368.030573,351.414782 367.459428,351.386627 367.02,351.67 C366.570741,351.963132 366.360913,352.511912 366.5,353.03 C366.616016,353.454445 366.951602,353.783531 367.378235,353.891224 C367.804867,353.998918 368.256436,353.868531 368.56,353.55 C368.763783,353.373162 368.895464,353.127594 368.93,352.86 C368.940644,352.632504 368.861657,352.409905 368.71,352.24 C368.634785,352.200868 368.545215,352.200868 368.47,352.24 C368.47,352.24 368.27,352.6 368.22,352.64 Z M384.33,343.44 L379.33,346.34 C379.17536,346.428365 378.978366,346.37464 378.89,346.22 C378.801635,346.06536 378.85536,345.868366 379.01,345.78 L384.01,342.88 C384.16464,342.791634 384.361634,342.84536 384.45,343 C384.538366,343.15464 384.48464,343.351634 384.33,343.44 Z"/>
            <path fill="#C9F5F2" fill-rule="nonzero" d="M383.33,343.6 C383.13,343.68 382.16,344.23 381.11,344.85 L379.56,345.77 L379.22,345.99 C379.22,345.99 379.14,345.99 379.15,346.05 L379.28,345.94 C379.367311,345.873961 379.46113,345.817 379.56,345.77 C380.239592,345.473155 380.88364,345.100815 381.48,344.66 C382.222575,344.280489 382.937658,343.849434 383.62,343.37 L384.07,343.09 C384.15,343.04 384.17,343.01 384.28,343.09 C384.308758,343.150069 384.308758,343.219931 384.28,343.28 C384.28,343.36 384.28,343.6 384.46,343.54 C384.622234,343.47129 384.73097,343.315952 384.74,343.14 C384.74,342.797583 384.462417,342.52 384.12,342.52 C384.008434,342.520404 383.89863,342.547855 383.8,342.6 L383.65,342.69 L383.35,342.85 L382.76,343.19 L381.58,343.85 L379.22,345.18 L378.72,345.47 C378.540833,345.583437 378.420784,345.770088 378.391875,345.980166 C378.362965,346.190245 378.428134,346.402384 378.57,346.56 C378.716411,346.71261 378.918516,346.799226 379.13,346.8 C379.235051,346.798362 379.338082,346.770887 379.43,346.72 L379.58,346.64 L380.06,346.35 L381.97,345.18 C382.39,344.95 382.81,344.74 383.21,344.49 C383.557507,344.263085 383.891413,344.015995 384.21,343.75 C384.284982,343.669573 384.31498,343.557083 384.29,343.45 C383.963647,343.442836 383.638612,343.493623 383.33,343.6 Z M376.5,348 L371.5,350.9 C371.342546,350.990724 371.141374,350.937078 371.05,350.78 C371.006883,350.705895 370.995306,350.617587 371.017865,350.534872 C371.040423,350.452157 371.09523,350.381954 371.17,350.34 L376.17,347.44 C376.320009,347.383843 376.488684,347.443518 376.570004,347.581516 C376.651324,347.719513 376.621805,347.895981 376.5,348 Z"/>
            <path fill="#C9F5F2" fill-rule="nonzero" d="M375.5,348.13 C375.29,348.22 374.32,348.77 373.27,349.39 L371.73,350.31 L371.38,350.52 C371.38,350.52 371.31,350.52 371.32,350.59 L371.46,350.49 C371.541933,350.418702 371.632673,350.358208 371.73,350.31 C372.413296,350.018374 373.060866,349.649293 373.66,349.21 C374.400477,348.826726 375.115311,348.395821 375.8,347.92 L376.24,347.64 C376.32,347.59 376.35,347.56 376.45,347.64 C376.499177,347.690128 376.52147,347.76072 376.51,347.83 C376.51,347.91 376.51,348.14 376.69,348.09 C376.849931,348.02028 376.955151,347.8644 376.96,347.69 C376.962732,347.524743 376.898289,347.365452 376.781418,347.248582 C376.664548,347.131711 376.505257,347.067268 376.34,347.07 C376.22858,347.071545 376.119039,347.09893 376.02,347.15 L375.87,347.24 L375.58,347.4 L374.99,347.73 L373.81,348.4 L371.45,349.73 L370.94,350.01 C370.763644,350.12567 370.645932,350.31196 370.617179,350.520896 C370.588427,350.729832 370.651443,350.940994 370.79,351.1 C370.932509,351.259331 371.136236,351.35028 371.35,351.35 C371.454532,351.344848 371.556782,351.317581 371.65,351.27 L371.8,351.19 L372.28,350.9 L374.2,349.73 C374.61,349.5 375.04,349.28 375.43,349.03 C375.777766,348.807079 376.111711,348.5633 376.43,348.3 C376.500635,348.217229 376.530043,348.106951 376.51,348 C376.168301,347.983421 375.826364,348.027433 375.5,348.13 Z"/>
            <circle cx="387.76" cy="341.08" r="1" fill="#C9F5F2" fill-rule="nonzero"/>
            <path fill="#C9F5F2" fill-rule="nonzero" d="M388.26,341 C388.236584,341.188958 388.135018,341.359443 387.98,341.47 C387.752766,341.58006 387.480945,341.536089 387.3,341.36 C387.3,341.36 387.18,341.29 387.18,341.23 C387.18,341 387.28,340.87 387.31,340.65 C387.423839,340.601117 387.534109,340.544311 387.64,340.48 C387.741196,340.450276 387.848804,340.450276 387.95,340.48 C388.055355,340.500526 388.154579,340.545006 388.24,340.61 C388.278614,340.641198 388.322698,340.664936 388.37,340.68 C388.480544,340.681632 388.584979,340.629414 388.65,340.54 C388.669887,340.478228 388.669887,340.411772 388.65,340.35 C388.604135,340.269025 388.543008,340.197709 388.47,340.14 C388.062599,339.819489 387.497143,339.791417 387.06,340.07 C386.608147,340.361033 386.39758,340.911745 386.54,341.43 C386.644352,341.865566 386.984434,342.205648 387.42,342.31 C387.684887,342.372173 387.962955,342.344014 388.21,342.23 C388.354518,342.163696 388.483862,342.06839 388.59,341.95 C388.801988,341.779848 388.935574,341.530729 388.96,341.26 C388.971736,341.032344 388.892606,340.809341 388.74,340.64 L388.5,340.64 C388.428162,340.765245 388.347981,340.885517 388.26,341 Z"/>
            <path stroke="#C9F5F2" d="M410.24,331.55 C409.08,332.23 409.03,328.76 406.33,330.32 C409.03,328.76 406.05,326.99 407.21,326.32 M377.91,381.55 C379.08,380.88 376.09,379.11 378.79,377.55 C376.09,379.11 376.05,375.65 374.88,376.32"/>
            <path fill="#C9F5F2" fill-rule="nonzero" d="M390.92,350.05 L380,356.37 C379.84536,356.458366 379.648366,356.40464 379.56,356.25 C379.471634,356.09536 379.52536,355.898366 379.68,355.81 L390.59,349.49 C390.747454,349.399276 390.948626,349.452922 391.04,349.61 C391.083117,349.684105 391.094694,349.772413 391.072135,349.855128 C391.049577,349.937843 390.99477,350.008046 390.92,350.05 Z"/>
            <path fill="#C9F5F2" fill-rule="nonzero" d="M389.1,350.68 C388.71,350.87 386.77,351.98 384.67,353.21 L381.56,355.04 C380.65,355.56 379.56,356.3 379.83,356.04 L380.1,355.86 C380.279847,355.735797 380.466836,355.622268 380.66,355.52 C381.983848,354.852597 383.269202,354.111432 384.51,353.3 C385.38,352.92 388.58,350.89 388.81,350.75 L390.62,349.67 C390.77,349.54 390.92,349.61 390.94,349.78 C390.945639,349.866575 390.945639,349.953425 390.94,350.04 C390.94,350.1 391.03,350.17 391.18,350.04 C391.295873,349.917829 391.346799,349.747867 391.317199,349.582107 C391.287599,349.416348 391.180996,349.274516 391.03,349.2 C390.882542,349.139971 390.717458,349.139971 390.57,349.2 C390.473457,349.236055 390.379845,349.279517 390.29,349.33 L389.85,349.58 L380.44,354.95 L379.44,355.54 C379.1794,355.729599 379.076532,356.069279 379.18816,356.371603 C379.299787,356.673926 379.598717,356.86525 379.92,356.84 C380.026609,356.839709 380.130836,356.808441 380.22,356.75 L380.34,356.68 L382.29,355.55 L386.15,353.25 C386.97,352.78 387.81,352.33 388.61,351.84 C389.41,351.35 390,350.95 390.67,350.49 C390.810921,350.394657 390.908078,350.247123 390.94,350.08 C390.307985,350.217375 389.691507,350.418401 389.1,350.68 Z M383.27,364.9 L372.36,371.23 C372.204107,371.307328 372.014957,371.250313 371.927768,371.099713 C371.840578,370.949114 371.885316,370.75669 372.03,370.66 L382.95,364.34 C383.10464,364.251634 383.301634,364.30536 383.39,364.46 C383.478366,364.61464 383.42464,364.811634 383.27,364.9 Z"/>
            <path fill="#C9F5F2" fill-rule="nonzero" d="M381.46,365.53 C381.07,365.72 379.12,366.84 377.02,368.07 L373.91,369.9 C373.01,370.42 371.91,371.15 372.19,370.9 L372.47,370.71 C372.650759,370.58721 372.837669,370.473729 373.03,370.37 C374.352656,369.700391 375.63789,368.959296 376.88,368.15 C377.74,367.77 380.94,365.75 381.18,365.61 L382.98,364.52 C383.030592,364.464152 383.109408,364.443481 383.180897,364.46731 C383.252385,364.49114 383.303035,364.554967 383.31,364.63 L383.31,364.89 C383.31,364.96 383.39,365.02 383.55,364.89 C383.665127,364.764589 383.714373,364.592231 383.682881,364.424928 C383.651388,364.257625 383.542845,364.114969 383.39,364.04 C383.242542,363.979971 383.077458,363.979971 382.93,364.04 C382.832693,364.078257 382.73899,364.125109 382.65,364.18 L382.22,364.42 L372.8,369.8 L371.8,370.38 C371.62911,370.505141 371.520998,370.698336 371.503726,370.909441 C371.486453,371.120546 371.561724,371.328746 371.71,371.48 C371.94082,371.709478 372.295677,371.758424 372.58,371.6 L372.71,371.53 L374.65,370.39 L378.52,368.09 C379.34,367.62 380.17,367.17 380.98,366.68 C381.79,366.19 382.37,365.8 383.04,365.34 C383.172877,365.236964 383.267833,365.092772 383.31,364.93 C382.672408,365.05856 382.051679,365.259877 381.46,365.53 Z M372.85,360.52 L367.85,363.42 C367.692546,363.510724 367.491374,363.457078 367.4,363.3 C367.356883,363.225895 367.345306,363.137587 367.367865,363.054872 C367.390423,362.972157 367.44523,362.901954 367.52,362.86 L372.52,359.95 C372.622239,359.881675 372.753988,359.875863 372.861847,359.934921 C372.969705,359.993979 373.03578,360.108109 373.033291,360.231052 C373.030801,360.353995 372.960161,360.465357 372.85,360.52 Z"/>
            <path fill="#C9F5F2" fill-rule="nonzero" d="M371.85,360.67 C371.64,360.76 370.67,361.31 369.62,361.92 L368.08,362.85 L367.73,363.06 C367.73,363.06 367.66,363.06 367.67,363.13 L367.81,363.03 C367.895246,362.963158 367.985513,362.90298 368.08,362.85 C368.763296,362.558374 369.410866,362.189293 370.01,361.75 C370.750477,361.366726 371.465311,360.935821 372.15,360.46 L372.59,360.18 C372.67,360.13 372.7,360.1 372.8,360.18 C372.849177,360.230128 372.87147,360.30072 372.86,360.37 C372.86,360.45 372.86,360.68 373.04,360.63 C373.199931,360.56028 373.305151,360.4044 373.31,360.23 C373.312732,360.064743 373.248289,359.905452 373.131418,359.788582 C373.014548,359.671711 372.855257,359.607268 372.69,359.61 C372.57858,359.611545 372.469039,359.63893 372.37,359.69 L372.22,359.78 L371.93,359.94 L371.34,360.27 L370.16,360.94 L367.8,362.27 L367.29,362.55 C367.113644,362.66567 366.995932,362.85196 366.967179,363.060896 C366.938427,363.269832 367.001443,363.480994 367.14,363.64 C367.282509,363.799331 367.486236,363.89028 367.7,363.89 C367.804532,363.884848 367.906782,363.857581 368,363.81 L368.15,363.73 L368.63,363.44 L370.55,362.27 C370.96,362.04 371.39,361.82 371.78,361.57 C372.127766,361.347079 372.461711,361.1033 372.78,360.84 C372.850635,360.757229 372.880043,360.646951 372.86,360.54 C372.518326,360.524048 372.176498,360.568046 371.85,360.67 Z M403.09,343 L398.09,345.91 C397.934107,345.987328 397.744957,345.930313 397.657768,345.779713 C397.570578,345.629114 397.615316,345.43669 397.76,345.34 L402.76,342.44 C402.860157,342.354468 403.001582,342.336682 403.119799,342.394751 C403.238015,342.452821 403.310381,342.575624 403.303905,342.707173 C403.297428,342.838723 403.213349,342.953824 403.09,343 Z"/>
            <path fill="#C9F5F2" fill-rule="nonzero" d="M402.09,343.16 C401.88,343.24 400.91,343.79 399.86,344.41 L398.32,345.34 L397.97,345.55 C397.97,345.55 397.9,345.55 397.91,345.62 L398.05,345.52 C398.132773,345.449809 398.223373,345.389409 398.32,345.34 C399.000522,345.042813 399.647496,344.674072 400.25,344.24 C400.99093,343.853816 401.705791,343.419554 402.39,342.94 L402.83,342.67 C402.91,342.61 402.94,342.58 403.04,342.67 C403.087819,342.720934 403.109895,342.790841 403.1,342.86 C403.1,342.94 403.1,343.18 403.28,343.12 C403.441615,343.052319 403.547671,342.895199 403.55,342.72 C403.549627,342.496605 403.429103,342.290685 403.234508,342.180967 C403.039913,342.071248 402.80134,342.074699 402.61,342.19 L402.46,342.27 L402.17,342.44 L401.58,342.77 L400.4,343.43 L398.04,344.76 L397.53,345.05 C397.353644,345.16567 397.235932,345.35196 397.207179,345.560896 C397.178427,345.769832 397.241443,345.980994 397.38,346.14 C397.521111,346.300095 397.726751,346.388226 397.94,346.38 C398.043841,346.378272 398.146118,346.354408 398.24,346.31 L398.39,346.22 L398.87,345.94 L400.79,344.76 C401.2,344.53 401.63,344.32 402.02,344.07 C402.367897,343.843647 402.701836,343.596532 403.02,343.33 C403.090308,343.251031 403.119876,343.143847 403.1,343.04 C402.758771,343.015654 402.416024,343.056377 402.09,343.16 Z"/>
            <circle cx="394.34" cy="347.7" r="1" fill="#C9F5F2" fill-rule="nonzero"/>
            <path fill="#C9F5F2" fill-rule="nonzero" d="M394.84,347.65 C394.816519,347.838819 394.71024,348.007399 394.55,348.11 C394.328935,348.227388 394.057153,348.186824 393.88,348.01 C393.83,348.01 393.76,347.94 393.75,347.87 C393.776496,347.675606 393.823422,347.484549 393.89,347.3 C393.97,347.3 394.07,347.18 394.21,347.13 C394.312069,347.091412 394.421025,347.074388 394.53,347.08 C394.636879,347.101603 394.736606,347.149748 394.82,347.22 C394.859259,347.247851 394.903335,347.268194 394.95,347.28 C395.058738,347.285793 395.162078,347.23221 395.22,347.14 C395.250224,347.083806 395.250224,347.016194 395.22,346.96 C395.183678,346.875726 395.124864,346.803073 395.05,346.75 C394.644888,346.423428 394.075466,346.395159 393.64,346.68 C393.073946,347.011037 392.870825,347.73032 393.180109,348.308546 C393.489393,348.886773 394.200436,349.117084 394.79,348.83 C394.932719,348.765045 395.061702,348.673399 395.17,348.56 C395.377679,348.386304 395.510237,348.1391 395.54,347.87 C395.552858,347.642182 395.47358,347.41876 395.32,347.25 L395.08,347.25 C395.007383,347.387626 394.927262,347.521161 394.84,347.65 Z M395.44,357.86 L390.44,360.76 C390.365895,360.803117 390.277587,360.814694 390.194872,360.792135 C390.112157,360.769577 390.041954,360.71477 390,360.64 C389.909276,360.482546 389.962922,360.281374 390.12,360.19 L395.12,357.29 C395.27815,357.204861 395.475242,357.257419 395.57,357.41 C395.612765,357.486843 395.62309,357.577577 395.598683,357.662064 C395.574275,357.746551 395.517155,357.817801 395.44,357.86 Z"/>
            <path fill="#C9F5F2" fill-rule="nonzero" d="M394.44,358 C394.24,358.08 393.27,358.64 392.22,359.25 L390.67,360.18 L390.33,360.39 C390.33,360.39 390.25,360.39 390.26,360.46 L390.39,360.36 C390.477106,360.290825 390.570905,360.230525 390.67,360.18 C391.351243,359.89054 391.995745,359.521294 392.59,359.08 C393.330477,358.696726 394.045311,358.265821 394.73,357.79 L395.18,357.51 C395.26,357.46 395.28,357.43 395.39,357.51 C395.435591,357.561961 395.454109,357.632329 395.44,357.7 C395.44,357.78 395.44,358.01 395.62,357.96 C395.782234,357.89129 395.89097,357.735952 395.9,357.56 C395.9,357.217583 395.622417,356.94 395.28,356.94 C395.168434,356.940404 395.05863,356.967855 394.96,357.02 L394.81,357.1 L394.51,357.27 L393.92,357.6 L392.74,358.26 L390.38,359.59 L389.88,359.88 C389.700833,359.993437 389.580784,360.180088 389.551875,360.390166 C389.522965,360.600245 389.588134,360.812384 389.73,360.97 C389.871111,361.130095 390.076751,361.218226 390.29,361.21 C390.394252,361.211852 390.497333,361.1878 390.59,361.14 L390.74,361.06 L391.22,360.77 L393.13,359.6 C393.55,359.37 393.97,359.15 394.37,358.9 C394.719695,358.67991 395.053819,358.436 395.37,358.17 C395.444982,358.089573 395.47498,357.977083 395.45,357.87 C395.108135,357.848878 394.765373,357.892996 394.44,358 Z"/>
            <circle cx="376.26" cy="358.16" r="1" fill="#C9F5F2" fill-rule="nonzero"/>
            <path fill="#C9F5F2" fill-rule="nonzero" d="M376.76,358.12 C376.781113,358.368259 376.632701,358.599701 376.398274,358.684094 C376.163847,358.768488 375.90197,358.68475 375.76,358.48 C375.76,358.48 375.63,358.4 375.63,358.34 C375.655335,358.145387 375.702292,357.954206 375.77,357.77 C375.84,357.77 375.95,357.65 376.09,357.59 C376.195316,357.565996 376.304684,357.565996 376.41,357.59 C376.516113,357.61384 376.615332,357.661738 376.7,357.73 L376.83,357.79 C376.938738,357.795793 377.042078,357.74221 377.1,357.65 C377.119887,357.588228 377.119887,357.521772 377.1,357.46 C377.063477,357.378541 377.004511,357.309169 376.93,357.26 C376.520573,356.934782 375.949428,356.906627 375.51,357.19 C375.064924,357.481784 374.855671,358.025037 374.99,358.54 C375.098922,358.978612 375.441388,359.321078 375.88,359.43 C376.305916,359.518277 376.747382,359.382441 377.05,359.07 C377.253783,358.893162 377.385464,358.647594 377.42,358.38 C377.43332,358.149106 377.354157,357.92241 377.2,357.75 C377.123485,357.716606 377.036515,357.716606 376.96,357.75 C376.89927,357.876451 376.832527,357.999925 376.76,358.12 Z"/>
            <circle cx="386.69" cy="362.55" r="1" fill="#C9F5F2" fill-rule="nonzero"/>
            <path fill="#C9F5F2" fill-rule="nonzero" d="M387.19,362.5 C387.171704,362.690674 387.068965,362.863129 386.91,362.97 C386.682766,363.08006 386.410945,363.036089 386.23,362.86 C386.23,362.86 386.11,362.79 386.11,362.73 C386.136531,362.532354 386.183447,362.337985 386.25,362.15 C386.32,362.15 386.43,362.03 386.57,361.98 C386.67463,361.950521 386.78537,361.950521 386.89,361.98 C386.993074,361.99817 387.089603,362.042987 387.17,362.11 C387.212325,362.14116 387.259677,362.164836 387.31,362.18 C387.36,362.18 387.55,362.12 387.58,362.03 C387.599811,361.971635 387.599811,361.908365 387.58,361.85 C387.534135,361.769025 387.473008,361.697709 387.4,361.64 C386.992599,361.319489 386.427143,361.291417 385.99,361.57 C385.543281,361.865176 385.334169,362.412084 385.47,362.93 C385.574352,363.365566 385.914434,363.705648 386.35,363.81 C386.614887,363.872173 386.892955,363.844014 387.14,363.73 C387.288402,363.66541 387.42135,363.56996 387.53,363.45 C387.733148,363.273966 387.86183,363.027327 387.89,362.76 C387.906418,362.531686 387.826656,362.306901 387.67,362.14 L387.44,362.14 C387.37,362.14 387.24,362.46 387.19,362.5 Z M407.61,350.81 L402.61,353.71 C402.509843,353.795532 402.368418,353.813318 402.250201,353.755249 C402.131985,353.697179 402.059619,353.574376 402.066095,353.442827 C402.072572,353.311277 402.156651,353.196176 402.28,353.15 L407.28,350.25 C407.380157,350.164468 407.521582,350.146682 407.639799,350.204751 C407.758015,350.262821 407.830381,350.385624 407.823905,350.517173 C407.817428,350.648723 407.733349,350.763824 407.61,350.81 Z"/>
            <path fill="#C9F5F2" fill-rule="nonzero" d="M406.61,351 C406.41,351.09 405.43,351.64 404.38,352.26 L402.84,353.18 L402.49,353.39 C402.49,353.39 402.42,353.39 402.43,353.46 L402.56,353.36 C402.645246,353.293158 402.735513,353.23298 402.83,353.18 C403.514384,352.890571 404.162202,352.521349 404.76,352.08 C405.500477,351.696726 406.215311,351.265821 406.9,350.79 L407.35,350.51 C407.42,350.46 407.45,350.43 407.55,350.51 C407.604267,350.556926 407.627475,350.630418 407.61,350.7 C407.61,350.78 407.61,351.01 407.79,350.96 C407.951615,350.892319 408.057671,350.735199 408.06,350.56 C408.062681,350.396492 407.999599,350.238755 407.88491,350.122186 C407.77022,350.005617 407.61353,349.939978 407.45,349.94 C407.335241,349.940357 407.222183,349.967765 407.12,350.02 L406.97,350.11 L406.68,350.27 L406.09,350.6 L404.91,351.27 L402.55,352.6 L402.04,352.88 C401.863644,352.99567 401.745932,353.18196 401.717179,353.390896 C401.688427,353.599832 401.751443,353.810994 401.89,353.97 C402.032509,354.129331 402.236236,354.22028 402.45,354.22 C402.557507,354.213454 402.662751,354.186294 402.76,354.14 L402.9,354.06 L403.39,353.77 L405.3,352.6 C405.71,352.37 406.14,352.16 406.54,351.9 C406.886255,351.67488 407.220076,351.43119 407.54,351.17 C407.610635,351.087229 407.640043,350.976951 407.62,350.87 C407.278326,350.854048 406.936498,350.898046 406.61,351 Z"/>
            <circle cx="398.86" cy="355.5" r="1" fill="#C9F5F2" fill-rule="nonzero"/>
            <path fill="#C9F5F2" fill-rule="nonzero" d="M399.36,355.46 C399.332824,355.644929 399.231786,355.810921 399.08,355.92 C398.852766,356.03006 398.580945,355.986089 398.4,355.81 C398.35,355.81 398.28,355.74 398.27,355.68 C398.3001,355.48631 398.346942,355.295595 398.41,355.11 C398.49,355.11 398.59,354.99 398.74,354.93 C398.841196,354.900276 398.948804,354.900276 399.05,354.93 C399.156879,354.951603 399.256606,354.999748 399.34,355.07 L399.47,355.13 C399.581772,355.137347 399.688815,355.083826 399.75,354.99 C399.775005,354.929135 399.775005,354.860865 399.75,354.8 C399.711322,354.717174 399.652957,354.645076 399.58,354.59 C399.170431,354.272602 398.605052,354.248543 398.17,354.53 C397.757857,354.797144 397.54223,355.282368 397.620165,355.767295 C397.698099,356.252222 398.054906,356.645448 398.53,356.77 C398.79627,356.823243 399.072529,356.79177 399.32,356.68 C399.462719,356.615045 399.591702,356.523399 399.7,356.41 C399.905296,356.234375 400.037312,355.988183 400.07,355.72 C400.08332,355.489106 400.004157,355.26241 399.85,355.09 L399.61,355.09 C399.535014,355.218772 399.451494,355.342382 399.36,355.46 Z"/>
          </g>
        </g>
      </g>
    </g>
  </g>
</svg>
