<svg width="139" height="47" viewBox="0 0 139 47" fill="none" xmlns="http://www.w3.org/2000/svg">
<g filter="url(#filter0_dd)">
<rect x="4" y="3" width="131" height="39" rx="2.5" fill="#2C7EA1"/>
<path d="M30.8893 16.4813C31.0977 16.2729 31.4355 16.2729 31.644 16.4813L38.8437 23.6823C39.0521 23.8906 39.0521 24.2286 38.8437 24.437L38.1854 25.0953L30.2311 17.1398L30.8893 16.4813Z" fill="white"/>
<path d="M32.4032 20.9303L28.0192 16.5476C27.8108 16.3392 27.4726 16.3392 27.2645 16.5478L20.1562 23.6604C19.9479 23.8689 19.9479 24.2069 20.1565 24.4152L24.1636 28.4209C24.3719 28.6291 24.7093 28.6293 24.918 28.4211L29.4917 23.8562L34.0789 28.4238C34.2869 28.6309 34.6229 28.6312 34.8314 28.4242L37.3366 25.9376L32.4032 20.9303ZM25.9696 23.9629C25.1443 23.9629 24.502 23.2909 24.502 22.4952C24.502 21.6993 25.1443 21.0275 25.9696 21.0275C26.7949 21.0275 27.4372 21.6994 27.4372 22.4952C27.437 23.2911 26.7947 23.9629 25.9696 23.9629Z" fill="white"/>
<path d="M26.4958 22.6221C26.4943 22.5533 26.4665 22.4916 26.412 22.4372C26.3714 22.3964 26.3275 22.3727 26.2808 22.3658C26.2331 22.3583 26.1877 22.3609 26.1443 22.374C26.1015 22.3865 26.0474 22.4067 25.982 22.435C25.922 22.4618 25.8762 22.4808 25.8445 22.4918C25.8128 22.5014 25.7849 22.5052 25.7608 22.5032C25.7374 22.5004 25.7153 22.4887 25.6946 22.4681C25.6656 22.4391 25.6533 22.4067 25.6574 22.3709C25.6615 22.335 25.6699 22.2964 25.7387 22.2275L25.8757 22.0905L25.7848 21.9996L25.6843 22.1001C25.6794 22.1021 25.6757 22.1018 25.6729 22.0991L25.5974 22.0195C25.594 22.0161 25.5899 22.0146 25.5849 22.0154C25.58 22.0146 25.5759 22.0161 25.5725 22.0195L25.4918 22.1001C25.4884 22.1036 25.4867 22.108 25.4867 22.1135C25.4867 22.1177 25.4884 22.1214 25.4918 22.1249L25.5703 22.1994C25.573 22.2021 25.5734 22.2059 25.5713 22.2108C25.5244 22.2741 25.5017 22.339 25.5031 22.4052C25.5051 22.4706 25.5324 22.5295 25.5848 22.5819C25.6254 22.6226 25.6693 22.6471 25.716 22.6552C25.7622 22.6629 25.8077 22.6601 25.8524 22.6471C25.8972 22.634 25.9517 22.6133 26.0158 22.585C26.0743 22.5609 26.1195 22.544 26.1512 22.5344C26.1829 22.5234 26.2112 22.5192 26.236 22.5219C26.2602 22.524 26.2818 22.5346 26.3011 22.554C26.3294 22.5821 26.3421 22.6157 26.3393 22.6543C26.3372 22.6921 26.3211 22.7373 26.2804 22.7779L26.0806 22.9705L26.1669 23.0635L26.3042 22.9397C26.309 22.9376 26.3128 22.938 26.3155 22.9408L26.3838 23.0111C26.3872 23.0145 26.3911 23.0162 26.3952 23.0162C26.4006 23.0162 26.4052 23.0145 26.4086 23.0111L26.4894 22.9305C26.4928 22.927 26.4942 22.923 26.4935 22.918C26.4941 22.9132 26.4928 22.909 26.4894 22.9055L26.4202 22.8383C26.4174 22.8356 26.417 22.8317 26.4191 22.8269C26.4717 22.7592 26.4972 22.691 26.4958 22.6221Z" fill="white"/>
<path d="M50.6016 20.402C50.5536 20.486 50.5016 20.548 50.4456 20.588C50.3936 20.624 50.3276 20.642 50.2476 20.642C50.1636 20.642 50.0716 20.612 49.9716 20.552C49.8756 20.488 49.7596 20.418 49.6236 20.342C49.4876 20.266 49.3276 20.198 49.1436 20.138C48.9636 20.074 48.7496 20.042 48.5016 20.042C48.2776 20.042 48.0816 20.07 47.9136 20.126C47.7456 20.178 47.6036 20.252 47.4876 20.348C47.3756 20.444 47.2916 20.56 47.2356 20.696C47.1796 20.828 47.1516 20.974 47.1516 21.134C47.1516 21.338 47.2076 21.508 47.3196 21.644C47.4356 21.78 47.5876 21.896 47.7756 21.992C47.9636 22.088 48.1776 22.174 48.4176 22.25C48.6576 22.326 48.9036 22.408 49.1556 22.496C49.4076 22.58 49.6536 22.68 49.8936 22.796C50.1336 22.908 50.3476 23.052 50.5356 23.228C50.7236 23.4 50.8736 23.612 50.9856 23.864C51.1016 24.116 51.1596 24.422 51.1596 24.782C51.1596 25.174 51.0916 25.542 50.9556 25.886C50.8236 26.226 50.6276 26.524 50.3676 26.78C50.1116 27.032 49.7976 27.232 49.4256 27.38C49.0536 27.524 48.6276 27.596 48.1476 27.596C47.8716 27.596 47.5996 27.568 47.3316 27.512C47.0636 27.46 46.8056 27.384 46.5576 27.284C46.3136 27.184 46.0836 27.064 45.8676 26.924C45.6516 26.784 45.4596 26.628 45.2916 26.456L45.7656 25.682C45.8056 25.626 45.8576 25.58 45.9216 25.544C45.9856 25.504 46.0536 25.484 46.1256 25.484C46.2256 25.484 46.3336 25.526 46.4496 25.61C46.5656 25.69 46.7036 25.78 46.8636 25.88C47.0236 25.98 47.2096 26.072 47.4216 26.156C47.6376 26.236 47.8956 26.276 48.1956 26.276C48.6556 26.276 49.0116 26.168 49.2636 25.952C49.5156 25.732 49.6416 25.418 49.6416 25.01C49.6416 24.782 49.5836 24.596 49.4676 24.452C49.3556 24.308 49.2056 24.188 49.0176 24.092C48.8296 23.992 48.6156 23.908 48.3756 23.84C48.1356 23.772 47.8916 23.698 47.6436 23.618C47.3956 23.538 47.1516 23.442 46.9116 23.33C46.6716 23.218 46.4576 23.072 46.2696 22.892C46.0816 22.712 45.9296 22.488 45.8136 22.22C45.7016 21.948 45.6456 21.614 45.6456 21.218C45.6456 20.902 45.7076 20.594 45.8316 20.294C45.9596 19.994 46.1436 19.728 46.3836 19.496C46.6236 19.264 46.9196 19.078 47.2716 18.938C47.6236 18.798 48.0276 18.728 48.4836 18.728C48.9956 18.728 49.4676 18.808 49.8996 18.968C50.3316 19.128 50.6996 19.352 51.0036 19.64L50.6016 20.402ZM56.2761 23.714C56.2761 23.522 56.2481 23.342 56.1921 23.174C56.1401 23.002 56.0601 22.852 55.9521 22.724C55.8441 22.596 55.7061 22.496 55.5381 22.424C55.3741 22.348 55.1821 22.31 54.9621 22.31C54.5341 22.31 54.1961 22.432 53.9481 22.676C53.7041 22.92 53.5481 23.266 53.4801 23.714H56.2761ZM53.4501 24.608C53.4741 24.924 53.5301 25.198 53.6181 25.43C53.7061 25.658 53.8221 25.848 53.9661 26C54.1101 26.148 54.2801 26.26 54.4761 26.336C54.6761 26.408 54.8961 26.444 55.1361 26.444C55.3761 26.444 55.5821 26.416 55.7541 26.36C55.9301 26.304 56.0821 26.242 56.2101 26.174C56.3421 26.106 56.4561 26.044 56.5521 25.988C56.6521 25.932 56.7481 25.904 56.8401 25.904C56.9641 25.904 57.0561 25.95 57.1161 26.042L57.5421 26.582C57.3781 26.774 57.1941 26.936 56.9901 27.068C56.7861 27.196 56.5721 27.3 56.3481 27.38C56.1281 27.456 55.9021 27.51 55.6701 27.542C55.4421 27.574 55.2201 27.59 55.0041 27.59C54.5761 27.59 54.1781 27.52 53.8101 27.38C53.4421 27.236 53.1221 27.026 52.8501 26.75C52.5781 26.47 52.3641 26.126 52.2081 25.718C52.0521 25.306 51.9741 24.83 51.9741 24.29C51.9741 23.87 52.0421 23.476 52.1781 23.108C52.3141 22.736 52.5081 22.414 52.7601 22.142C53.0161 21.866 53.3261 21.648 53.6901 21.488C54.0581 21.328 54.4721 21.248 54.9321 21.248C55.3201 21.248 55.6781 21.31 56.0061 21.434C56.3341 21.558 56.6161 21.74 56.8521 21.98C57.0881 22.216 57.2721 22.508 57.4041 22.856C57.5401 23.2 57.6081 23.594 57.6081 24.038C57.6081 24.262 57.5841 24.414 57.5361 24.494C57.4881 24.57 57.3961 24.608 57.2601 24.608H53.4501ZM62.6863 23.714C62.6863 23.522 62.6583 23.342 62.6023 23.174C62.5503 23.002 62.4703 22.852 62.3623 22.724C62.2543 22.596 62.1163 22.496 61.9483 22.424C61.7843 22.348 61.5923 22.31 61.3723 22.31C60.9443 22.31 60.6063 22.432 60.3583 22.676C60.1143 22.92 59.9583 23.266 59.8903 23.714H62.6863ZM59.8603 24.608C59.8843 24.924 59.9403 25.198 60.0283 25.43C60.1163 25.658 60.2323 25.848 60.3763 26C60.5203 26.148 60.6903 26.26 60.8863 26.336C61.0863 26.408 61.3063 26.444 61.5463 26.444C61.7863 26.444 61.9923 26.416 62.1643 26.36C62.3403 26.304 62.4923 26.242 62.6203 26.174C62.7523 26.106 62.8663 26.044 62.9623 25.988C63.0623 25.932 63.1583 25.904 63.2503 25.904C63.3743 25.904 63.4663 25.95 63.5263 26.042L63.9523 26.582C63.7883 26.774 63.6043 26.936 63.4003 27.068C63.1963 27.196 62.9823 27.3 62.7583 27.38C62.5383 27.456 62.3123 27.51 62.0803 27.542C61.8523 27.574 61.6303 27.59 61.4143 27.59C60.9863 27.59 60.5883 27.52 60.2203 27.38C59.8523 27.236 59.5323 27.026 59.2603 26.75C58.9883 26.47 58.7743 26.126 58.6183 25.718C58.4623 25.306 58.3843 24.83 58.3843 24.29C58.3843 23.87 58.4523 23.476 58.5883 23.108C58.7243 22.736 58.9183 22.414 59.1703 22.142C59.4263 21.866 59.7363 21.648 60.1003 21.488C60.4683 21.328 60.8823 21.248 61.3423 21.248C61.7303 21.248 62.0883 21.31 62.4163 21.434C62.7443 21.558 63.0263 21.74 63.2623 21.98C63.4983 22.216 63.6823 22.508 63.8143 22.856C63.9503 23.2 64.0183 23.594 64.0183 24.038C64.0183 24.262 63.9943 24.414 63.9463 24.494C63.8983 24.57 63.8063 24.608 63.6703 24.608H59.8603ZM69.5484 18.584V27.5H68.0664V18.584H69.5484ZM72.561 21.344V27.5H71.073V21.344H72.561ZM72.765 19.55C72.765 19.678 72.739 19.798 72.687 19.91C72.635 20.022 72.565 20.12 72.477 20.204C72.393 20.288 72.293 20.356 72.177 20.408C72.061 20.456 71.937 20.48 71.805 20.48C71.677 20.48 71.555 20.456 71.439 20.408C71.327 20.356 71.229 20.288 71.145 20.204C71.061 20.12 70.993 20.022 70.941 19.91C70.893 19.798 70.869 19.678 70.869 19.55C70.869 19.418 70.893 19.294 70.941 19.178C70.993 19.062 71.061 18.962 71.145 18.878C71.229 18.794 71.327 18.728 71.439 18.68C71.555 18.628 71.677 18.602 71.805 18.602C71.937 18.602 72.061 18.628 72.177 18.68C72.293 18.728 72.393 18.794 72.477 18.878C72.565 18.962 72.635 19.062 72.687 19.178C72.739 19.294 72.765 19.418 72.765 19.55ZM79.6218 21.344L77.1798 27.5H75.8358L73.3938 21.344H74.6178C74.7298 21.344 74.8218 21.37 74.8938 21.422C74.9698 21.474 75.0198 21.54 75.0438 21.62L76.2318 24.908C76.2958 25.1 76.3518 25.288 76.3998 25.472C76.4478 25.656 76.4898 25.84 76.5258 26.024C76.5658 25.84 76.6098 25.656 76.6578 25.472C76.7058 25.288 76.7638 25.1 76.8318 24.908L78.0438 21.62C78.0718 21.54 78.1218 21.474 78.1938 21.422C78.2658 21.37 78.3518 21.344 78.4518 21.344H79.6218ZM84.1902 23.714C84.1902 23.522 84.1622 23.342 84.1062 23.174C84.0542 23.002 83.9742 22.852 83.8662 22.724C83.7582 22.596 83.6202 22.496 83.4522 22.424C83.2882 22.348 83.0962 22.31 82.8762 22.31C82.4482 22.31 82.1102 22.432 81.8622 22.676C81.6182 22.92 81.4622 23.266 81.3942 23.714H84.1902ZM81.3642 24.608C81.3882 24.924 81.4442 25.198 81.5322 25.43C81.6202 25.658 81.7362 25.848 81.8802 26C82.0242 26.148 82.1942 26.26 82.3902 26.336C82.5902 26.408 82.8102 26.444 83.0502 26.444C83.2902 26.444 83.4962 26.416 83.6682 26.36C83.8442 26.304 83.9962 26.242 84.1242 26.174C84.2562 26.106 84.3702 26.044 84.4662 25.988C84.5662 25.932 84.6622 25.904 84.7542 25.904C84.8782 25.904 84.9702 25.95 85.0302 26.042L85.4562 26.582C85.2922 26.774 85.1082 26.936 84.9042 27.068C84.7002 27.196 84.4862 27.3 84.2622 27.38C84.0422 27.456 83.8162 27.51 83.5842 27.542C83.3562 27.574 83.1342 27.59 82.9182 27.59C82.4902 27.59 82.0922 27.52 81.7242 27.38C81.3562 27.236 81.0362 27.026 80.7642 26.75C80.4922 26.47 80.2782 26.126 80.1222 25.718C79.9662 25.306 79.8882 24.83 79.8882 24.29C79.8882 23.87 79.9562 23.476 80.0922 23.108C80.2282 22.736 80.4222 22.414 80.6742 22.142C80.9302 21.866 81.2402 21.648 81.6042 21.488C81.9722 21.328 82.3862 21.248 82.8462 21.248C83.2342 21.248 83.5922 21.31 83.9202 21.434C84.2482 21.558 84.5302 21.74 84.7662 21.98C85.0022 22.216 85.1862 22.508 85.3182 22.856C85.4542 23.2 85.5222 23.594 85.5222 24.038C85.5222 24.262 85.4982 24.414 85.4502 24.494C85.4022 24.57 85.3102 24.608 85.1742 24.608H81.3642ZM93.4163 22.916C93.2483 22.712 93.0643 22.568 92.8643 22.484C92.6683 22.4 92.4563 22.358 92.2283 22.358C92.0043 22.358 91.8023 22.4 91.6223 22.484C91.4423 22.568 91.2883 22.696 91.1603 22.868C91.0323 23.036 90.9343 23.252 90.8663 23.516C90.7983 23.776 90.7643 24.084 90.7643 24.44C90.7643 24.8 90.7923 25.106 90.8483 25.358C90.9083 25.606 90.9923 25.81 91.1003 25.97C91.2083 26.126 91.3403 26.24 91.4963 26.312C91.6523 26.38 91.8263 26.414 92.0183 26.414C92.3263 26.414 92.5883 26.35 92.8043 26.222C93.0203 26.094 93.2243 25.912 93.4163 25.676V22.916ZM94.8983 18.584V27.5H93.9923C93.7963 27.5 93.6723 27.41 93.6203 27.23L93.4943 26.636C93.2463 26.92 92.9603 27.15 92.6363 27.326C92.3163 27.502 91.9423 27.59 91.5143 27.59C91.1783 27.59 90.8703 27.52 90.5903 27.38C90.3103 27.24 90.0683 27.038 89.8643 26.774C89.6643 26.506 89.5083 26.176 89.3963 25.784C89.2883 25.392 89.2343 24.944 89.2343 24.44C89.2343 23.984 89.2963 23.56 89.4203 23.168C89.5443 22.776 89.7223 22.436 89.9543 22.148C90.1863 21.86 90.4643 21.636 90.7883 21.476C91.1123 21.312 91.4763 21.23 91.8803 21.23C92.2243 21.23 92.5183 21.284 92.7623 21.392C93.0063 21.5 93.2243 21.646 93.4163 21.83V18.584H94.8983ZM100.327 23.714C100.327 23.522 100.299 23.342 100.243 23.174C100.191 23.002 100.111 22.852 100.003 22.724C99.8949 22.596 99.7569 22.496 99.5889 22.424C99.4249 22.348 99.2329 22.31 99.0129 22.31C98.5849 22.31 98.2469 22.432 97.9989 22.676C97.7549 22.92 97.5989 23.266 97.5309 23.714H100.327ZM97.5009 24.608C97.5249 24.924 97.5809 25.198 97.6689 25.43C97.7569 25.658 97.8729 25.848 98.0169 26C98.1609 26.148 98.3309 26.26 98.5269 26.336C98.7269 26.408 98.9469 26.444 99.1869 26.444C99.4269 26.444 99.6329 26.416 99.8049 26.36C99.9809 26.304 100.133 26.242 100.261 26.174C100.393 26.106 100.507 26.044 100.603 25.988C100.703 25.932 100.799 25.904 100.891 25.904C101.015 25.904 101.107 25.95 101.167 26.042L101.593 26.582C101.429 26.774 101.245 26.936 101.041 27.068C100.837 27.196 100.623 27.3 100.399 27.38C100.179 27.456 99.9529 27.51 99.7209 27.542C99.4929 27.574 99.2709 27.59 99.0549 27.59C98.6269 27.59 98.2289 27.52 97.8609 27.38C97.4929 27.236 97.1729 27.026 96.9009 26.75C96.6289 26.47 96.4149 26.126 96.2589 25.718C96.1029 25.306 96.0249 24.83 96.0249 24.29C96.0249 23.87 96.0929 23.476 96.2289 23.108C96.3649 22.736 96.5589 22.414 96.8109 22.142C97.0669 21.866 97.3769 21.648 97.7409 21.488C98.1089 21.328 98.5229 21.248 98.9829 21.248C99.3709 21.248 99.7289 21.31 100.057 21.434C100.385 21.558 100.667 21.74 100.903 21.98C101.139 22.216 101.323 22.508 101.455 22.856C101.591 23.2 101.659 23.594 101.659 24.038C101.659 24.262 101.635 24.414 101.587 24.494C101.539 24.57 101.447 24.608 101.311 24.608H97.5009ZM102.771 27.5V21.344H103.677C103.869 21.344 103.995 21.434 104.055 21.614L104.151 22.07C104.259 21.95 104.371 21.84 104.487 21.74C104.607 21.64 104.733 21.554 104.865 21.482C105.001 21.41 105.145 21.354 105.297 21.314C105.453 21.27 105.623 21.248 105.807 21.248C106.195 21.248 106.513 21.354 106.761 21.566C107.013 21.774 107.201 22.052 107.325 22.4C107.421 22.196 107.541 22.022 107.685 21.878C107.829 21.73 107.987 21.61 108.159 21.518C108.331 21.426 108.513 21.358 108.705 21.314C108.901 21.27 109.097 21.248 109.293 21.248C109.633 21.248 109.935 21.3 110.199 21.404C110.463 21.508 110.685 21.66 110.865 21.86C111.045 22.06 111.181 22.304 111.273 22.592C111.369 22.88 111.417 23.21 111.417 23.582V27.5H109.935V23.582C109.935 23.19 109.849 22.896 109.677 22.7C109.505 22.5 109.253 22.4 108.921 22.4C108.769 22.4 108.627 22.426 108.495 22.478C108.367 22.53 108.253 22.606 108.153 22.706C108.057 22.802 107.981 22.924 107.925 23.072C107.869 23.22 107.841 23.39 107.841 23.582V27.5H106.353V23.582C106.353 23.17 106.269 22.87 106.101 22.682C105.937 22.494 105.695 22.4 105.375 22.4C105.159 22.4 104.957 22.454 104.769 22.562C104.585 22.666 104.413 22.81 104.253 22.994V27.5H102.771ZM115.55 21.248C116.006 21.248 116.42 21.322 116.792 21.47C117.168 21.618 117.488 21.828 117.752 22.1C118.02 22.372 118.226 22.704 118.37 23.096C118.514 23.488 118.586 23.926 118.586 24.41C118.586 24.898 118.514 25.338 118.37 25.73C118.226 26.122 118.02 26.456 117.752 26.732C117.488 27.008 117.168 27.22 116.792 27.368C116.42 27.516 116.006 27.59 115.55 27.59C115.09 27.59 114.672 27.516 114.296 27.368C113.92 27.22 113.598 27.008 113.33 26.732C113.066 26.456 112.86 26.122 112.712 25.73C112.568 25.338 112.496 24.898 112.496 24.41C112.496 23.926 112.568 23.488 112.712 23.096C112.86 22.704 113.066 22.372 113.33 22.1C113.598 21.828 113.92 21.618 114.296 21.47C114.672 21.322 115.09 21.248 115.55 21.248ZM115.55 26.45C116.062 26.45 116.44 26.278 116.684 25.934C116.932 25.59 117.056 25.086 117.056 24.422C117.056 23.758 116.932 23.252 116.684 22.904C116.44 22.556 116.062 22.382 115.55 22.382C115.03 22.382 114.644 22.558 114.392 22.91C114.144 23.258 114.02 23.762 114.02 24.422C114.02 25.082 114.144 25.586 114.392 25.934C114.644 26.278 115.03 26.45 115.55 26.45Z" fill="white"/>
</g>
<defs>
<filter id="filter0_dd" x="0" y="0" width="139" height="47" filterUnits="userSpaceOnUse" color-interpolation-filters="sRGB">
<feFlood flood-opacity="0" result="BackgroundImageFix"/>
<feColorMatrix in="SourceAlpha" type="matrix" values="0 0 0 0 0 0 0 0 0 0 0 0 0 0 0 0 0 0 127 0"/>
<feOffset/>
<feGaussianBlur stdDeviation="0.5"/>
<feColorMatrix type="matrix" values="0 0 0 0 0.156863 0 0 0 0 0.2 0 0 0 0 0.254902 0 0 0 0.2 0"/>
<feBlend mode="normal" in2="BackgroundImageFix" result="effect1_dropShadow"/>
<feColorMatrix in="SourceAlpha" type="matrix" values="0 0 0 0 0 0 0 0 0 0 0 0 0 0 0 0 0 0 127 0"/>
<feOffset dy="1"/>
<feGaussianBlur stdDeviation="2"/>
<feColorMatrix type="matrix" values="0 0 0 0 0.156863 0 0 0 0 0.2 0 0 0 0 0.254902 0 0 0 0.1 0"/>
<feBlend mode="normal" in2="effect1_dropShadow" result="effect2_dropShadow"/>
<feBlend mode="normal" in="SourceGraphic" in2="effect2_dropShadow" result="shape"/>
</filter>
</defs>
</svg>
