<?xml version="1.0" encoding="UTF-8"?>
<svg width="498px" height="126px" viewBox="0 0 498 126" version="1.1" xmlns="http://www.w3.org/2000/svg" xmlns:xlink="http://www.w3.org/1999/xlink">
    <!-- Generator: Sketch 43.1 (39012) - http://www.bohemiancoding.com/sketch -->
    <title>dribbble-logo</title>
    <desc>Created with Sketch.</desc>
    <defs></defs>
    <g id="Page-1" stroke="none" stroke-width="1" fill="none" fill-rule="evenodd">
        <g id="dribbble-logo" fill-rule="nonzero" fill="#FFFFFF">
            <g id="dribbble">
                <path d="M191.398,94.244 C190.313,95.951 189.446,97.416 188.481,98.812 C185.392,103.28 182.412,107.833 179.097,112.126 C177.31,114.438 175.05,116.44 172.787,118.325 C164.941,124.862 155.626,121.464 151.067,115.774 C149.856,114.264 148.859,112.586 147.83,111.081 C145.587,113.097 143.428,115.254 141.043,117.128 C137.209,120.144 132.933,122.101 127.876,121.832 C122.204,121.532 117.901,118.922 114.848,114.201 C111.844,109.555 110.657,104.317 110.075,98.923 C109.39,92.59 109.59,86.253 110.257,79.924 C110.372,78.836 110.435,77.734 110.407,76.64 C110.357,74.599 109.532,73.494 107.531,73.123 C104.774,72.614 101.981,72.293 99.277,71.899 C97.775,75.796 96.45,79.623 94.844,83.325 C90.71,92.852 85.501,101.772 79.087,109.955 C77.742,111.671 76.185,113.262 74.532,114.686 C68.828,119.614 62.178,120.188 55.772,116.19 C53.493,114.768 51.522,112.852 49.616,111.327 C47.282,113.958 45.036,116.948 42.335,119.445 C35.203,126.041 26.968,126.977 18.35,122.901 C8.336,118.166 2.735,109.948 0.978,99.087 C-0.275,91.344 0.612,83.851 4.165,76.808 C7.197,70.796 11.517,65.98 18.326,64.404 C23.494,63.208 28.744,63.468 33.85,65.542 C33.522,62.471 33.118,59.456 32.891,56.429 C31.927,43.511 32.156,30.684 36.162,18.191 C37.156,15.092 38.437,12.122 40.488,9.543 C44.634,4.331 51.203,3.325 56.664,7.178 C61.24,10.407 63.734,15.107 65.369,20.287 C67.259,26.27 67.559,32.479 67.465,38.692 C67.142,59.889 63.142,80.35 55.023,99.973 C54.808,100.494 54.832,101.317 55.105,101.791 C55.979,103.312 56.907,104.833 58.03,106.172 C59.299,107.686 60.181,107.701 61.922,106.77 C68.155,103.432 72.741,98.547 76.292,92.426 C80.562,85.067 84.441,77.573 87.024,69.447 C87.307,68.554 87.268,68.009 86.462,67.29 C81.65,62.993 79.197,57.606 79.946,51.123 C80.634,45.172 85.915,42.25 91.441,44.637 C96.587,46.86 99.259,51.143 100.56,56.385 C101.309,59.404 101.233,59.432 104.378,59.891 C108.338,60.47 112.335,60.86 116.255,61.637 C122.667,62.908 125.554,66.369 125.543,72.906 C125.536,76.999 125.003,81.088 124.787,85.18 C124.52,90.236 124.337,95.299 125.533,100.277 C125.820407,101.480048 126.268783,102.638829 126.866,103.722 C128.223,106.16 130.554,106.988 133.08,105.797 C134.519,105.119 135.944,104.187 137.035,103.043 C139.302,100.667 141.365,98.095 143.443,95.548 C143.751,95.171 143.809,94.486 143.778,93.953 C143.172,83.474 143.909,73.072 145.56,62.728 C146.322,57.958 147.838,57.15 152.305,58.957 C156.977,60.847 158.87,63.591 158.725,68.649 C158.542,74.942 158.144,81.231 157.995,87.524 C157.894,91.811 157.819,96.137 159.034,100.311 C159.466,101.793 160.12,103.292 161.012,104.544 C163.091,107.467 166.59,107.818 169.174,105.354 C170.61,103.985 171.927,102.416 172.986,100.742 C178.609,91.834 184.14,82.868 189.674,73.903 C189.977,73.414 190.15,72.753 190.144,72.173 C190.032,60.996 190.501,49.849 191.955,38.761 C193.034,30.526 194.412,22.332 197.705,14.643 C198.817,12.046 200.265,9.488 202.036,7.299 C205.665,2.815 210.768,2.437 215.309,6.031 C219.103,9.034 220.801,13.128 221.143,17.849 C221.677,25.201 220.143,32.277 218.128,39.264 C214.205,52.873 208.44,65.726 201.94,78.275 C201.458202,79.2361288 201.220861,80.3012412 201.249,81.376 C201.482,88.207 202.021,95.006 204.526,101.462 C205.265,103.365 206.058,105.29 207.142,107.006 C208.247,108.756 209.57,110.454 211.105,111.832 C214.016,114.445 217.232,114.537 220.355,112.173 C221.834117,111.049491 223.142702,109.717665 224.24,108.219 C227.052,104.365 228.553,99.959 228.964,95.216 C229.018,94.602 228.591,93.829 228.163,93.313 C226.953,91.848 225.475,90.587 224.373,89.052 C220.723,83.966 217.987,78.446 216.998,72.182 C216.91084,71.6167579 216.865052,71.0459082 216.861,70.474 C216.816,65.787 219.746,63.514 224.177,65.129 C226.128,65.84 228.056,67.07 229.539,68.529 C234.888,73.781 238.162,80.214 239.535,87.591 C239.719,88.57 239.681,89.526 241.094,89.694 C243.243,89.953 244.19,89.723 244.882,88.27 C245.391,87.202 245.645,85.997 246.236,84.983 C247.387,83.016 248.715,81.155 249.935,79.229 C251.185,77.258 252.421,75.28 253.595,73.264 C253.808,72.899 253.718,72.334 253.712,71.866 C253.572,60.736 254.078,49.637 255.524,38.595 C256.565,30.645 257.893,22.728 261,15.283 C262.18,12.459 263.71,9.668 265.613,7.287 C269.198,2.801 274.391,2.459 278.884,6.046 C282.664,9.067 284.363,13.157 284.698,17.877 C285.224,25.228 283.689,32.304 281.675,39.29 C277.732,52.944 271.97,65.852 265.392,78.412 C265.091,78.986 264.73,79.646 264.749,80.256 C264.997,87.465 265.48,94.649 268.071,101.491 C269.274,104.671 270.687,107.744 273.005,110.294 C273.704522,111.075109 274.48715,111.777596 275.339,112.389 C277.946,114.235 280.716,114.399 283.332,112.546 C284.866,111.461 286.329,110.145 287.474,108.657 C290.509,104.712 292.078,100.136 292.53,95.191 C292.579,94.657 292.409,93.877 292.04,93.564 C287.644,89.851 284.937,84.991 282.794,79.808 C281.781,77.367 281.265,74.717 280.556,72.152 C280.431,71.703 280.435,71.209 280.423,70.732 C280.3,65.629 283.519,63.399 288.32,65.257 C290.979,66.286 293.052,68.118 294.829,70.267 C299.19,75.547 302.201,81.484 303.2,88.325 C303.322,89.157 303.681,89.463 304.396,89.626 C307.117,90.25 308.178,89.581 308.972,86.868 C309.195,86.107 309.632,85.396 310.056,84.717 C312.268,81.155 314.53,77.618 316.711,74.037 C317.06,73.467 317.259,72.706 317.253,72.036 C317.158,61.672 317.552,51.332 318.783,41.037 C319.835,32.269 321.156,23.53 324.554,15.313 C325.756,12.403 327.371,9.542 329.347,7.101 C332.796,2.834 337.985,2.531 342.31,5.938 C346.154,8.965 347.909,13.076 348.254,17.852 C348.788,25.204 347.246,32.28 345.235,39.267 C341.315,52.878 335.548,65.728 329.047,78.275 C328.560687,79.2352569 328.319521,80.3009217 328.345,81.377 C328.597,88.254 329.191,95.088 331.661,101.606 C332.835,104.696 334.233,107.668 336.442,110.172 C337.101215,110.925075 337.83458,111.609863 338.631,112.216 C341.34,114.257 344.207,114.432 346.985,112.487 C348.484,111.436 349.899,110.133 351.01,108.681 C354.036,104.731 355.624,100.165 356.072,95.219 C356.122,94.679 355.973,93.889 355.607,93.58 C351.138,89.799 348.457,84.833 346.222,79.576 C344.893,76.447 343.868,73.218 343.98,69.756 C344.066,67.048 345.354,65.167 347.496,64.843 C348.6,64.676 349.796,64.741 350.892,64.979 C353.246,65.49 355.148,66.897 356.788,68.591 C362.038,74.008 365.433,80.42 366.653,87.882 C366.876,89.238 367.454,89.682 368.633,89.707 C370.061,89.736 371.542,89.97 372.904,89.668 C374.176,89.386 375.425,88.658 376.471,87.854 C376.948,87.487 377.221,86.391 377.072,85.746 C372.181,64.565 373.318,43.51 378.297,22.536 C379.489,17.512 381.284,12.688 384.039,8.276 C384.595568,7.38666533 385.206741,6.53269377 385.869,5.719 C390.89,-0.432 398.086,-1.031 404.09,4.209 C408.12,7.728 410.278,12.377 411.794,17.361 C414.111,24.972 414.633,32.809 414.517,40.709 C414.393,49.088 413.632,57.367 410.683,65.313 C407.787,73.117 403.07,79.793 397.922,86.214 C397.058,87.293 396.132,88.329 395.327,89.452 C395.08,89.798 394.929,90.474 395.098,90.814 C396.908,94.379 398.74,97.939 400.685,101.43 C401.301,102.537 402.209,103.504 403.094,104.433 C404.497,105.91 406.225,106.624 408.323,106.67 C413.994,106.793 419.016,105.177 423.421,101.56 C424.359,100.789 424.568,100.105 424.356,98.914 C421.75,84.42 425.614,71.872 436.166,61.601 C441.288,56.614 447.613,54.173 454.878,54.425 C466.026,54.813 474.286,64.67 472.649,75.725 C471.224,85.328 465.802,92.416 458.326,98.145 C454.349,101.19 449.879,103.298 444.766,104.72 C445.336,105.158 445.733,105.514 446.177,105.789 C451.309,108.947 456.974,109.644 462.832,109.284 C473.144,108.646 480.786,103.258 487.058,95.5 C488.107,94.203 489.047,92.82 490.064,91.496 C491.252,89.947 492.278,89.797 493.607,91.219 C495.951,93.723 497.441,96.673 497.553,100.175 C497.611,101.947 497.036,103.548 495.945,104.959 C485.554,118.376 471.867,124.427 454.977,123.236 C447.39,122.702 440.393,120.441 434.37,115.642 C433.107,114.636 431.978,113.467 431.076,112.637 C427.058,114.827 423.257,117.211 419.201,119.034 C414.185,121.289 408.847,122.391 403.304,121.348 C397.229,120.202 392.504,116.761 388.913,111.93 C386.456,108.622 384.553,104.908 382.416,101.365 C382.146,100.922 381.972,100.423 381.71,99.852 C377.112,101.208 372.495,101.157 367.993,100.247 C367.121,103.311 366.384,106.307 365.413,109.222 C363.898,113.779 361.529,117.853 357.727,120.892 C351.446,125.915 344.621,126.078 337.595,122.707 C332.043,120.044 328.044,115.645 324.866,110.479 C322.105,105.987 319.95,101.225 318.978,95.996 C318.945,95.817 318.84,95.653 318.642,95.176 C315.189,100.927 310.159,101.871 304.458,100.168 C303.562,103.314 302.797,106.298 301.854,109.226 C300.7,112.8 298.903,116.05 296.345,118.83 C290.884,124.768 283.519,126.481 275.99,123.581 C270.892,121.616 266.952,118.158 263.661,113.893 C259.64,108.679 257.542,103.968 255.024,94.487 C251.886,100.831 246.837,101.989 240.977,100.184 C239.861,103.829 238.958,107.325 237.698,110.688 C236.906,112.803 235.762,114.847 234.461,116.704 C228.711,124.893 219.439,127.18 210.465,122.724 C205.503,120.26 201.753,116.45 198.676,111.921 C195.468,107.188 194.123,103.927 191.398,94.244 L191.398,94.244 Z M24.944,112.693 C29.326,112.797 33.218,111.566 35.897,108.056 C38.164,105.083 39.961,101.751 41.909,98.543 C42.099,98.23 41.964,97.644 41.84,97.224 C40.1548058,91.5196268 38.4504629,85.820928 36.727,80.128 C36.555,79.562 36.318,78.928 35.911,78.528 C31.278,73.983 23.186,73.305 18.307,78.549 C16.676,80.301 15.168,82.324 14.174,84.487 C10.744,91.948 11.28,99.51 14.32,106.966 C15.427,109.681 17.538,111.462 20.423,112.118 C21.897,112.455 23.435,112.512 24.944,112.693 L24.944,112.693 Z M48.036,81.366 C48.219,81.357 48.4,81.347 48.581,81.34 C49.653,76.801 50.833,72.285 51.775,67.72 C54.336,55.313 56.023,42.804 55.635,30.094 C55.514,26.131 55.142,22.184 53.621,18.458 C52.755,16.334 51.719,16.167 50.17,17.867 C48.389,19.824 47.482,22.233 46.776,24.723 C45.03,30.884 44.681,37.221 44.573,43.568 C44.415,52.791 45.102,61.972 46.284,71.111 C46.73,74.547 47.444,77.949 48.036,81.366 Z M389.607,74.643 C391.795,72.252 393.335,69.703 394.618,67.002 C399.75,56.211 401.534,44.784 400.845,32.938 C400.616,28.991 400.066,25.059 398.426,21.389 C397.902,20.213 397.322,18.8 395.87,18.779 C394.412,18.758 393.891,20.244 393.553,21.371 C392.487,24.918 391.376,28.476 390.687,32.107 C388.935,41.305 388.416,50.638 388.109,59.98 C387.945,64.848 388.474,69.645 389.607,74.643 L389.607,74.643 Z M438.625,93.212 L439.177,93.395 C439.885,93.124 440.602,92.874 441.297,92.576 C447.729,89.802 453.127,85.792 456.219,79.329 C457.073,77.547 457.541,75.426 457.584,73.447 C457.657,70.072 454.848,68.098 451.56,68.882 C449.062,69.478 447.076,70.922 445.371,72.778 C442.089,76.35 440.161,80.617 439.35,85.344 C438.902,87.93 438.853,90.586 438.625,93.212 Z M210.085,17.047 C205.921,20.426 200.69,47.563 201.75,52.417 C205.679,46.411 211.063,23.722 210.085,17.047 Z M273.75,17.269 C270.042,20.341 264.326,47.451 265.373,52.789 C270.148,41.162 273.05,29.484 273.75,17.269 Z M328.76,52.332 C333.497,41.092 336.52,29.442 337.448,17.295 L336.714,17.12 C331.763,28.303 329.501,40.133 328.76,52.332 L328.76,52.332 Z" id="Shape"></path>
                <path d="M142.124,40.287 C142.128,34.661 146.047,30.412 151.694,29.912 C156.823,29.458 161.801,33.534 162.723,38.946 C163.201,41.752 162.902,44.466 161.638,47.029 C159.82,50.717 156.111,52.601 152.045,51.955 C146.178,51.024 142.119,46.25 142.124,40.287 Z" id="Shape"></path>
            </g>
        </g>
    </g>
</svg>