<svg xmlns="http://www.w3.org/2000/svg" width="424" height="424" aria-hidden="true">
  <defs>
    <linearGradient id="a" x1="212" x2="212" y1="424" gradientUnits="userSpaceOnUse">
      <stop offset="0" stop-color="#fa6e84"/>
      <stop offset=".12" stop-color="#fa7186" stop-opacity=".98"/>
      <stop offset=".24" stop-color="#fa788c" stop-opacity=".93"/>
      <stop offset=".37" stop-color="#fb8497" stop-opacity=".85"/>
      <stop offset=".51" stop-color="#fb96a6" stop-opacity=".73"/>
      <stop offset=".64" stop-color="#fcacb9" stop-opacity=".57"/>
      <stop offset=".78" stop-color="#fdc7d0" stop-opacity=".38"/>
      <stop offset=".91" stop-color="#fee7eb" stop-opacity=".16"/>
      <stop offset="1" stop-color="#fff" stop-opacity="0"/>
    </linearGradient>
    <linearGradient id="b" x1="377.81" x2="292.14" y1="350.63" y2="350.63" gradientUnits="userSpaceOnUse">
      <stop offset="0" stop-color="#005d70"/>
      <stop offset="1" stop-color="#003f5e"/>
    </linearGradient>
  </defs>
  <path fill="#ef5c8a" d="M233.44 101.67l-91.66 71.29-91.67-71.29 91.67-90.41 91.66 90.41z"/>
  <path fill="url(#a)" d="M235.38 0c-47.92 0-73.17 21.63-103.55 71.11S0 138.84 0 226.92 70.34 424 195.43 424C411.94 424 424 286.45 424 226.92s0-95.92-63.41-136.78C320.29 64.18 303.66 0 235.38 0z" opacity=".3"/>
  <path fill="#fff" d="M62.28 46.18h158.98v134.5H62.28z"/>
  <path fill="none" stroke="#ef5c8a" stroke-miterlimit="10" stroke-width="3" d="M75.39 83.96h37.5m-37.5 14.08h37.5m-37.5 28.17h97.31m-97.31 19.08h131.98"/>
  <path fill="#ef5c8a" d="M233.44 101.67v115.14H50.11V101.67l91.67 71.29 91.66-71.29z"/>
  <path fill="none" stroke="#fa6e84" stroke-miterlimit="10" stroke-width="3" d="M29.88 101.67h-7.15a2 2 0 0 0-2 2v212.82a2 2 0 0 0 2 2h181.93"/>
  <path fill="#fff" d="M400.71 188v198.24a1.28 1.28 0 0 1-1.2 1.34H143a1.27 1.27 0 0 1-1.2-1.34V188z"/>
  <path fill="#fa6e84" d="M400.71 165.26V188H141.78v-22.74a2.54 2.54 0 0 1 2.4-2.67h254.14a2.54 2.54 0 0 1 2.39 2.67z"/>
  <circle cx="157.46" cy="175.31" r="3.85" fill="#d65783"/>
  <circle cx="172.7" cy="175.31" r="3.85" fill="#d65783"/>
  <circle cx="187.94" cy="175.31" r="3.85" fill="#d65783"/>
  <path fill="none" stroke="#fa6e84" stroke-miterlimit="10" stroke-width="3" d="M195.44 250.76l-11.36-11.36 11.36-11.35m6.48 11.35h99.02m6.49 11.36l11.35-11.36-11.35-11.35"/>
  <path fill="#fa6e84" d="M185.09 286.36h175.49v64.27H185.09z"/>
  <circle cx="50.11" cy="101.67" r="20.23" fill="#fa6e84"/>
  <circle cx="224.89" cy="318.49" r="20.23" fill="#d65783"/>
  <path fill="none" stroke="#fff" stroke-miterlimit="10" stroke-width="3" d="M224.89 308.01v20.97m10.49-10.49H214.4"/>
  <path fill="#ff927c" d="M301.26 409.67c7.05 0 15.31-1.83 17-2.83-.64-2.62-.81-18.13-.68-25.3l-12.82-.42c1.64 7.91 3.75 14.52 2.9 16-4.66 7.79-15.16 10.09-21 11.5h-.12c-.69.38 7.93 1.05 14.72 1.05z"/>
  <path fill="#003f5e" d="M300.56 412.5c7.8 0 19 1.35 18.81-2.37a19.45 19.45 0 0 0-.61-3.54c-1.67 1-10.45 3.08-17.5 3.08-6.79 0-14.6-.57-14.72-1.05-2.24.54-3.76.95-3.94 1.51-1.21 3.67 10.17 2.37 17.96 2.37z"/>
  <path fill="#ff927c" d="M417.87 388.71c-1.51-6.89-5.06-14.56-6.4-16-2.42 1.19-17.54 4.67-24.56 6.08l2.33 12.62c7.37-3.3 13.38-6.78 15-6.26 8.6 2.89 13.1 12.65 15.72 18a.35.35 0 0 0 .07.11c.48.65-.71-7.92-2.16-14.55z"/>
  <path fill="#003f5e" d="M420.78 388.79c-1.67-7.62-2.74-18.83-6.34-17.87a18.81 18.81 0 0 0-3.33 1.36c1.34 1.41 5.25 9.54 6.76 16.43 1.45 6.63 2.57 14.38 2.13 14.6 1 2.08 1.73 3.47 2.32 3.53 3.84.39.13-10.44-1.54-18.05zm-86.71-156.98l3.95-4c-4.3-2.05-8.27-3.43-10.47-6.71a5.13 5.13 0 0 0-.13.66c-.97 6.71 3.94 9.82 6.65 10.05z"/>
  <path fill="#ff927c" d="M354.21 256.63c-.55-3.14-4.52-9.79-5.31-10.72s-3.9 2.08-6.65 2.27c-2.06.14-2.92-2.27-3.37-3.05s-1.81-1.27-2.32-1.92-1-1.76-1.37-2.17-3.19-.21-3.49-1.32 1.29-4 1.74-5.21-.44-2.56-1.7-4.29-1.94-5.88-.82-8.07c2.24-4.34 13.15-12.55 22.17-5.06s6.38 13.84 5 17.49a9.4 9.4 0 0 0 1.5 9.67c2.19 2.52 8.1 9.49 8.1 9.49z"/>
  <path fill="none" stroke="#ef5c8a" stroke-miterlimit="10" d="M339.48 239.4a7.07 7.07 0 0 1-3.65 4.08"/>
  <circle cx="335.87" cy="234.17" r=".68" fill="#003f5e" stroke="#003f5e" stroke-miterlimit="10"/>
  <path fill="none" stroke="#003f5e" stroke-miterlimit="10" d="M332.31 230.14c1.71-.63 3.89-.08 5.33.46"/>
  <path fill="#00aea0" d="M336.87 319s1-18.2 1.48-25.74c-4.28 5.86-8.73 11.15-11.31 12.69-2.22 1.34-28.65 4.08-31.65 4.55a4 4 0 0 0-.55.13l-2.19-7.37c6.37-2.18 13.61-4.59 17-5.42 6.51-1.58 10.32-3.49 12-6.28s17.37-29.93 19.47-31.52c5-3.74 21.36-9.38 23.79-9.41s7.82 11.47 9.42 21.53 5 31.28 5.19 48.44z"/>
  <path fill="none" stroke="#00838c" stroke-miterlimit="10" d="M338.37 293.06v.22c4.57-6.25 8.95-13.14 10.67-16.86"/>
  <path fill="#ff927c" d="M294.84 310.66c-2.89.92-6.19 5.37-6.83 6a41.74 41.74 0 0 1-6 3.42c-1.28.56-4.15 2.36-4.41 1.93a4.15 4.15 0 0 1 1-3.38c1-1.29 4-2.87 4.33-3.64s-.24-2.52-1.29-2.58c-2.19-.12-8.14 2.49-10.08 3s-4.93.48-5-.06 6-3.83 6.93-4.38a61.15 61.15 0 0 1 7.47-3.71c.81-.23 5.87-2 11.66-4z"/>
  <path fill="#003f5e" d="M327.55 221.13c2.21 3.28 6.59 5.11 10.9 7.16 4.05 1.94 8.41 4.48 11.93 9.77s4.33 11.3 7 15.95 8.37 7.72 11.74 8c4.75.42 10.4-.31 12.21-4.93 3.8-9.68-5.45-8.83-7.19-17.95-2.07-10.78-9.29-10.57-10.17-12.59s1.2-11.52-12.41-16.42c-11.56-4.12-22.47 4.39-24.01 11.01zm27.71 164.13c1.92-1.24 6.14-2.2 10.15-2.91 3.47-.61 6.78-1 8.31-1.24 4.55-.66 18.15-4.2 18.15-4.2l2.48 13.62c-5.67 3.22-12.31 6.82-26.66 13.61-7.88 3.73-17.1 3.4-21-2.35-5.57-8.25-1.23-31.53.9-42.29l9.3-39.75 22.67.88a141.28 141.28 0 0 1-.68 21.71 1.49 1.49 0 0 1 0 .21l-.18 1.7a1.1 1.1 0 0 0 0 .18c-.75 6.1-2.7 12.05-4.34 17-2.07 6.27-6.61 15-8.93 20.91"/>
  <path fill="none" stroke="#003f5e" stroke-miterlimit="10" d="M355.26 385.26c1.92-1.24 6.14-2.2 10.15-2.91"/>
  <path fill="url(#b)" d="M370.16 343.52c-9.37 4.76-21.26 3.28-30.13 2.13-7.46-1-18.65-4.48-24.65-5.19 1.52 5.08 3.14 16 2.85 21.78-.37 7.56.76 20 .76 20h-16.07c-.64-4.1-6.32-26.18-8.47-34.64s-4.18-16.53.73-21.43c7-7 30.72-7.18 41.69-7.13l40.79 1.6s1.86 18.11-7.5 22.88z"/>
  <path fill="none" stroke="#003f5e" stroke-miterlimit="10" d="M315.38 340.46a11.5 11.5 0 0 0-1.3-3.21"/>
  <path fill="#ff927c" d="M282.24 319.75s-4.07-.53-4.72-1-2.67-2.23-2.94-3.55c-.13-.59 1.36-4.33 2.48-6h4.43c-.6 1.07-3.06 4.2-3 5a9.56 9.56 0 0 0 1.23 2.57c.36.48 3.75 1.76 2.52 2.98z"/>
  <path fill="none" stroke="#fff" stroke-miterlimit="10" stroke-width="2" d="M43.07 94.6v14.15"/>
  <ellipse cx="52.54" cy="101.67" fill="none" stroke="#fff" stroke-miterlimit="10" stroke-width="2" rx="4.6" ry="7.08"/>
</svg>
