<?xml version="1.0" encoding="UTF-8"?>
<svg xmlns="http://www.w3.org/2000/svg" width="109" height="20">
  <g fill="none" fill-rule="evenodd">
    <rect width="109" height="20" fill="#E00097" fill-rule="nonzero" rx="3"/>
    <path fill="#FFF" d="M32.932 15.604c-1.62 0-2.688-.516-2.688-1.572 0-.468.324-.9.936-1.236v-.048c-.312-.192-.6-.492-.6-.984 0-.384.276-.816.708-1.104v-.048c-.42-.3-.756-.828-.756-1.524 0-1.356 1.128-2.124 2.424-2.124.348 0 .648.048.924.144h2.412v1.056h-1.356c.204.228.384.588.384.972 0 1.308-1.044 2.004-2.364 2.004a2.88 2.88 0 0 1-.9-.168c-.24.144-.36.312-.36.552 0 .384.384.552 1.116.552h1.2c1.524 0 2.316.408 2.316 1.44 0 1.164-1.32 2.088-3.396 2.088zm.024-5.34c.612 0 1.116-.432 1.116-1.176 0-.72-.504-1.164-1.116-1.164-.612 0-1.116.444-1.116 1.164 0 .744.504 1.176 1.116 1.176zm.144 4.428c1.152 0 1.896-.444 1.896-.948 0-.456-.396-.576-1.188-.576h-.936c-.384 0-.66-.024-.9-.084-.42.24-.576.492-.576.768 0 .528.612.84 1.704.84zM38.26 13h1.392V9.748c.6-1.14 1.392-1.56 2.196-1.56.444 0 .684.06 1.068.18l.288-1.164c-.348-.168-.66-.24-1.14-.24-1.02 0-1.908.528-2.508 1.476h-.036l-.12-1.332h-1.14V13zm8.46.144c-1.152 0-1.968-.696-1.968-1.728 0-1.32 1.164-1.98 4.068-2.184-.048-.66-.444-1.152-1.404-1.152-.66 0-1.32.288-1.932.624l-.504-.924c.708-.42 1.68-.816 2.688-.816 1.632 0 2.532.9 2.532 2.544V13h-1.128l-.108-.732h-.036c-.624.48-1.416.876-2.208.876zm.42-1.08c.588 0 1.14-.288 1.68-.72v-1.248c-2.112.144-2.736.576-2.736 1.212 0 .528.468.756 1.056.756zm4.944 3.264v-8.22h1.14l.108.672h.036c.504-.468 1.212-.816 1.884-.816 1.536 0 2.412 1.176 2.412 3 0 2.016-1.26 3.18-2.616 3.18-.54 0-1.14-.252-1.608-.696h-.036l.072 1.032v1.848h-1.392zm2.676-3.324c.84 0 1.476-.696 1.476-2.028 0-1.176-.408-1.872-1.368-1.872-.444 0-.912.216-1.392.708v2.652c.432.396.924.54 1.284.54zm4.524.996h1.392V8.98c.54-.552.936-.828 1.512-.828.804 0 1.104.432 1.104 1.38V13h1.392V9.352c0-1.524-.624-2.388-1.98-2.388-.9 0-1.56.468-2.076 1.008h-.036l.084-1.26V4.528h-1.392V13zm11.04 2.328v-1.944l.072-1.02h-.036c-.444.444-1.068.78-1.704.78-1.512 0-2.52-1.14-2.52-3.084 0-1.92 1.26-3.096 2.604-3.096.684 0 1.212.252 1.728.768h.036l.12-.624h1.092v8.22h-1.392zm-1.332-3.324c.492 0 .924-.228 1.332-.708V8.644c-.42-.396-.828-.54-1.26-.54-.816 0-1.5.708-1.5 1.944 0 1.272.528 1.956 1.428 1.956zm8.52 1.14c.684 0 1.092-.12 1.668-.336l-.324-1.02c-.372.156-.696.228-1.008.228-.588 0-1.056-.3-1.056-1.092V4.528h-3.348V5.62h1.968v5.232c0 1.452.732 2.292 2.1 2.292zm3.324-3.6h5.328V8.536h-5.328v1.008zm9.072 3.6c.876 0 1.536-.432 2.088-1.08h.048l.108.936h1.128V7.108H91.9v3.972c-.528.648-.924.876-1.476.876-.816 0-1.104-.432-1.104-1.38V7.108h-1.38v3.648c0 1.524.6 2.388 1.968 2.388zm5.376 2.184v-8.22h1.14l.108.672h.036c.504-.468 1.212-.816 1.884-.816 1.536 0 2.412 1.176 2.412 3 0 2.016-1.26 3.18-2.616 3.18-.54 0-1.14-.252-1.608-.696h-.036l.072 1.032v1.848h-1.392zm2.676-3.324c.84 0 1.476-.696 1.476-2.028 0-1.176-.408-1.872-1.368-1.872-.444 0-.912.216-1.392.708v2.652c.432.396.924.54 1.284.54zM18.498 12.618l-2.65-3.783a1.962 1.962 0 0 1-1.809.037l-2.585 3.692c.338.365.546.857.546 1.399C12 15.088 11.105 16 10 16s-2-.912-2-2.037.895-2.037 2-2.037c.213 0 .42.034.612.097l2.665-3.806a2.053 2.053 0 0 1-.369-1.18c0-1.125.896-2.037 2-2.037 1.105 0 2 .912 2 2.037 0 .409-.118.79-.322 1.108l2.733 3.902c.212-.078.442-.121.681-.121 1.105 0 2 .912 2 2.037S21.105 16 20 16s-2-.912-2-2.037c0-.515.188-.986.498-1.345z"/>
  </g>
</svg>
