<svg xmlns="http://www.w3.org/2000/svg" width="41" height="51" viewBox="0 0 41 51">
  <g fill="#FFF">
    <path d="M26.1290323,11 L0,11 L0,47 C0,49.3206107 1.62950316,51 3.87096774,51 L30,51 L30,15 C30.0717401,12.6793893 28.3681686,11 26.1290323,11 Z M25,16 L25,25 L18,25 L18,16 L25,16 Z M5,16 L14,16 L14,19 L5,19 L5,16 Z M5,23 L14,23 L14,26 L5,26 L5,23 Z M25,46 L5,46 L5,43 L25,43 L25,46 Z M25,39 L5,39 L5,36 L25,36 L25,39 Z M25,33 L5,33 L5,30 L25,30 L25,33 Z"/>
    <path d="M32.3952707,17.2537367 C32.7538335,17.1509205 33.1474954,17.1919232 33.4994686,17.3867983 L37.3229007,19.4852719 C38.0266466,19.8748522 38.2839753,20.7719997 37.893521,21.4752612 C37.503237,22.1788526 36.6056141,22.4360145 35.9016379,22.0464245 L32.0937796,19.9197817 C31.3899935,19.5300614 31.1390755,18.6550063 31.5294398,17.9516949 C31.7246618,17.5999142 32.036778,17.3565328 32.3952707,17.2537367 Z M33.5380188,10.7640791 L38.1520748,9.44101977 C39.0014457,9.1974666 39.8752954,9.64558541 40.1035496,10.4418925 C40.3319989,11.2382998 39.8284909,12.0811355 38.9789869,12.3248049 L34.3649308,13.6478642 C33.515483,13.8914394 32.6417871,13.4432766 32.413456,12.6469914 C32.1850836,11.850562 32.688571,11.0076543 33.5380188,10.7640791 Z M31.3721959,1.40011713 C31.7307538,1.29730231 32.1244814,1.33828799 32.4763817,1.53318724 C33.180212,1.92282574 33.4373773,2.81966758 33.0469923,3.52314299 L30.9166298,7.32895126 C30.5262948,8.03233664 29.6503882,8.28349882 28.9466279,7.89384021 C28.2427775,7.50413174 27.9918767,6.62913679 28.3822818,5.92573135 L30.4845259,2.1043427 C30.6796934,1.75265002 31.0137082,1.50291184 31.3721959,1.40011713 Z M21.4418925,0.413456032 C22.2382498,0.185104266 23.0812292,0.688569601 23.324804,1.53801564 L24.647865,6.15207793 C24.8914398,7.00152397 24.4433486,7.87519783 23.6469914,8.1035496 C22.8506341,8.33190137 22.0076547,7.82843603 21.76408,6.97898999 L20.4410189,2.36492771 C20.1974442,1.51548167 20.6455353,0.641807801 21.4418925,0.413456032 Z" opacity=".2"/>
  </g>
</svg>
