<?xml version="1.0" encoding="utf-8"?>
<!-- Generator: Adobe Illustrator 18.1.1, SVG Export Plug-In . SVG Version: 6.00 Build 0)  -->
<svg version="1.1" id="Layer_1" xmlns:sketch="http://www.bohemiancoding.com/sketch/ns"
	 xmlns="http://www.w3.org/2000/svg" xmlns:xlink="http://www.w3.org/1999/xlink" x="0px" y="0px"
	 viewBox="198.7 242.3 235.1 237.7" enable-background="new 198.7 242.3 235.1 237.7" xml:space="preserve">
<g id="Page-1_1_" sketch:type="MSPage">
	<g id="logo" transform="translate(0.000000, -22.000000)" sketch:type="MSLayerGroup">
		<g id="Page-1" sketch:type="MSShapeGroup">
			<g id="logo-text-dark_jm">
				<path id="Fill-3" fill="#3FB5A0" d="M364.5,348.3c1.2,0.6,2.2,1.4,3,2.3c0.1,0.1,0.1,0.1,0.2,0.1c0,0,0.1,0,0.1,0l23-9.9
					c0.1-0.1,0.2-0.2,0.2-0.3c0-0.1,0-0.2-0.1-0.3l-21.5-21.5c-0.1-0.1-0.2-0.1-0.2-0.1c0,0-0.1,0-0.1,0c-0.1,0-0.2,0.1-0.2,0.3
					l-4.7,29.1C364.3,348.1,364.4,348.3,364.5,348.3"/>
				<path id="Fill-4" fill="#3FB5A0" d="M317.5,329.2c-0.1-0.2-0.3-0.4-0.4-0.6C317.2,328.8,317.3,329,317.5,329.2L317.5,329.2
					L317.5,329.2z M319.1,334.5c-0.1-0.8-0.2-1.5-0.4-2.3C318.9,332.9,319,333.7,319.1,334.5L319.1,334.5L319.1,334.5z M341.2,290.7
					l21.4,21.5L341.2,290.7L325.1,316L341.2,290.7L341.2,290.7z M354,348.6c0.8-0.5,1.7-0.9,2.6-1.2
					C355.7,347.7,354.9,348.1,354,348.6L354,348.6L354,348.6z M316.8,328.8c1.1,1.7,1.8,3.7,2,5.7c0,0.1,0.1,0.2,0.2,0.3l34.2,14.7
					c0.1,0,0.1,0,0.1,0c0.1,0,0.2,0,0.2-0.1c1-0.8,2.2-1.4,3.5-1.8c0.1,0,0.2-0.1,0.2-0.3l5.6-35.1c0-0.1,0-0.2-0.1-0.3l-21.4-21.5
					c-0.1-0.1-0.1-0.1-0.2-0.1h0c-0.1,0-0.2,0.1-0.2,0.2l-24.1,37.8C316.7,328.5,316.7,328.7,316.8,328.8L316.8,328.8L316.8,328.8z"
					/>
				<path id="Fill-5" fill="#3FB5A0" d="M433.6,382.9l-36.7-36.8c-0.1-0.1-0.2-0.1-0.2-0.1c0,0-0.1,0-0.1,0l-24.9,10.7
					c-0.1,0.1-0.2,0.2-0.2,0.3c0,0.1,0.1,0.3,0.2,0.3l61.4,26.3c0,0,0.1,0,0.1,0c0.1,0,0.2,0,0.2-0.1l0.2-0.2
					C433.8,383.3,433.8,383,433.6,382.9"/>
				<path id="Fill-6" fill="#3FB5A0" d="M427.5,388.9l-58.9-25.2c-0.1,0-0.1,0-0.1,0c-0.1,0-0.2,0-0.3,0.1c-1.6,2.2-4,3.6-6.8,4
					c-0.1,0-0.3,0.1-0.3,0.3l-6.3,39.1c0,0.1,0,0.2,0.1,0.3c2.2,1.7,3.5,4.2,3.8,7c0,0.2,0.1,0.3,0.3,0.3l35.6,7.5h0.1
					c0.1,0,0.2,0,0.2-0.1l32.6-32.7c0.1-0.1,0.1-0.2,0.1-0.3C427.6,389.1,427.6,389,427.5,388.9"/>
				<path id="Fill-7" fill="#3FB5A0" d="M278.6,388.9L278.6,388.9l16.2-25.3L278.6,388.9L278.6,388.9z M349.5,355.5l-32.2-13.8
					c0,0-0.1,0-0.1,0c-0.1,0-0.2,0.1-0.3,0.2c-2.2,3.4-5.9,5.4-9.9,5.4c-0.6,0-1.2-0.1-1.9-0.2H305c-0.1,0-0.2,0.1-0.3,0.2
					l-26.5,41.5c-0.1,0.1-0.1,0.3,0,0.4c0.1,0.1,0.2,0.1,0.3,0.1c0.1,0,0.1,0,0.1,0l70.7-30.5c0.1-0.1,0.2-0.2,0.2-0.3
					c0-0.1,0-0.2,0-0.4c0-0.2,0-0.3,0-0.5c0-0.6,0.1-1.2,0.2-1.7C349.7,355.7,349.6,355.6,349.5,355.5L349.5,355.5L349.5,355.5z"/>
				<path id="Fill-8" fill="#3FB5A0" d="M344.8,471.9l43.4-43.5L344.8,471.9L344.8,471.9z M356.9,421.9L356.9,421.9
					c-0.1,0.2-0.3,0.3-0.4,0.5C356.7,422.2,356.8,422.1,356.9,421.9L356.9,421.9L356.9,421.9z M388.3,428.1l-31.3-6.5
					c0,0-0.1,0-0.1,0c-0.1,0-0.2,0.1-0.3,0.1c-1.2,1.5-2.7,2.7-4.5,3.4c-0.1,0-0.2,0.2-0.2,0.3l-7.5,46.6c0,0.2,0.1,0.3,0.2,0.4
					c0,0,0.1,0,0.2,0c0.1,0,0.2,0,0.2-0.1l43.4-43.5c0.1-0.1,0.1-0.2,0.1-0.3C388.5,428.2,388.4,428.1,388.3,428.1L388.3,428.1
					L388.3,428.1z"/>
				<path id="Fill-9" fill="#3FB5A0" d="M338.3,418c0.1,0.4,0.2,0.8,0.4,1.2C338.5,418.8,338.4,418.4,338.3,418L338.3,418L338.3,418
					z M344.6,424.9c-3-1.2-5.2-3.9-6-7c0-0.1-0.1-0.2-0.3-0.3l-58-12.1c0,0,0,0-0.1,0c-0.1,0-0.2,0.1-0.3,0.2
					c-0.3,0.5-0.5,0.9-0.8,1.3c-0.1,0.1-0.1,0.3,0,0.4l52.8,77.2c0.1,0.1,0.1,0.1,0.2,0.1h0c0.1,0,0.2,0,0.2-0.1l3.2-3.2
					c0-0.1,0.1-0.1,0.1-0.2l9-56C344.8,425.2,344.8,425,344.6,424.9L344.6,424.9L344.6,424.9z"/>
				<path id="Fill-10" fill="#3FB5A0" d="M281.9,398.3l39.9,8.3L281.9,398.3L281.9,398.3z M353.9,366.5L353.9,366.5
					c-0.2-0.1-0.4-0.3-0.6-0.5C353.5,366.2,353.7,366.3,353.9,366.5L353.9,366.5L353.9,366.5z M281.5,398.4c0,0.2,0.1,0.3,0.3,0.3
					l57.5,12h0.1c0.1,0,0.2-0.1,0.3-0.2c1.7-3,4.7-5,8.1-5.2c0.2,0,0.3-0.1,0.3-0.3l6.2-38.5c0-0.1,0-0.3-0.2-0.3
					c-0.4-0.3-0.8-0.6-1.3-1.1c-0.1-0.1-0.2-0.1-0.2-0.1c-0.1,0-0.1,0-0.1,0l-71.1,30.7c-0.2,0.1-0.2,0.2-0.2,0.4
					C281.3,396.9,281.5,397.6,281.5,398.4L281.5,398.4L281.5,398.4z"/>
				<path id="Fill-11" fill="#3FB5A0" d="M257.4,408.1c-0.3-0.4-0.6-0.8-0.9-1.3c-0.1-0.1-0.2-0.2-0.3-0.2c0,0-0.1,0-0.1,0
					l-24.8,10.7c-0.1,0-0.2,0.1-0.2,0.2c0,0.1,0,0.2,0.1,0.3l12.1,12.1c0.1,0.1,0.2,0.1,0.2,0.1h0c0.1,0,0.2-0.1,0.3-0.2l13.7-21.5
					C257.5,408.3,257.5,408.2,257.4,408.1"/>
				<path id="Fill-12" fill="#3FB5A0" d="M249.2,435.6L249.2,435.6l66,66.1L249.2,435.6L249.2,435.6z M273.8,412
					c-0.1-0.1-0.2-0.2-0.3-0.2c-0.1,0-0.1,0-0.1,0c-1.8,0.8-3.6,1.2-5.5,1.2c-1.5,0-2.9-0.2-4.4-0.7c0,0-0.1,0-0.1,0
					c-0.1,0-0.2,0.1-0.3,0.2l-14.4,22.6l0,0v0l-0.1,0.1c-0.1,0.1-0.1,0.3,0,0.4l66.2,66.3c0.1,0.1,0.2,0.1,0.2,0.1
					c0.1,0,0.2,0,0.2-0.1l11.6-11.7c0.1-0.1,0.1-0.3,0-0.4L273.8,412L273.8,412z"/>
				<path id="Fill-13" fill="#3FB5A0" d="M261.6,318.2l-25.5,25.6l28.7,41.9l-28.7-41.9L261.6,318.2L261.6,318.2z M270.1,385.6
					c-0.5-0.1-1.1-0.2-1.7-0.2C269,385.4,269.6,385.5,270.1,385.6L270.1,385.6L270.1,385.6z M294.9,334c-0.1,0.3-0.1,0.7-0.1,1.1
					C294.8,334.7,294.8,334.3,294.9,334L294.9,334L294.9,334z M264.5,385.9c0.1,0.1,0.2,0.2,0.3,0.2c0,0,0.1,0,0.1,0
					c1-0.2,2.1-0.4,3.1-0.4c1.1,0,2.3,0.2,3.4,0.5c0,0,0.1,0,0.1,0c0.1,0,0.2-0.1,0.3-0.2l26.8-42c0.1-0.1,0.1-0.3,0-0.4
					c-2.1-2.2-3.3-5.1-3.3-8.2c0-0.9,0.1-1.8,0.3-2.7c0-0.2-0.1-0.3-0.2-0.4c-3.4-1.5-33.5-14.3-33.5-14.4c0,0-0.1,0-0.1,0
					c-0.1,0-0.2,0-0.2,0.1l-25.5,25.6c-0.1,0.1-0.1,0.3,0,0.4L264.5,385.9L264.5,385.9z"/>
				<path id="Fill-14" fill="#3FB5A0" d="M310.9,323.9c-0.5-0.2-0.9-0.3-1.4-0.4C310,323.6,310.5,323.7,310.9,323.9L310.9,323.9
					L310.9,323.9z M267.4,312.7c0,0,30.4,13,31.7,13.6c0.1,0,0.1,0,0.1,0c0.1,0,0.1,0,0.2-0.1c2.1-1.7,4.8-2.7,7.5-2.7
					c1.3,0,2.6,0.2,3.9,0.6c0,0,0.1,0,0.1,0c0.1,0,0.2-0.1,0.3-0.2l24.7-38.7c0.1-0.1,0.1-0.3,0-0.4l-20.5-20.5
					c-0.1-0.1-0.1-0.1-0.2-0.1c-0.1,0-0.2,0-0.2,0.1l-47.6,47.8c-0.1,0.1-0.1,0.2-0.1,0.3C267.2,312.6,267.3,312.6,267.4,312.7
					L267.4,312.7L267.4,312.7z"/>
				<path id="Fill-15" fill="#3FB5A0" d="M258,389.5c-0.4,0.4-0.7,0.8-1,1.2C257.3,390.2,257.7,389.8,258,389.5L258,389.5L258,389.5
					z M255.6,393.2c0.1,0,0.2-0.1,0.3-0.2c0.6-1.2,1.5-2.3,2.4-3.3c0.1-0.1,0.1-0.3,0-0.4c-0.3-0.4-27.4-40-27.4-40.1
					c-0.1-0.1-0.1-0.1-0.3-0.2h0c-0.1,0-0.2,0-0.2,0.1l-31.6,31.6c-0.1,0.1-0.1,0.2-0.1,0.3c0,0.1,0.1,0.2,0.3,0.2L255.6,393.2
					C255.5,393.2,255.5,393.2,255.6,393.2L255.6,393.2L255.6,393.2z"/>
				<path id="Fill-16" fill="#3FB5A0" d="M253,400.1c0-0.2-0.1-0.3-0.3-0.3l-49.1-10.3c0,0,0,0-0.1,0c-0.1,0-0.2,0.1-0.3,0.2
					c-0.1,0.1,0,0.3,0.1,0.4l21.9,22c0.1,0.1,0.2,0.1,0.2,0.1c0,0,0.1,0,0.1,0l27.2-11.7C252.9,400.3,253,400.2,253,400.1"/>
			</g>
		</g>
	</g>
</g>
</svg>
