<svg width="1200" height="630" viewBox="0 0 1200 630" fill="none" xmlns="http://www.w3.org/2000/svg">
<g clip-path="url(#clip0)">
<rect width="1200" height="630" fill="black"/>
<circle cx="1087.16" cy="361.786" r="759.647" fill="#06151C"/>
<circle cx="1087.16" cy="361.786" r="587.753" fill="#09202B"/>
<circle cx="1087.61" cy="362.233" r="420.783" fill="#0C2733"/>
<rect x="609" y="77.7858" width="812" height="685" fill="url(#paint0_radial)" fill-opacity="0.5"/>
<g clip-path="url(#clip1)">
<g clip-path="url(#clip2)">
<mask id="mask0" mask-type="alpha" maskUnits="userSpaceOnUse" x="45" y="507" width="321" height="69">
<rect x="45" y="507.006" width="320.111" height="68.1976" rx="5.56715" fill="white"/>
</mask>
<g mask="url(#mask0)">
</g>
<g clip-path="url(#clip3)">
<rect x="45" y="507.006" width="320.111" height="68.1976" rx="8" fill="#15847D"/>
</g>
</g>
<path d="M128.818 547.375H138.771V551.14H124.13V528.39H128.818V547.375ZM148.958 551.453C146.479 551.453 144.458 550.692 142.896 549.171C141.344 547.651 140.568 545.625 140.568 543.093V542.656C140.568 540.958 140.896 539.442 141.552 538.109C142.208 536.765 143.136 535.734 144.333 535.015C145.542 534.286 146.917 533.921 148.458 533.921C150.771 533.921 152.589 534.651 153.912 536.109C155.245 537.567 155.912 539.635 155.912 542.312V544.156H145.146C145.292 545.26 145.729 546.145 146.458 546.812C147.198 547.479 148.13 547.812 149.255 547.812C150.995 547.812 152.354 547.182 153.333 545.921L155.552 548.406C154.875 549.364 153.958 550.114 152.802 550.656C151.646 551.187 150.365 551.453 148.958 551.453ZM148.443 537.578C147.547 537.578 146.818 537.88 146.255 538.484C145.703 539.088 145.349 539.953 145.193 541.078H151.474V540.718C151.453 539.718 151.182 538.947 150.662 538.406C150.141 537.854 149.401 537.578 148.443 537.578ZM168.287 551.14C168.078 550.734 167.927 550.229 167.833 549.625C166.74 550.843 165.318 551.453 163.568 551.453C161.912 551.453 160.537 550.973 159.443 550.015C158.359 549.057 157.818 547.848 157.818 546.39C157.818 544.598 158.479 543.223 159.802 542.265C161.136 541.307 163.057 540.822 165.568 540.812H167.646V539.843C167.646 539.062 167.443 538.437 167.037 537.968C166.641 537.5 166.011 537.265 165.146 537.265C164.386 537.265 163.787 537.447 163.349 537.812C162.922 538.177 162.708 538.677 162.708 539.312H158.193C158.193 538.333 158.495 537.427 159.099 536.593C159.703 535.76 160.557 535.109 161.662 534.64C162.766 534.161 164.005 533.921 165.38 533.921C167.464 533.921 169.115 534.447 170.333 535.5C171.563 536.541 172.177 538.01 172.177 539.906V547.234C172.188 548.838 172.412 550.052 172.849 550.875V551.14H168.287ZM164.552 548C165.219 548 165.833 547.854 166.396 547.562C166.958 547.26 167.375 546.859 167.646 546.359V543.453H165.958C163.698 543.453 162.495 544.234 162.349 545.796L162.333 546.062C162.333 546.625 162.531 547.088 162.927 547.453C163.323 547.817 163.865 548 164.552 548ZM185.146 538.468C184.531 538.385 183.99 538.343 183.521 538.343C181.813 538.343 180.693 538.921 180.162 540.078V551.14H175.646V534.234H179.912L180.037 536.25C180.943 534.697 182.198 533.921 183.802 533.921C184.302 533.921 184.771 533.989 185.208 534.125L185.146 538.468ZM191.49 534.234L191.63 536.187C192.839 534.677 194.458 533.921 196.49 533.921C198.281 533.921 199.615 534.447 200.49 535.5C201.365 536.552 201.813 538.125 201.833 540.218V551.14H197.318V540.328C197.318 539.369 197.109 538.677 196.693 538.25C196.276 537.812 195.583 537.593 194.615 537.593C193.344 537.593 192.391 538.135 191.755 539.218V551.14H187.24V534.234H191.49ZM217.474 534.234L217.615 536.125C218.813 534.656 220.432 533.921 222.474 533.921C224.651 533.921 226.146 534.781 226.958 536.5C228.146 534.781 229.839 533.921 232.037 533.921C233.87 533.921 235.234 534.458 236.13 535.531C237.026 536.593 237.474 538.197 237.474 540.343V551.14H232.943V540.359C232.943 539.401 232.755 538.703 232.38 538.265C232.005 537.817 231.344 537.593 230.396 537.593C229.042 537.593 228.104 538.239 227.583 539.531L227.599 551.14H223.083V540.375C223.083 539.395 222.891 538.687 222.505 538.25C222.12 537.812 221.464 537.593 220.537 537.593C219.255 537.593 218.328 538.125 217.755 539.187V551.14H213.24V534.234H217.474ZM240.255 542.531C240.255 540.854 240.578 539.359 241.224 538.046C241.87 536.734 242.797 535.718 244.005 535C245.224 534.281 246.636 533.921 248.24 533.921C250.521 533.921 252.38 534.619 253.818 536.015C255.266 537.411 256.073 539.307 256.24 541.703L256.271 542.859C256.271 545.453 255.547 547.536 254.099 549.109C252.651 550.671 250.708 551.453 248.271 551.453C245.833 551.453 243.886 550.671 242.427 549.109C240.979 547.546 240.255 545.421 240.255 542.734V542.531ZM244.771 542.859C244.771 544.463 245.073 545.692 245.677 546.546C246.281 547.39 247.146 547.812 248.271 547.812C249.365 547.812 250.219 547.395 250.833 546.562C251.448 545.718 251.755 544.375 251.755 542.531C251.755 540.958 251.448 539.739 250.833 538.875C250.219 538.01 249.354 537.578 248.24 537.578C247.136 537.578 246.281 538.01 245.677 538.875C245.073 539.729 244.771 541.057 244.771 542.859ZM268.552 538.468C267.938 538.385 267.396 538.343 266.927 538.343C265.219 538.343 264.099 538.921 263.568 540.078V551.14H259.052V534.234H263.318L263.443 536.25C264.349 534.697 265.604 533.921 267.208 533.921C267.708 533.921 268.177 533.989 268.615 534.125L268.552 538.468ZM278.208 551.453C275.729 551.453 273.708 550.692 272.146 549.171C270.594 547.651 269.818 545.625 269.818 543.093V542.656C269.818 540.958 270.146 539.442 270.802 538.109C271.458 536.765 272.386 535.734 273.583 535.015C274.792 534.286 276.167 533.921 277.708 533.921C280.021 533.921 281.839 534.651 283.162 536.109C284.495 537.567 285.162 539.635 285.162 542.312V544.156H274.396C274.542 545.26 274.979 546.145 275.708 546.812C276.448 547.479 277.38 547.812 278.505 547.812C280.245 547.812 281.604 547.182 282.583 545.921L284.802 548.406C284.125 549.364 283.208 550.114 282.052 550.656C280.896 551.187 279.615 551.453 278.208 551.453ZM277.693 537.578C276.797 537.578 276.068 537.88 275.505 538.484C274.953 539.088 274.599 539.953 274.443 541.078H280.724V540.718C280.703 539.718 280.432 538.947 279.912 538.406C279.391 537.854 278.651 537.578 277.693 537.578Z" fill="white"/>
</g>
<g clip-path="url(#clip4)">
<path fill-rule="evenodd" clip-rule="evenodd" d="M100.966 72.2332L101.097 74.5807C102.595 72.7651 104.561 71.8572 106.994 71.8572C111.212 71.8572 113.358 74.2795 113.433 79.124V92.5469H108.886V79.3868C108.886 78.0977 108.608 77.1439 108.053 76.5234C107.498 75.904 106.59 75.5942 105.329 75.5942C103.494 75.5942 102.127 76.4273 101.231 78.0913V92.5469H96.6814V72.2332H100.968H100.966ZM126.986 92.9228C124.104 92.9228 121.767 92.0128 119.977 90.1919C118.186 88.3709 117.29 85.9454 117.29 82.9166V82.3537C117.29 80.3266 117.68 78.5142 118.46 76.9186C119.239 75.323 120.335 74.0809 121.745 73.1912C123.155 72.3037 124.728 71.8594 126.463 71.8594C129.22 71.8594 131.352 72.7416 132.855 74.5059C134.36 76.2714 135.111 78.7673 135.111 81.997V83.8372H121.876C122.014 85.514 122.572 86.8404 123.551 87.8166C124.531 88.7928 125.764 89.2809 127.249 89.2809C129.332 89.2809 131.029 88.4371 132.34 86.7465L134.792 89.094C133.981 90.3072 132.898 91.2492 131.545 91.9189C130.191 92.5885 128.672 92.9228 126.987 92.9228H126.986ZM126.444 75.5205C125.195 75.5205 124.189 75.9584 123.421 76.8342C122.653 77.71 122.164 78.9307 121.951 80.4954H130.619V80.1568C130.518 78.6295 130.113 77.4761 129.402 76.6932C128.69 75.9114 127.705 75.5205 126.444 75.5205ZM144.339 67.2968V72.2343H147.914V75.6135H144.339V86.9526C144.339 87.728 144.492 88.2876 144.798 88.6326C145.103 88.9765 145.649 89.1484 146.436 89.1484C146.972 89.1469 147.505 89.0839 148.026 88.9605V92.4903C146.991 92.7786 145.993 92.9217 145.031 92.9217C141.538 92.9217 139.79 90.9886 139.79 87.1213V75.6124H136.456V72.2332H139.788V67.2957H144.336L144.339 67.2968ZM156.226 92.5479H151.677V63.7115H156.226V92.5479ZM166.016 92.5479H161.467V72.2343H166.016V92.5479ZM161.186 66.9583C161.186 66.2587 161.407 65.6766 161.85 65.2131C162.294 64.7507 162.927 64.5189 163.75 64.5189C164.574 64.5189 165.21 64.7507 165.66 65.2131C166.109 65.6766 166.333 66.2587 166.333 66.9593C166.333 67.6471 166.109 68.2196 165.66 68.6767C165.21 69.1338 164.574 69.3624 163.75 69.3624C162.927 69.3624 162.294 69.1338 161.85 68.6767C161.407 68.2206 161.186 67.6471 161.186 66.9593V66.9583ZM172.567 92.5479V75.6124H169.478V72.2332H172.567V70.3748C172.567 68.1213 173.191 66.3826 174.439 65.1554C175.687 63.9294 177.434 63.3163 179.679 63.3163C180.479 63.3163 181.327 63.4285 182.226 63.6538L182.114 67.221C181.54 67.1144 180.957 67.0643 180.373 67.0715C178.201 67.0715 177.116 68.1907 177.116 70.4314V72.2332H181.233V75.6124H177.116V92.5469H172.567V92.5479ZM191.641 86.0149L195.759 72.2343H200.607L192.559 95.627C191.323 99.0436 189.227 100.752 186.269 100.752C185.608 100.752 184.877 100.639 184.079 100.414V96.8841L184.94 96.9407C186.088 96.9407 186.952 96.7313 187.533 96.3116C188.113 95.893 188.572 95.1891 188.909 94.2002L189.563 92.4539L182.45 72.2343H187.355L191.641 86.0149Z" fill="white"/>
<path d="M73.7659 73.4689L73.751 73.4624C73.7425 73.4592 73.7339 73.456 73.7264 73.4486C73.7142 73.4354 73.7051 73.4196 73.7 73.4024C73.6948 73.3852 73.6936 73.367 73.6966 73.3492L74.5216 68.3018L78.3909 72.1744L74.3669 73.8875C74.3557 73.892 74.3437 73.8942 74.3316 73.8939H74.3156C74.3103 73.8907 74.305 73.8864 74.2943 73.8758C74.1445 73.7089 73.9655 73.571 73.7659 73.4689ZM79.3782 73.1613L83.5153 77.3009C84.3746 78.1617 84.8047 78.5911 84.9616 79.0888C84.9851 79.1624 85.0043 79.2361 85.0193 79.312L75.1322 75.1221C75.1269 75.1199 75.1215 75.1178 75.1162 75.1157C75.0767 75.0997 75.0308 75.0816 75.0308 75.041C75.0308 75.0004 75.0777 74.9812 75.1172 74.9651L75.13 74.9598L79.3782 73.1613ZM84.8506 80.6406C84.6371 81.0422 84.2209 81.4587 83.5164 82.1646L78.852 86.8308L72.8192 85.5738L72.7872 85.5673C72.7338 85.5588 72.6772 85.5492 72.6772 85.5011C72.6543 85.2521 72.5804 85.0105 72.4601 84.7913C72.3399 84.5721 72.1758 84.38 71.9781 84.227C71.9535 84.2024 71.9599 84.164 71.9674 84.1287C71.9674 84.1234 71.9674 84.118 71.9695 84.1138L73.1042 77.1439L73.1084 77.1204C73.1148 77.067 73.1244 77.0051 73.1725 77.0051C73.4156 76.9748 73.6503 76.8964 73.8629 76.7745C74.0755 76.6525 74.2617 76.4895 74.4106 76.2948C74.4202 76.2841 74.4266 76.2724 74.4395 76.266C74.4736 76.25 74.5142 76.266 74.5494 76.2809L84.8496 80.6406H84.8506ZM77.7793 87.9042L70.1091 95.5789L71.422 87.5047L71.4241 87.494C71.4252 87.4834 71.4273 87.4727 71.4305 87.4631C71.4412 87.4374 71.469 87.4268 71.4956 87.4161L71.5084 87.4107C71.7959 87.288 72.0501 87.0988 72.2503 86.8586C72.2759 86.8287 72.3068 86.7998 72.3463 86.7945C72.3566 86.7928 72.367 86.7928 72.3773 86.7945L77.7782 87.9052L77.7793 87.9042ZM68.4856 97.2034L67.6211 98.0685L58.0627 84.2462C58.0593 84.2412 58.0557 84.2362 58.0521 84.2313C58.0371 84.211 58.0211 84.1907 58.0243 84.1672C58.0243 84.1501 58.036 84.1351 58.0478 84.1223L58.0585 84.1084C58.0873 84.0657 58.1118 84.023 58.1385 83.9771L58.1599 83.9397L58.1631 83.9365C58.178 83.9109 58.1919 83.8863 58.2175 83.8724C58.2399 83.8617 58.2709 83.866 58.2954 83.8713L68.8848 86.0565C68.9144 86.0611 68.9424 86.0732 68.966 86.0917C68.9798 86.1056 68.983 86.1206 68.9862 86.1377C69.0601 86.4173 69.1976 86.6761 69.3879 86.8938C69.5783 87.1115 69.8163 87.2822 70.0835 87.3926C70.1134 87.4075 70.1006 87.4406 70.0867 87.4759C70.0798 87.4913 70.0744 87.5074 70.0707 87.524C69.9373 88.3356 68.793 95.3183 68.4856 97.2034ZM66.6796 99.0094C66.0424 99.6406 65.6667 99.9749 65.2419 100.109C64.823 100.242 64.3735 100.242 63.9546 100.109C63.4572 99.9514 63.0271 99.522 62.1678 98.6612L52.5689 89.0566L55.0762 85.1658C55.088 85.1465 55.0997 85.1295 55.1189 85.1156C55.1456 85.0963 55.184 85.1049 55.216 85.1156C55.7915 85.2893 56.4094 85.258 56.9644 85.0269C56.9932 85.0162 57.022 85.0088 57.0444 85.0291C57.0557 85.0393 57.0657 85.0508 57.0743 85.0632L66.6796 99.0105V99.0094ZM51.6435 88.1306L49.4415 85.9273L53.79 84.0711C53.8011 84.0662 53.8131 84.0637 53.8252 84.0636C53.8615 84.0636 53.8829 84.0999 53.9021 84.133C53.9458 84.2003 53.9921 84.2658 54.0409 84.3295L54.0547 84.3466C54.0675 84.3648 54.059 84.3829 54.0462 84.4L51.6446 88.1306H51.6435ZM48.467 84.9522L45.6812 82.1646C45.2073 81.6904 44.8636 81.3465 44.6245 81.0507L53.0952 82.8087C53.1058 82.8106 53.1165 82.8124 53.1272 82.814C53.1795 82.8225 53.2371 82.8322 53.2371 82.8813C53.2371 82.9347 53.1741 82.9592 53.1208 82.9795L53.0962 82.9902L48.467 84.9522ZM44.1378 79.6174C44.1474 79.4379 44.1797 79.2602 44.2338 79.0888C44.3918 78.5911 44.8209 78.1617 45.6812 77.3009L49.2462 73.7337C50.8877 76.1174 52.5335 78.498 54.1839 80.8755C54.2127 80.914 54.2447 80.9567 54.2116 80.9888C54.0558 81.1607 53.9 81.3487 53.79 81.5527C53.7781 81.5789 53.7597 81.6017 53.7367 81.6189C53.7228 81.6274 53.7078 81.6242 53.6918 81.621H53.6897L44.1378 79.6164V79.6174ZM50.2004 72.7789L54.9919 67.9825C55.4434 68.18 57.0839 68.8732 58.5494 69.4926C59.6595 69.9626 60.6714 70.3898 60.9895 70.5286C61.0215 70.5414 61.0503 70.5542 61.0642 70.5863C61.0727 70.6055 61.0685 70.6301 61.0642 70.6504C60.9883 70.9966 60.9996 71.3562 61.097 71.697C61.1945 72.0378 61.375 72.349 61.6224 72.6027C61.6544 72.6347 61.6224 72.6807 61.5947 72.7202L61.5797 72.7426L56.7125 80.286C56.6997 80.3074 56.6879 80.3255 56.6666 80.3394C56.641 80.3554 56.6047 80.3479 56.5748 80.3405C56.3855 80.2908 56.1909 80.2643 55.9952 80.2614C55.8202 80.2614 55.6302 80.2935 55.4381 80.3287H55.437C55.4156 80.3319 55.3964 80.3362 55.3793 80.3234C55.3605 80.308 55.3443 80.2896 55.3313 80.2689L50.1994 72.7789H50.2004ZM55.9621 67.0138L62.1678 60.8043C63.0271 59.9446 63.4572 59.5141 63.9546 59.3571C64.3735 59.2246 64.823 59.2246 65.2419 59.3571C65.7393 59.5141 66.1694 59.9446 67.0287 60.8043L68.3736 62.15L63.96 68.9896C63.9491 69.0095 63.9342 69.027 63.9162 69.0409C63.8895 69.059 63.8522 69.0515 63.8201 69.0409C63.4722 68.9352 63.1037 68.916 62.7466 68.9848C62.3895 69.0537 62.0546 69.2085 61.7708 69.436C61.742 69.4659 61.6993 69.4488 61.663 69.4328C61.0866 69.1818 56.6036 67.2861 55.9621 67.0138ZM69.3107 63.0877L73.386 67.1654L72.404 73.251V73.267C72.4031 73.2809 72.4002 73.2945 72.3954 73.3076C72.3848 73.3289 72.3634 73.3332 72.3421 73.3396C72.1321 73.4033 71.9344 73.5018 71.7571 73.6312C71.7495 73.6366 71.7424 73.6427 71.7358 73.6493C71.7241 73.6622 71.7123 73.6739 71.6931 73.676C71.6775 73.6765 71.6619 73.674 71.6472 73.6686L65.4372 71.0284L65.4255 71.0231C65.386 71.0071 65.339 70.9878 65.339 70.9473C65.3025 70.601 65.1895 70.2672 65.0081 69.97C64.9782 69.9209 64.9452 69.8696 64.9708 69.8194L69.3107 63.0877ZM65.1138 72.2791L70.9353 74.7462C70.9673 74.7612 71.0025 74.775 71.0164 74.8081C71.0219 74.8281 71.0219 74.8491 71.0164 74.869C70.9993 74.9545 70.9844 75.0517 70.9844 75.1499V75.3133C70.9844 75.3539 70.9427 75.371 70.9043 75.387L70.8926 75.3913C69.9704 75.7854 57.9453 80.9161 57.9272 80.9161C57.909 80.9161 57.8898 80.9161 57.8717 80.898C57.8396 80.8659 57.8717 80.8211 57.9005 80.7805C57.9056 80.7735 57.9106 80.7663 57.9154 80.7591L62.6994 73.3471L62.7079 73.3343C62.7357 73.2894 62.7677 73.2392 62.8189 73.2392L62.867 73.2467C62.9759 73.2617 63.0719 73.2755 63.169 73.2755C63.8949 73.2755 64.5673 72.922 64.9729 72.3175C64.9826 72.3014 64.9948 72.287 65.0092 72.2748C65.038 72.2534 65.0807 72.2641 65.1138 72.2791ZM58.447 82.0888L71.5543 76.4956C71.5543 76.4956 71.5736 76.4956 71.5917 76.5138C71.6632 76.5853 71.7241 76.6334 71.7828 76.6782L71.8116 76.6964C71.8383 76.7113 71.8649 76.7284 71.8671 76.7562C71.8671 76.7669 71.8671 76.7733 71.8649 76.7829L70.7421 83.6844L70.7378 83.7122C70.7303 83.7656 70.7229 83.8265 70.6727 83.8265C70.3733 83.8467 70.0834 83.9396 69.828 84.0973C69.5727 84.2549 69.3596 84.4725 69.2072 84.7311L69.2018 84.7396C69.1869 84.7642 69.173 84.7877 69.1485 84.8005C69.1261 84.8112 69.0972 84.8069 69.0738 84.8016L58.621 82.6442C58.6103 82.642 58.4587 82.0899 58.447 82.0888Z" fill="url(#paint1_radial)"/>
</g>
<path d="M57.0176 226.256V241.786H47.9355V197.708H65.1309C68.4408 197.708 71.347 198.313 73.8496 199.524C76.3724 200.735 78.3099 202.461 79.6621 204.701C81.0143 206.921 81.6904 209.454 81.6904 212.299C81.6904 216.619 80.207 220.029 77.2402 222.532C74.2936 225.014 70.2067 226.256 64.9795 226.256H57.0176ZM57.0176 218.899H65.1309C67.5326 218.899 69.359 218.334 70.6104 217.204C71.8818 216.074 72.5176 214.459 72.5176 212.36C72.5176 210.201 71.8818 208.455 70.6104 207.123C69.3389 205.791 67.583 205.105 65.3428 205.064H57.0176V218.899ZM105.65 241.786C105.246 240.999 104.954 240.02 104.772 238.849C102.653 241.211 99.898 242.391 96.5074 242.391C93.2984 242.391 90.6344 241.463 88.5152 239.606C86.4163 237.749 85.3668 235.408 85.3668 232.583C85.3668 229.111 86.6484 226.447 89.2115 224.591C91.7949 222.734 95.5185 221.795 100.382 221.775H104.409V219.898C104.409 218.384 104.015 217.174 103.228 216.265C102.461 215.357 101.24 214.903 99.565 214.903C98.0917 214.903 96.9313 215.256 96.0836 215.963C95.2561 216.669 94.8424 217.638 94.8424 218.869H86.0934C86.0934 216.972 86.6786 215.216 87.8492 213.601C89.0198 211.987 90.6747 210.725 92.8141 209.817C94.9534 208.889 97.3551 208.424 100.019 208.424C104.056 208.424 107.254 209.444 109.616 211.482C111.997 213.5 113.188 216.346 113.188 220.019V234.217C113.208 237.326 113.642 239.677 114.49 241.271V241.786H105.65ZM98.4146 235.701C99.7063 235.701 100.897 235.418 101.987 234.853C103.077 234.268 103.884 233.491 104.409 232.522V226.891H101.139C96.7597 226.891 94.4286 228.405 94.1461 231.432L94.1158 231.947C94.1158 233.037 94.4993 233.935 95.2662 234.641C96.0331 235.348 97.0826 235.701 98.4146 235.701ZM127.612 209.03L127.884 212.814C130.225 209.888 133.363 208.424 137.299 208.424C140.77 208.424 143.354 209.444 145.049 211.482C146.744 213.521 147.612 216.568 147.653 220.625V241.786H138.904V220.837C138.904 218.98 138.5 217.638 137.693 216.81C136.885 215.963 135.543 215.539 133.666 215.539C131.204 215.539 129.357 216.588 128.126 218.687V241.786H119.377V209.03H127.612ZM181.495 197.708L192.817 229.676L204.079 197.708H216.006V241.786H206.894V229.737L207.802 208.939L195.905 241.786H189.668L177.801 208.969L178.709 229.737V241.786H169.627V197.708H181.495ZM241.994 241.786C241.59 240.999 241.298 240.02 241.116 238.849C238.997 241.211 236.242 242.391 232.852 242.391C229.643 242.391 226.979 241.463 224.859 239.606C222.76 237.749 221.711 235.408 221.711 232.583C221.711 229.111 222.993 226.447 225.556 224.591C228.139 222.734 231.863 221.795 236.727 221.775H240.753V219.898C240.753 218.384 240.359 217.174 239.572 216.265C238.805 215.357 237.584 214.903 235.909 214.903C234.436 214.903 233.275 215.256 232.428 215.963C231.6 216.669 231.187 217.638 231.187 218.869H222.438C222.438 216.972 223.023 215.216 224.193 213.601C225.364 211.987 227.019 210.725 229.158 209.817C231.298 208.889 233.699 208.424 236.363 208.424C240.4 208.424 243.599 209.444 245.96 211.482C248.341 213.5 249.532 216.346 249.532 220.019V234.217C249.552 237.326 249.986 239.677 250.834 241.271V241.786H241.994ZM234.759 235.701C236.05 235.701 237.241 235.418 238.331 234.853C239.421 234.268 240.228 233.491 240.753 232.522V226.891H237.483C233.104 226.891 230.773 228.405 230.49 231.432L230.46 231.947C230.46 233.037 230.843 233.935 231.61 234.641C232.377 235.348 233.427 235.701 234.759 235.701ZM269.526 235.338C271.141 235.338 272.452 234.894 273.462 234.006C274.471 233.118 274.995 231.937 275.036 230.464H283.24C283.22 232.684 282.614 234.722 281.423 236.579C280.233 238.415 278.598 239.848 276.519 240.878C274.461 241.887 272.18 242.391 269.677 242.391C264.995 242.391 261.302 240.908 258.597 237.941C255.893 234.954 254.541 230.837 254.541 225.59V225.014C254.541 219.969 255.883 215.942 258.567 212.935C261.251 209.928 264.934 208.424 269.617 208.424C273.714 208.424 276.993 209.595 279.456 211.936C281.938 214.257 283.199 217.355 283.24 221.23H275.036C274.995 219.535 274.471 218.162 273.462 217.113C272.452 216.043 271.12 215.508 269.465 215.508C267.427 215.508 265.883 216.255 264.834 217.749C263.804 219.222 263.29 221.624 263.29 224.954V225.862C263.29 229.232 263.804 231.654 264.834 233.128C265.863 234.601 267.427 235.338 269.526 235.338ZM296.089 209.03L296.362 212.693C298.682 209.847 301.821 208.424 305.777 208.424C309.995 208.424 312.891 210.09 314.465 213.42C316.766 210.09 320.045 208.424 324.304 208.424C327.856 208.424 330.5 209.464 332.236 211.543C333.971 213.601 334.839 216.709 334.839 220.867V241.786H326.06V220.897C326.06 219.04 325.696 217.688 324.97 216.841C324.243 215.973 322.962 215.539 321.125 215.539C318.502 215.539 316.685 216.79 315.676 219.293L315.706 241.786H306.957V220.927C306.957 219.03 306.584 217.658 305.837 216.81C305.09 215.963 303.819 215.539 302.023 215.539C299.54 215.539 297.744 216.568 296.634 218.627V241.786H287.885V209.03H296.089ZM350.473 241.786H341.694V209.03H350.473V241.786ZM341.18 200.553C341.18 199.242 341.613 198.162 342.481 197.314C343.369 196.466 344.57 196.043 346.084 196.043C347.577 196.043 348.768 196.466 349.656 197.314C350.544 198.162 350.988 199.242 350.988 200.553C350.988 201.885 350.534 202.975 349.626 203.823C348.738 204.671 347.557 205.094 346.084 205.094C344.61 205.094 343.42 204.671 342.512 203.823C341.624 202.975 341.18 201.885 341.18 200.553ZM366.592 241.786H357.813V195.286H366.592V241.786ZM382.711 241.786H373.932V195.286H382.711V241.786ZM408.578 241.786C408.174 240.999 407.881 240.02 407.7 238.849C405.581 241.211 402.826 242.391 399.435 242.391C396.226 242.391 393.562 241.463 391.443 239.606C389.344 237.749 388.295 235.408 388.295 232.583C388.295 229.111 389.576 226.447 392.139 224.591C394.723 222.734 398.446 221.795 403.31 221.775H407.337V219.898C407.337 218.384 406.943 217.174 406.156 216.265C405.389 215.357 404.168 214.903 402.493 214.903C401.019 214.903 399.859 215.256 399.011 215.963C398.184 216.669 397.77 217.638 397.77 218.869H389.021C389.021 216.972 389.606 215.216 390.777 213.601C391.948 211.987 393.602 210.725 395.742 209.817C397.881 208.889 400.283 208.424 402.947 208.424C406.983 208.424 410.182 209.444 412.544 211.482C414.925 213.5 416.116 216.346 416.116 220.019V234.217C416.136 237.326 416.57 239.677 417.418 241.271V241.786H408.578ZM401.342 235.701C402.634 235.701 403.825 235.418 404.915 234.853C406.004 234.268 406.812 233.491 407.337 232.522V226.891H404.067C399.687 226.891 397.356 228.405 397.074 231.432L397.044 231.947C397.044 233.037 397.427 233.935 398.194 234.641C398.961 235.348 400.01 235.701 401.342 235.701ZM430.539 209.03L430.812 212.814C433.153 209.888 436.291 208.424 440.227 208.424C443.698 208.424 446.281 209.444 447.977 211.482C449.672 213.521 450.54 216.568 450.58 220.625V241.786H441.831V220.837C441.831 218.98 441.428 217.638 440.62 216.81C439.813 215.963 438.471 215.539 436.594 215.539C434.132 215.539 432.285 216.588 431.054 218.687V241.786H422.305V209.03H430.539ZM495.412 230.221C495.412 228.506 494.806 227.194 493.595 226.286C492.384 225.357 490.204 224.389 487.056 223.38C483.908 222.35 481.415 221.341 479.579 220.352C474.573 217.648 472.071 214.005 472.071 209.424C472.071 207.042 472.737 204.923 474.069 203.066C475.421 201.189 477.348 199.726 479.851 198.676C482.374 197.627 485.199 197.102 488.328 197.102C491.476 197.102 494.281 197.677 496.744 198.828C499.206 199.958 501.113 201.563 502.465 203.641C503.838 205.72 504.524 208.081 504.524 210.725H495.442C495.442 208.707 494.806 207.143 493.535 206.033C492.263 204.903 490.477 204.338 488.176 204.338C485.956 204.338 484.231 204.812 482.999 205.76C481.768 206.689 481.153 207.92 481.153 209.454C481.153 210.887 481.869 212.088 483.302 213.056C484.755 214.025 486.885 214.933 489.69 215.781C494.857 217.335 498.621 219.262 500.982 221.563C503.343 223.864 504.524 226.73 504.524 230.161C504.524 233.975 503.081 236.972 500.195 239.152C497.309 241.312 493.424 242.391 488.539 242.391C485.149 242.391 482.061 241.776 479.276 240.545C476.491 239.293 474.361 237.588 472.888 235.428C471.435 233.269 470.708 230.766 470.708 227.921H479.821C479.821 232.785 482.727 235.216 488.539 235.216C490.699 235.216 492.384 234.783 493.595 233.915C494.806 233.027 495.412 231.796 495.412 230.221ZM524.851 242.391C520.047 242.391 516.132 240.918 513.104 237.971C510.097 235.025 508.594 231.099 508.594 226.195V225.347C508.594 222.058 509.229 219.121 510.501 216.538C511.772 213.934 513.569 211.936 515.89 210.544C518.231 209.131 520.895 208.424 523.882 208.424C528.362 208.424 531.884 209.837 534.447 212.663C537.031 215.488 538.322 219.494 538.322 224.681V228.254H517.464C517.746 230.393 518.594 232.108 520.007 233.4C521.44 234.692 523.246 235.338 525.426 235.338C528.796 235.338 531.43 234.117 533.327 231.674L537.626 236.488C536.314 238.345 534.538 239.798 532.298 240.847C530.058 241.877 527.575 242.391 524.851 242.391ZM523.852 215.508C522.116 215.508 520.703 216.094 519.613 217.264C518.544 218.435 517.857 220.11 517.555 222.29H529.725V221.593C529.684 219.656 529.16 218.162 528.15 217.113C527.141 216.043 525.708 215.508 523.852 215.508ZM558.044 242.391C553.24 242.391 549.325 240.918 546.297 237.971C543.29 235.025 541.787 231.099 541.787 226.195V225.347C541.787 222.058 542.422 219.121 543.694 216.538C544.965 213.934 546.762 211.936 549.083 210.544C551.424 209.131 554.088 208.424 557.075 208.424C561.555 208.424 565.077 209.837 567.64 212.663C570.224 215.488 571.515 219.494 571.515 224.681V228.254H550.657C550.939 230.393 551.787 232.108 553.2 233.4C554.633 234.692 556.439 235.338 558.619 235.338C561.989 235.338 564.623 234.117 566.52 231.674L570.819 236.488C569.507 238.345 567.731 239.798 565.491 240.847C563.251 241.877 560.768 242.391 558.044 242.391ZM557.045 215.508C555.309 215.508 553.896 216.094 552.806 217.264C551.737 218.435 551.05 220.11 550.748 222.29H562.918V221.593C562.877 219.656 562.352 218.162 561.343 217.113C560.334 216.043 558.901 215.508 557.045 215.508ZM593.901 232.734C593.901 231.664 593.366 230.827 592.296 230.221C591.247 229.596 589.551 229.041 587.21 228.556C579.42 226.922 575.525 223.612 575.525 218.627C575.525 215.72 576.725 213.299 579.127 211.361C581.549 209.403 584.708 208.424 588.603 208.424C592.76 208.424 596.08 209.403 598.563 211.361C601.065 213.319 602.317 215.862 602.317 218.99H593.568C593.568 217.739 593.164 216.709 592.357 215.902C591.549 215.075 590.288 214.661 588.572 214.661C587.099 214.661 585.959 214.994 585.152 215.66C584.344 216.326 583.941 217.174 583.941 218.203C583.941 219.172 584.395 219.959 585.303 220.564C586.231 221.149 587.785 221.664 589.965 222.108C592.145 222.532 593.981 223.016 595.475 223.561C600.097 225.257 602.407 228.193 602.407 232.371C602.407 235.358 601.126 237.78 598.563 239.636C596 241.473 592.69 242.391 588.633 242.391C585.888 242.391 583.446 241.907 581.307 240.938C579.188 239.949 577.523 238.607 576.312 236.912C575.101 235.196 574.495 233.35 574.495 231.372H582.79C582.871 232.926 583.446 234.117 584.516 234.944C585.585 235.772 587.018 236.185 588.815 236.185C590.49 236.185 591.751 235.872 592.599 235.247C593.467 234.601 593.901 233.763 593.901 232.734ZM652.658 241.786H622.445V235.792L636.703 220.594C638.661 218.455 640.104 216.588 641.033 214.994C641.981 213.399 642.455 211.886 642.455 210.453C642.455 208.495 641.961 206.961 640.972 205.851C639.983 204.721 638.57 204.156 636.734 204.156C634.756 204.156 633.192 204.842 632.041 206.215C630.911 207.567 630.346 209.353 630.346 211.573H621.567C621.567 208.889 622.203 206.437 623.474 204.216C624.766 201.996 626.582 200.261 628.923 199.009C631.264 197.738 633.918 197.102 636.885 197.102C641.426 197.102 644.948 198.192 647.451 200.372C649.973 202.551 651.235 205.629 651.235 209.605C651.235 211.785 650.67 214.005 649.539 216.265C648.409 218.526 646.472 221.16 643.727 224.167L633.706 234.732H652.658V241.786ZM658.998 220.11L661.541 197.708H686.244V205.004H668.716L667.626 214.479C669.705 213.369 671.915 212.814 674.256 212.814C678.454 212.814 681.743 214.116 684.125 216.719C686.507 219.323 687.697 222.966 687.697 227.648C687.697 230.494 687.092 233.047 685.881 235.307C684.69 237.548 682.975 239.293 680.734 240.545C678.494 241.776 675.85 242.391 672.803 242.391C670.139 242.391 667.666 241.856 665.386 240.787C663.105 239.697 661.299 238.173 659.967 236.216C658.655 234.258 657.959 232.028 657.878 229.525H666.536C666.718 231.362 667.354 232.795 668.443 233.824C669.553 234.833 670.996 235.338 672.772 235.338C674.75 235.338 676.274 234.631 677.344 233.218C678.413 231.786 678.948 229.767 678.948 227.164C678.948 224.661 678.333 222.744 677.102 221.412C675.87 220.08 674.125 219.414 671.864 219.414C669.785 219.414 668.1 219.959 666.809 221.049L665.961 221.836L658.998 220.11ZM692.827 206.184C692.827 203.48 693.705 201.29 695.461 199.615C697.216 197.92 699.517 197.072 702.363 197.072C705.249 197.072 707.57 197.91 709.326 199.585C711.082 201.24 711.96 203.49 711.96 206.336V208.515C711.96 211.24 711.082 213.43 709.326 215.085C707.57 216.74 705.269 217.567 702.423 217.567C699.558 217.567 697.237 216.74 695.461 215.085C693.705 213.41 692.827 211.159 692.827 208.334V206.184ZM698.639 208.515C698.639 209.726 698.982 210.705 699.669 211.452C700.375 212.178 701.293 212.542 702.423 212.542C703.554 212.542 704.452 212.168 705.118 211.422C705.784 210.675 706.117 209.676 706.117 208.424V206.184C706.117 204.973 705.784 203.994 705.118 203.248C704.452 202.501 703.533 202.128 702.363 202.128C701.253 202.128 700.355 202.501 699.669 203.248C698.982 203.974 698.639 204.994 698.639 206.305V208.515ZM713.897 230.978C713.897 228.254 714.785 226.064 716.561 224.409C718.337 222.734 720.638 221.896 723.464 221.896C726.329 221.896 728.64 222.724 730.396 224.379C732.172 226.013 733.06 228.274 733.06 231.16V233.34C733.06 236.044 732.192 238.234 730.457 239.909C728.721 241.564 726.41 242.391 723.524 242.391C720.618 242.391 718.287 241.554 716.531 239.879C714.775 238.203 713.897 235.983 713.897 233.218V230.978ZM719.71 233.34C719.71 234.45 720.073 235.398 720.799 236.185C721.526 236.972 722.434 237.366 723.524 237.366C725.986 237.366 727.217 236.004 727.217 233.279V230.978C727.217 229.767 726.874 228.799 726.188 228.072C725.502 227.325 724.594 226.952 723.464 226.952C722.333 226.952 721.425 227.325 720.739 228.072C720.053 228.799 719.71 229.798 719.71 231.069V233.34ZM704.149 238.486L699.88 236.185L721.405 201.734L725.673 204.035L704.149 238.486ZM82.5381 302.103C82.195 306.846 80.4391 310.58 77.2705 313.304C74.1221 316.029 69.9645 317.391 64.7979 317.391C59.1468 317.391 54.6966 315.494 51.4473 311.7C48.2181 307.885 46.6035 302.658 46.6035 296.018V293.324C46.6035 289.086 47.3503 285.352 48.8438 282.123C50.3372 278.894 52.4665 276.421 55.2314 274.706C58.0166 272.97 61.2458 272.102 64.9189 272.102C70.0049 272.102 74.1019 273.465 77.21 276.189C80.318 278.914 82.1143 282.738 82.5986 287.663H73.5166C73.2946 284.817 72.4974 282.758 71.125 281.487C69.7728 280.195 67.7041 279.549 64.9189 279.549C61.8916 279.549 59.6211 280.639 58.1074 282.819C56.6139 284.979 55.847 288.339 55.8066 292.9V296.23C55.8066 300.993 56.5231 304.475 57.9561 306.674C59.4092 308.874 61.6898 309.974 64.7979 309.974C67.6032 309.974 69.6921 309.339 71.0645 308.067C72.457 306.775 73.2542 304.787 73.4561 302.103H82.5381ZM86.2145 300.105C86.2145 296.856 86.8401 293.96 88.0914 291.417C89.3427 288.874 91.1389 286.906 93.4801 285.513C95.8414 284.121 98.5761 283.424 101.684 283.424C106.104 283.424 109.707 284.777 112.492 287.481C115.297 290.186 116.861 293.859 117.184 298.501L117.245 300.741C117.245 305.766 115.842 309.803 113.037 312.85C110.231 315.878 106.467 317.391 101.745 317.391C97.0221 317.391 93.248 315.878 90.4225 312.85C87.6171 309.823 86.2145 305.706 86.2145 300.499V300.105ZM94.9635 300.741C94.9635 303.849 95.5488 306.23 96.7193 307.885C97.8899 309.52 99.565 310.338 101.745 310.338C103.864 310.338 105.519 309.53 106.71 307.916C107.9 306.281 108.496 303.677 108.496 300.105C108.496 297.058 107.9 294.696 106.71 293.021C105.519 291.346 103.844 290.508 101.684 290.508C99.5449 290.508 97.8899 291.346 96.7193 293.021C95.5488 294.676 94.9635 297.249 94.9635 300.741ZM130.336 284.03L130.609 287.814C132.95 284.888 136.088 283.424 140.024 283.424C143.495 283.424 146.078 284.444 147.774 286.482C149.469 288.521 150.337 291.568 150.377 295.625V316.786H141.628V295.837C141.628 293.98 141.224 292.638 140.417 291.81C139.61 290.963 138.268 290.539 136.391 290.539C133.929 290.539 132.082 291.588 130.851 293.687V316.786H122.102V284.03H130.336ZM168.948 306.099L175.033 284.03H184.176L173.126 316.786H164.77L153.721 284.03H162.863L168.948 306.099ZM202.353 317.391C197.55 317.391 193.634 315.918 190.607 312.971C187.6 310.025 186.096 306.099 186.096 301.195V300.347C186.096 297.058 186.732 294.121 188.003 291.538C189.275 288.934 191.071 286.936 193.392 285.544C195.733 284.131 198.397 283.424 201.384 283.424C205.865 283.424 209.386 284.837 211.95 287.663C214.533 290.488 215.825 294.494 215.825 299.681V303.254H194.966C195.249 305.393 196.096 307.108 197.509 308.4C198.942 309.692 200.748 310.338 202.928 310.338C206.299 310.338 208.932 309.117 210.829 306.674L215.128 311.488C213.816 313.345 212.04 314.798 209.8 315.847C207.56 316.877 205.078 317.391 202.353 317.391ZM201.354 290.508C199.618 290.508 198.205 291.094 197.116 292.264C196.046 293.435 195.36 295.11 195.057 297.29H207.227V296.593C207.187 294.656 206.662 293.162 205.653 292.113C204.644 291.043 203.211 290.508 201.354 290.508ZM238.876 292.234C237.685 292.073 236.636 291.992 235.728 291.992C232.418 291.992 230.248 293.112 229.219 295.352V316.786H220.47V284.03H228.734L228.977 287.935C230.732 284.928 233.164 283.424 236.272 283.424C237.241 283.424 238.149 283.556 238.997 283.818L238.876 292.234ZM260.504 307.734C260.504 306.664 259.97 305.827 258.9 305.221C257.851 304.596 256.155 304.041 253.814 303.556C246.024 301.922 242.129 298.612 242.129 293.627C242.129 290.72 243.329 288.299 245.731 286.361C248.153 284.403 251.311 283.424 255.207 283.424C259.364 283.424 262.684 284.403 265.167 286.361C267.669 288.319 268.921 290.862 268.921 293.99H260.171C260.171 292.739 259.768 291.709 258.961 290.902C258.153 290.075 256.892 289.661 255.176 289.661C253.703 289.661 252.563 289.994 251.755 290.66C250.948 291.326 250.545 292.174 250.545 293.203C250.545 294.172 250.999 294.959 251.907 295.564C252.835 296.149 254.389 296.664 256.569 297.108C258.749 297.532 260.585 298.016 262.079 298.561C266.7 300.257 269.011 303.193 269.011 307.371C269.011 310.358 267.73 312.78 265.167 314.636C262.603 316.473 259.294 317.391 255.237 317.391C252.492 317.391 250.05 316.907 247.911 315.938C245.792 314.949 244.127 313.607 242.916 311.912C241.705 310.196 241.099 308.35 241.099 306.372H249.394C249.475 307.926 250.05 309.117 251.12 309.944C252.189 310.772 253.622 311.185 255.419 311.185C257.094 311.185 258.355 310.872 259.203 310.247C260.071 309.601 260.504 308.763 260.504 307.734ZM283.556 316.786H274.777V284.03H283.556V316.786ZM274.262 275.553C274.262 274.242 274.696 273.162 275.564 272.314C276.452 271.466 277.653 271.043 279.166 271.043C280.66 271.043 281.85 271.466 282.738 272.314C283.627 273.162 284.071 274.242 284.071 275.553C284.071 276.885 283.616 277.975 282.708 278.823C281.82 279.671 280.64 280.094 279.166 280.094C277.693 280.094 276.502 279.671 275.594 278.823C274.706 277.975 274.262 276.885 274.262 275.553ZM289.079 300.105C289.079 296.856 289.705 293.96 290.956 291.417C292.207 288.874 294.003 286.906 296.345 285.513C298.706 284.121 301.441 283.424 304.549 283.424C308.969 283.424 312.571 284.777 315.356 287.481C318.162 290.186 319.726 293.859 320.049 298.501L320.109 300.741C320.109 305.766 318.707 309.803 315.901 312.85C313.096 315.878 309.332 317.391 304.609 317.391C299.887 317.391 296.112 315.878 293.287 312.85C290.482 309.823 289.079 305.706 289.079 300.499V300.105ZM297.828 300.741C297.828 303.849 298.413 306.23 299.584 307.885C300.754 309.52 302.429 310.338 304.609 310.338C306.728 310.338 308.383 309.53 309.574 307.916C310.765 306.281 311.36 303.677 311.36 300.105C311.36 297.058 310.765 294.696 309.574 293.021C308.383 291.346 306.708 290.508 304.549 290.508C302.409 290.508 300.754 291.346 299.584 293.021C298.413 294.676 297.828 297.249 297.828 300.741ZM333.201 284.03L333.473 287.814C335.814 284.888 338.953 283.424 342.888 283.424C346.359 283.424 348.943 284.444 350.638 286.482C352.333 288.521 353.201 291.568 353.242 295.625V316.786H344.493V295.837C344.493 293.98 344.089 292.638 343.282 291.81C342.474 290.963 341.132 290.539 339.255 290.539C336.793 290.539 334.946 291.588 333.715 293.687V316.786H324.966V284.03H333.201ZM384.874 316.786H375.792V272.708H384.874V316.786ZM400.447 284.03L400.72 287.814C403.061 284.888 406.199 283.424 410.135 283.424C413.606 283.424 416.19 284.444 417.885 286.482C419.58 288.521 420.448 291.568 420.488 295.625V316.786H411.739V295.837C411.739 293.98 411.336 292.638 410.529 291.81C409.721 290.963 408.379 290.539 406.502 290.539C404.04 290.539 402.193 291.588 400.962 293.687V316.786H392.213V284.03H400.447ZM440.422 310.338C442.036 310.338 443.348 309.894 444.357 309.006C445.366 308.118 445.891 306.937 445.931 305.464H454.136C454.115 307.684 453.51 309.722 452.319 311.579C451.128 313.415 449.494 314.848 447.415 315.878C445.356 316.887 443.076 317.391 440.573 317.391C435.891 317.391 432.197 315.908 429.493 312.941C426.789 309.954 425.436 305.837 425.436 300.59V300.014C425.436 294.969 426.778 290.942 429.463 287.935C432.147 284.928 435.83 283.424 440.513 283.424C444.61 283.424 447.889 284.595 450.351 286.936C452.834 289.257 454.095 292.355 454.136 296.23H445.931C445.891 294.535 445.366 293.162 444.357 292.113C443.348 291.043 442.016 290.508 440.361 290.508C438.323 290.508 436.779 291.255 435.729 292.749C434.7 294.222 434.185 296.624 434.185 299.954V300.862C434.185 304.232 434.7 306.654 435.729 308.128C436.759 309.601 438.323 310.338 440.422 310.338ZM477.187 292.234C475.996 292.073 474.947 291.992 474.038 291.992C470.729 291.992 468.559 293.112 467.53 295.352V316.786H458.781V284.03H467.045L467.288 287.935C469.043 284.928 471.475 283.424 474.583 283.424C475.552 283.424 476.46 283.556 477.308 283.818L477.187 292.234ZM495.546 317.391C490.743 317.391 486.827 315.918 483.8 312.971C480.793 310.025 479.289 306.099 479.289 301.195V300.347C479.289 297.058 479.925 294.121 481.196 291.538C482.468 288.934 484.264 286.936 486.585 285.544C488.926 284.131 491.59 283.424 494.577 283.424C499.058 283.424 502.579 284.837 505.143 287.663C507.726 290.488 509.018 294.494 509.018 299.681V303.254H488.159C488.442 305.393 489.289 307.108 490.702 308.4C492.135 309.692 493.941 310.338 496.121 310.338C499.492 310.338 502.125 309.117 504.022 306.674L508.321 311.488C507.009 313.345 505.233 314.798 502.993 315.847C500.753 316.877 498.271 317.391 495.546 317.391ZM494.547 290.508C492.811 290.508 491.398 291.094 490.309 292.264C489.239 293.435 488.553 295.11 488.25 297.29H500.42V296.593C500.38 294.656 499.855 293.162 498.846 292.113C497.837 291.043 496.404 290.508 494.547 290.508ZM532.644 316.786C532.24 315.999 531.948 315.02 531.766 313.849C529.647 316.211 526.892 317.391 523.502 317.391C520.293 317.391 517.629 316.463 515.509 314.606C513.41 312.749 512.361 310.408 512.361 307.583C512.361 304.111 513.643 301.447 516.206 299.591C518.789 297.734 522.513 296.795 527.377 296.775H531.403V294.898C531.403 293.384 531.009 292.174 530.222 291.265C529.455 290.357 528.234 289.903 526.559 289.903C525.086 289.903 523.925 290.256 523.078 290.963C522.25 291.669 521.837 292.638 521.837 293.869H513.087C513.087 291.972 513.673 290.216 514.843 288.601C516.014 286.987 517.669 285.725 519.808 284.817C521.948 283.889 524.349 283.424 527.013 283.424C531.05 283.424 534.249 284.444 536.61 286.482C538.991 288.5 540.182 291.346 540.182 295.019V309.217C540.202 312.326 540.636 314.677 541.484 316.271V316.786H532.644ZM525.409 310.701C526.7 310.701 527.891 310.418 528.981 309.853C530.071 309.268 530.878 308.491 531.403 307.522V301.891H528.133C523.754 301.891 521.423 303.405 521.14 306.432L521.11 306.947C521.11 308.037 521.493 308.935 522.26 309.641C523.027 310.348 524.077 310.701 525.409 310.701ZM564.293 307.734C564.293 306.664 563.758 305.827 562.689 305.221C561.639 304.596 559.944 304.041 557.603 303.556C549.812 301.922 545.917 298.612 545.917 293.627C545.917 290.72 547.118 288.299 549.52 286.361C551.942 284.403 555.1 283.424 558.995 283.424C563.153 283.424 566.473 284.403 568.955 286.361C571.458 288.319 572.709 290.862 572.709 293.99H563.96C563.96 292.739 563.556 291.709 562.749 290.902C561.942 290.075 560.681 289.661 558.965 289.661C557.492 289.661 556.351 289.994 555.544 290.66C554.737 291.326 554.333 292.174 554.333 293.203C554.333 294.172 554.787 294.959 555.695 295.564C556.624 296.149 558.178 296.664 560.358 297.108C562.537 297.532 564.374 298.016 565.867 298.561C570.489 300.257 572.8 303.193 572.8 307.371C572.8 310.358 571.518 312.78 568.955 314.636C566.392 316.473 563.082 317.391 559.026 317.391C556.281 317.391 553.839 316.907 551.699 315.938C549.58 314.949 547.915 313.607 546.704 311.912C545.493 310.196 544.888 308.35 544.888 306.372H553.183C553.264 307.926 553.839 309.117 554.908 309.944C555.978 310.772 557.411 311.185 559.207 311.185C560.882 311.185 562.144 310.872 562.991 310.247C563.859 309.601 564.293 308.763 564.293 307.734ZM593.187 317.391C588.384 317.391 584.469 315.918 581.441 312.971C578.434 310.025 576.93 306.099 576.93 301.195V300.347C576.93 297.058 577.566 294.121 578.838 291.538C580.109 288.934 581.905 286.936 584.226 285.544C586.568 284.131 589.232 283.424 592.219 283.424C596.699 283.424 600.221 284.837 602.784 287.663C605.367 290.488 606.659 294.494 606.659 299.681V303.254H585.801C586.083 305.393 586.931 307.108 588.344 308.4C589.777 309.692 591.583 310.338 593.763 310.338C597.133 310.338 599.767 309.117 601.664 306.674L605.963 311.488C604.651 313.345 602.875 314.798 600.635 315.847C598.394 316.877 595.912 317.391 593.187 317.391ZM592.188 290.508C590.453 290.508 589.04 291.094 587.95 292.264C586.88 293.435 586.194 295.11 585.891 297.29H598.061V296.593C598.021 294.656 597.496 293.162 596.487 292.113C595.478 291.043 594.045 290.508 592.188 290.508ZM651.854 307.704H635.93L632.902 316.786H623.245L639.653 272.708H648.069L664.568 316.786H654.911L651.854 307.704ZM638.382 300.347H649.401L643.861 283.848L638.382 300.347ZM670.152 316.786V290.448H665.278V284.03H670.152V281.245C670.152 277.572 671.201 274.726 673.3 272.708C675.42 270.669 678.376 269.65 682.171 269.65C683.381 269.65 684.865 269.852 686.621 270.256L686.53 277.037C685.803 276.855 684.915 276.764 683.866 276.764C680.576 276.764 678.931 278.308 678.931 281.396V284.03H685.44V290.448H678.931V316.786H670.152ZM700.106 275.977V284.03H705.706V290.448H700.106V306.796C700.106 308.007 700.338 308.874 700.802 309.399C701.266 309.924 702.154 310.186 703.466 310.186C704.435 310.186 705.293 310.116 706.039 309.974V316.604C704.324 317.129 702.558 317.391 700.741 317.391C694.606 317.391 691.478 314.293 691.357 308.097V290.448H686.573V284.03H691.357V275.977H700.106ZM725.306 317.391C720.503 317.391 716.588 315.918 713.56 312.971C710.553 310.025 709.05 306.099 709.05 301.195V300.347C709.05 297.058 709.685 294.121 710.957 291.538C712.228 288.934 714.025 286.936 716.346 285.544C718.687 284.131 721.351 283.424 724.338 283.424C728.818 283.424 732.34 284.837 734.903 287.663C737.486 290.488 738.778 294.494 738.778 299.681V303.254H717.92C718.202 305.393 719.05 307.108 720.463 308.4C721.896 309.692 723.702 310.338 725.882 310.338C729.252 310.338 731.886 309.117 733.783 306.674L738.082 311.488C736.77 313.345 734.994 314.798 732.754 315.847C730.513 316.877 728.031 317.391 725.306 317.391ZM724.307 290.508C722.572 290.508 721.159 291.094 720.069 292.264C718.999 293.435 718.313 295.11 718.011 297.29H730.18V296.593C730.14 294.656 729.615 293.162 728.606 292.113C727.597 291.043 726.164 290.508 724.307 290.508ZM761.829 292.234C760.639 292.073 759.589 291.992 758.681 291.992C755.371 291.992 753.202 293.112 752.172 295.352V316.786H743.423V284.03H751.688L751.93 287.935C753.686 284.928 756.118 283.424 759.226 283.424C760.195 283.424 761.103 283.556 761.951 283.818L761.829 292.234ZM59.8027 347.708L71.125 379.676L82.3867 347.708H94.3145V391.786H85.2021V379.737L86.1104 358.939L74.2129 391.786H67.9766L56.1094 358.969L57.0176 379.737V391.786H47.9355V347.708H59.8027ZM110.554 391.786H101.775V359.03H110.554V391.786ZM101.26 350.553C101.26 349.242 101.694 348.162 102.562 347.314C103.45 346.466 104.651 346.043 106.165 346.043C107.658 346.043 108.849 346.466 109.737 347.314C110.625 348.162 111.069 349.242 111.069 350.553C111.069 351.885 110.615 352.975 109.707 353.823C108.819 354.671 107.638 355.094 106.165 355.094C104.691 355.094 103.501 354.671 102.592 353.823C101.704 352.975 101.26 351.885 101.26 350.553ZM116.168 375.166C116.168 370.14 117.359 366.094 119.74 363.026C122.142 359.958 125.371 358.424 129.428 358.424C133.02 358.424 135.816 359.656 137.814 362.118L138.177 359.03H146.109V390.696C146.109 393.562 145.453 396.054 144.141 398.174C142.849 400.293 141.023 401.907 138.661 403.017C136.3 404.127 133.535 404.682 130.366 404.682C127.965 404.682 125.624 404.198 123.343 403.229C121.062 402.281 119.337 401.049 118.166 399.536L122.041 394.208C124.221 396.65 126.865 397.871 129.973 397.871C132.294 397.871 134.1 397.245 135.392 395.994C136.683 394.763 137.329 393.007 137.329 390.726V388.97C135.311 391.251 132.657 392.391 129.367 392.391C125.432 392.391 122.243 390.857 119.801 387.79C117.379 384.702 116.168 380.615 116.168 375.529V375.166ZM124.917 375.801C124.917 378.768 125.513 381.099 126.703 382.795C127.894 384.47 129.529 385.307 131.608 385.307C134.272 385.307 136.179 384.308 137.329 382.31V368.536C136.159 366.538 134.272 365.539 131.668 365.539C129.569 365.539 127.914 366.397 126.703 368.112C125.513 369.827 124.917 372.391 124.917 375.801ZM170.916 367.234C169.725 367.073 168.676 366.992 167.767 366.992C164.457 366.992 162.288 368.112 161.259 370.352V391.786H152.51V359.03H160.774L161.016 362.935C162.772 359.928 165.204 358.424 168.312 358.424C169.281 358.424 170.189 358.556 171.037 358.818L170.916 367.234ZM192.877 391.786C192.474 390.999 192.181 390.02 191.999 388.849C189.88 391.211 187.125 392.391 183.735 392.391C180.526 392.391 177.862 391.463 175.743 389.606C173.644 387.749 172.594 385.408 172.594 382.583C172.594 379.111 173.876 376.447 176.439 374.591C179.022 372.734 182.746 371.795 187.61 371.775H191.636V369.898C191.636 368.384 191.243 367.174 190.455 366.265C189.689 365.357 188.468 364.903 186.792 364.903C185.319 364.903 184.159 365.256 183.311 365.963C182.483 366.669 182.07 367.638 182.07 368.869H173.321C173.321 366.972 173.906 365.216 175.077 363.601C176.247 361.987 177.902 360.725 180.041 359.817C182.181 358.889 184.582 358.424 187.246 358.424C191.283 358.424 194.482 359.444 196.843 361.482C199.225 363.5 200.415 366.346 200.415 370.019V384.217C200.436 387.326 200.87 389.677 201.717 391.271V391.786H192.877ZM185.642 385.701C186.934 385.701 188.124 385.418 189.214 384.853C190.304 384.268 191.111 383.491 191.636 382.522V376.891H188.367C183.987 376.891 181.656 378.405 181.373 381.432L181.343 381.947C181.343 383.037 181.727 383.935 182.494 384.641C183.26 385.348 184.31 385.701 185.642 385.701ZM217.261 350.977V359.03H222.861V365.448H217.261V381.796C217.261 383.007 217.493 383.874 217.957 384.399C218.421 384.924 219.309 385.186 220.621 385.186C221.59 385.186 222.448 385.116 223.194 384.974V391.604C221.479 392.129 219.713 392.391 217.896 392.391C211.761 392.391 208.633 389.293 208.512 383.097V365.448H203.729V359.03H208.512V350.977H217.261ZM236.619 391.786H227.839V359.03H236.619V391.786ZM227.325 350.553C227.325 349.242 227.759 348.162 228.627 347.314C229.515 346.466 230.715 346.043 232.229 346.043C233.723 346.043 234.913 346.466 235.801 347.314C236.689 348.162 237.133 349.242 237.133 350.553C237.133 351.885 236.679 352.975 235.771 353.823C234.883 354.671 233.702 355.094 232.229 355.094C230.756 355.094 229.565 354.671 228.657 353.823C227.769 352.975 227.325 351.885 227.325 350.553ZM251.557 359.03L251.829 362.814C254.17 359.888 257.309 358.424 261.244 358.424C264.716 358.424 267.299 359.444 268.994 361.482C270.69 363.521 271.557 366.568 271.598 370.625V391.786H262.849V370.837C262.849 368.98 262.445 367.638 261.638 366.81C260.831 365.963 259.488 365.539 257.612 365.539C255.149 365.539 253.303 366.588 252.071 368.687V391.786H243.322V359.03H251.557ZM276.637 375.166C276.637 370.14 277.827 366.094 280.209 363.026C282.61 359.958 285.84 358.424 289.896 358.424C293.489 358.424 296.284 359.656 298.282 362.118L298.645 359.03H306.577V390.696C306.577 393.562 305.921 396.054 304.609 398.174C303.318 400.293 301.491 401.907 299.13 403.017C296.768 404.127 294.003 404.682 290.835 404.682C288.433 404.682 286.092 404.198 283.811 403.229C281.531 402.281 279.805 401.049 278.635 399.536L282.51 394.208C284.689 396.65 287.333 397.871 290.441 397.871C292.762 397.871 294.568 397.245 295.86 395.994C297.152 394.763 297.798 393.007 297.798 390.726V388.97C295.779 391.251 293.125 392.391 289.836 392.391C285.9 392.391 282.711 390.857 280.269 387.79C277.847 384.702 276.637 380.615 276.637 375.529V375.166ZM285.386 375.801C285.386 378.768 285.981 381.099 287.172 382.795C288.362 384.47 289.997 385.307 292.076 385.307C294.74 385.307 296.647 384.308 297.798 382.31V368.536C296.627 366.538 294.74 365.539 292.137 365.539C290.038 365.539 288.383 366.397 287.172 368.112C285.981 369.827 285.386 372.391 285.386 375.801ZM338.542 350.977V359.03H344.143V365.448H338.542V381.796C338.542 383.007 338.774 383.874 339.238 384.399C339.702 384.924 340.59 385.186 341.902 385.186C342.871 385.186 343.729 385.116 344.476 384.974V391.604C342.76 392.129 340.994 392.391 339.178 392.391C333.042 392.391 329.914 389.293 329.793 383.097V365.448H325.01V359.03H329.793V350.977H338.542ZM346.396 375.105C346.396 371.856 347.022 368.96 348.273 366.417C349.524 363.874 351.321 361.906 353.662 360.513C356.023 359.121 358.758 358.424 361.866 358.424C366.286 358.424 369.888 359.777 372.673 362.481C375.479 365.186 377.043 368.859 377.366 373.501L377.426 375.741C377.426 380.766 376.024 384.803 373.218 387.85C370.413 390.878 366.649 392.391 361.926 392.391C357.204 392.391 353.43 390.878 350.604 387.85C347.799 384.823 346.396 380.706 346.396 375.499V375.105ZM355.145 375.741C355.145 378.849 355.73 381.23 356.901 382.885C358.072 384.52 359.747 385.338 361.926 385.338C364.046 385.338 365.7 384.53 366.891 382.916C368.082 381.281 368.677 378.677 368.677 375.105C368.677 372.058 368.082 369.696 366.891 368.021C365.7 366.346 364.025 365.508 361.866 365.508C359.726 365.508 358.072 366.346 356.901 368.021C355.73 369.676 355.145 372.249 355.145 375.741ZM433.973 391.786H424.891L407.212 362.784V391.786H398.13V347.708H407.212L424.922 376.77V347.708H433.973V391.786ZM456.056 392.391C451.253 392.391 447.337 390.918 444.31 387.971C441.303 385.025 439.799 381.099 439.799 376.195V375.347C439.799 372.058 440.435 369.121 441.706 366.538C442.978 363.934 444.774 361.936 447.095 360.544C449.436 359.131 452.1 358.424 455.087 358.424C459.568 358.424 463.09 359.837 465.653 362.663C468.236 365.488 469.528 369.494 469.528 374.681V378.254H448.669C448.952 380.393 449.8 382.108 451.212 383.4C452.645 384.692 454.452 385.338 456.631 385.338C460.002 385.338 462.635 384.117 464.533 381.674L468.831 386.488C467.52 388.345 465.744 389.798 463.503 390.847C461.263 391.877 458.781 392.391 456.056 392.391ZM455.057 365.508C453.321 365.508 451.909 366.094 450.819 367.264C449.749 368.435 449.063 370.11 448.76 372.29H460.93V371.593C460.89 369.656 460.365 368.162 459.356 367.113C458.347 366.043 456.914 365.508 455.057 365.508ZM484.647 350.977V359.03H490.248V365.448H484.647V381.796C484.647 383.007 484.88 383.874 485.344 384.399C485.808 384.924 486.696 385.186 488.008 385.186C488.977 385.186 489.834 385.116 490.581 384.974V391.604C488.866 392.129 487.1 392.391 485.283 392.391C479.148 392.391 476.02 389.293 475.898 383.097V365.448H471.115V359.03H475.898V350.977H484.647ZM504.005 391.786H495.226V345.286H504.005V391.786ZM520.124 391.786H511.345V359.03H520.124V391.786ZM510.83 350.553C510.83 349.242 511.264 348.162 512.132 347.314C513.02 346.466 514.221 346.043 515.735 346.043C517.228 346.043 518.419 346.466 519.307 347.314C520.195 348.162 520.639 349.242 520.639 350.553C520.639 351.885 520.185 352.975 519.277 353.823C518.389 354.671 517.208 355.094 515.735 355.094C514.261 355.094 513.07 354.671 512.162 353.823C511.274 352.975 510.83 351.885 510.83 350.553ZM529.401 391.786V365.448H524.527V359.03H529.401V356.245C529.401 352.572 530.451 349.726 532.55 347.708C534.669 345.669 537.625 344.65 541.42 344.65C542.631 344.65 544.114 344.852 545.87 345.256L545.779 352.037C545.053 351.855 544.165 351.764 543.115 351.764C539.825 351.764 538.18 353.308 538.18 356.396V359.03H544.689V365.448H538.18V391.786H529.401ZM561.111 379.404L567.165 359.03H576.55L563.381 396.872L562.655 398.597C560.697 402.876 557.468 405.015 552.967 405.015C551.696 405.015 550.404 404.824 549.092 404.44V397.81L550.424 397.841C552.079 397.841 553.31 397.588 554.118 397.084C554.945 396.579 555.591 395.742 556.055 394.571L557.084 391.877L545.611 359.03H555.026L561.111 379.404Z" fill="white"/>
<path d="M225.393 77.4693H231.128V81.6152H225.393V88.0961H221.025V81.6152H215.275V77.4693H221.025V71.2585H225.393V77.4693Z" fill="white"/>
<g clip-path="url(#clip5)">
<path d="M271.181 63.1405C271.76 62.9345 272.441 62.7908 273.217 62.6998C273.217 62.6998 274.089 62.6998 275.09 62.8962C275.756 63.0256 276.336 63.3082 276.829 63.7394C276.829 63.7394 277.136 63.9981 277.418 64.3718C277.61 64.6209 277.787 64.9179 277.96 65.2676L278.175 65.8329L278.348 66.6617L278.482 67.227L278.573 68.2235L278.788 70.0009L278.913 70.7482L278.956 71.0069L279.215 71.3471L279.473 71.5291L279.656 71.6106C280.034 71.6106 280.293 71.5675 280.436 71.486L280.652 71.395L280.777 71.2704L281.342 70.8728L281.831 70.5662L282.214 70.226L282.472 70.044L282.779 69.7374L283.344 69.3541L283.603 69.0954L283.91 68.8703L284.077 68.6547L285.606 67.3995L286.305 66.6953L286.487 66.6138L286.746 66.3551L287.268 66.0054L287.349 65.8377L287.699 65.6126L287.915 65.4449L288.221 65.2772L288.437 65.1862L288.662 65.0137L288.921 64.8317L289.261 64.7071L289.611 64.5251L290.392 64.2328L290.698 64.1897L291.096 64.0077L291.479 63.9741L292.087 63.84L293.084 63.7969L293.697 63.84H294.387L294.694 63.931L295.043 63.9741L295.518 64.1418L295.824 64.2664L296.131 64.4005L296.481 64.5682L296.739 64.8269L296.955 65.0089L297.17 65.1335L297.429 65.4401L297.611 65.5742L297.736 65.8329L297.908 65.9575L298.09 66.2641L298.215 66.4318L298.354 66.6569L298.445 66.8246L298.703 67.5624L299.001 68.3098L299.135 68.8655L299.226 69.2631C299.341 69.5793 299.393 69.8715 299.393 70.135L299.528 71.1746L299.561 72.3962V80.8184L299.221 79.9129L299.087 79.6063L298.996 79.3476L298.914 79.1799L298.517 78.3559L298.392 78.2218L298.301 78.0062L298.167 77.9152L298.133 77.7475L297.827 77.3499L297.611 77.1343L297.52 76.9187L297.046 76.5211L296.955 76.3534L296.739 76.2193L296.524 75.9606L296.174 75.7881L296.035 75.6635L295.819 75.5294L295.513 75.3138L295.297 75.2707L294.948 75.103L294.823 75.0599L294.301 74.8779L293.381 74.6623L293.031 74.6192L292.035 74.7102L291.115 74.9258L290.118 75.3234L289.462 75.5821L289.247 75.7498L288.681 76.0564L288.159 76.454L287.852 76.5786L287.594 76.8373L287.211 77.0528L286.947 77.3115L286.549 77.5367L286.2 77.8769L285.601 78.3655L285.337 78.6242L285.031 78.8398L284.849 79.0075L284.509 79.2662L284.418 79.4482L283.114 80.4926L282.765 80.8327L282.592 80.9669L282.41 81.101L282.195 81.2687L282.118 81.3933L281.845 81.5753L281.553 81.834L281.371 81.9586L281.155 82.1837L280.896 82.2652C280.58 82.4712 280.321 82.5718 280.115 82.5718C279.646 82.5718 279.325 82.4281 279.152 82.1406L279.071 82.0496L278.937 81.6184L278.812 80.8279L278.554 78.926L278.42 78.011C278.42 78.011 278.295 77.3547 278.099 76.7702C277.964 76.3821 277.797 76.0133 277.596 75.6683L277.38 75.3953L277.337 75.2707L277.164 75.1366L276.963 74.8731L276.522 74.5329L276.398 74.4898L276.307 74.3557L275.785 74.097L275.004 73.8383L274.529 73.7951L272.91 73.7137L272.311 73.8383L271.703 73.9293L271.09 74.1449L270.783 74.2359L270.261 74.4515L270.136 74.4946L269.696 74.7102L268.44 75.3665L267.875 75.7498L267.66 75.8408L267.31 76.0564L267.051 76.3151L266.792 76.4492L266.625 76.6169L266.366 76.751L266.275 76.8756L266.059 77.0097L265.925 77.1343L265.576 77.3499L265.451 77.5319L265.235 77.6134L264.977 77.92L264.795 78.011L264.67 78.1356L264.196 78.5763L263.798 78.9596L263.185 79.4818L262.845 79.8315L262.236 80.3537L261.489 81.1298L261 81.5274L260.402 82.2652L259.913 82.7395L259.314 83.3958V72.6981L259.573 72.4825L259.697 72.2238L260.004 71.8741L260.402 71.3998L260.833 71.0165L261.489 70.2308L261.963 69.7422L262.27 69.4835L262.835 68.8703L263.175 68.578L263.266 68.4439L263.357 68.3529L263.573 68.1373L263.741 67.9696L264.047 67.754L264.445 67.4043L264.661 67.1456L264.967 66.93L265.092 66.839L265.226 66.6713L265.398 66.5803L265.489 66.4462L265.657 66.3695L265.748 66.2785L265.839 66.1875L266.055 66.0629L266.313 65.8473L266.438 65.6653L266.572 65.6221L266.879 65.4066L267.185 65.2389L267.482 64.9802L267.664 64.8892L267.88 64.7646L268.052 64.6305L268.666 64.2807L268.757 64.2041L269.188 64.022C269.533 63.8256 269.782 63.6963 269.926 63.6388L271.181 63.1405Z" fill="white"/>
<path d="M271.272 77.5319L271.827 77.3499L272.436 77.2253H273.14L273.571 77.1774L274.304 77.2685L275.133 77.393L276.173 77.6517L276.431 77.7859L276.781 78.0014L276.963 78.1691C277.629 78.72 278.075 79.5488 278.309 80.6507L278.477 81.2639L278.784 84.3108L278.827 84.833L278.875 85.2163L278.999 85.3983L279.09 85.5229C279.315 85.6954 279.507 85.8008 279.656 85.8295C280.034 85.8582 280.321 85.8151 280.518 85.7049L281.083 85.3073L281.433 85.1396L281.739 84.833L282.262 84.5264L282.52 84.2198L282.736 84.0857L283.349 83.5635L283.483 83.4389L283.747 83.1802L284.571 82.4808L284.834 82.1837L284.959 82.0927L285.174 81.834L285.357 81.743L285.404 81.6184L285.62 81.4843L285.836 81.2687L286.267 80.919L286.616 80.5693L287.048 80.277L287.354 80.095L288.102 79.5728L288.178 79.4818C288.849 79.1129 289.606 78.8111 290.444 78.5763L290.751 78.4853C290.751 78.4853 291.398 78.3607 291.81 78.3176C292.083 78.2889 292.485 78.2697 293.017 78.2697C293.683 78.2697 294.377 78.3416 295.101 78.4853L295.839 78.7919L296.006 78.835L296.097 78.926L296.447 79.0506L296.62 79.2231L296.802 79.3141L297.094 79.6207C297.736 80.1716 298.215 80.8807 298.531 81.7478L298.713 82.1454L298.795 82.5287L298.929 82.7874L299.01 83.094L299.317 84.4881L299.575 86.8308V95.0038L299.494 94.9223L299.451 94.7403L299.312 94.4337V94.2181L299.144 93.9115L299.01 93.5282L298.795 93.2647L298.622 92.7761L298.488 92.6515L298.363 92.3449L298.181 92.1293L298.014 91.9137L297.889 91.6886L297.664 91.473L297.539 91.2574L297.19 90.9987L296.931 90.649L296.624 90.4334L296.318 90.2657L296.102 90.0501L295.843 89.9591L295.46 89.7004L295.278 89.6573L295.154 89.5663L294.67 89.4417L294.545 89.3507L293.98 89.3076L293.889 89.2261H293.549L292.935 89.183C292.293 89.183 291.714 89.2692 291.192 89.4417L290.933 89.5663L290.674 89.6573L290.291 89.8729L289.678 90.0885L289.496 90.2705L288.849 90.5771L288.499 90.8358L288.284 90.8789L288.068 91.0945L287.886 91.1376L287.718 91.3053L287.244 91.6119L286.937 91.8706L285.15 93.2647L282.899 95.0852L282.592 95.3918L282.07 95.823L281.931 95.914L281.807 96.1296L281.625 96.1727L281.543 96.3068L280.839 96.7811C280.633 96.9248 280.446 96.9967 280.274 96.9967C279.785 96.9967 279.421 96.8386 279.186 96.5224C279.071 96.2877 279.018 96.1248 279.018 96.0338L278.97 95.387L278.755 94.3474L278.621 93.2168L278.544 92.6946L278.453 92.0814L278.362 91.8658L278.328 91.5161L277.979 90.7783L277.763 90.2561L277.538 89.9495L277.504 89.8154L277.37 89.6477L276.987 89.298L276.853 89.2549L276.728 89.0872L276.288 88.8285L275.765 88.6129C275.449 88.4069 275.157 88.3063 274.894 88.3063L274.328 88.2153H273.897L272.378 88.3494L271.847 88.5171L271.291 88.7327L270.544 88.9962L269.504 89.5184L269.245 89.7435L269.03 89.825L268.771 90.0501L268.33 90.2657L268.163 90.4334L267.99 90.5675L267.683 90.7352L267.592 90.8262L267.286 91.0418L267.07 91.1328L266.855 91.3484L266.457 91.655L266.198 91.8706L265.858 92.0862L265.676 92.2587L265.245 92.6994L265.063 92.7809L264.68 93.1785L264.464 93.3126L264.239 93.5282L263.027 94.7403L262.854 94.8744L262.672 94.999L262.505 95.181L262.246 95.5212L262.155 95.6122L261.724 96.0434L261.417 96.3164L261.02 96.7907L260.713 97.0973L260.373 97.4375L260.191 97.5716L260.023 97.7393L259.808 98.0459L259.625 98.18L259.544 98.3477L259.453 98.4818L259.328 90.2178V87.3434L259.405 87.2188L259.587 86.9601L259.76 86.826L260.018 86.4858L260.186 86.2271L260.411 86.002L260.488 85.8343L260.885 85.451L261.489 84.7851L262.395 83.6976L262.869 83.2665L263.31 82.8257L263.434 82.658L263.659 82.3993L263.875 82.2652L264.134 82.0065L264.565 81.5753L264.78 81.4412L265.039 81.1825L265.389 80.9669L265.556 80.7513L265.997 80.4926L266.088 80.3585L266.261 80.277L266.567 79.9704L267.305 79.5728C267.971 79.0506 268.651 78.6482 269.355 78.3607L269.954 78.011L270.213 77.9679L270.563 77.7523L271.272 77.5319Z" fill="white"/>
<path d="M325.474 67.1792C324.559 65.7276 323.438 64.6928 322.101 64.0796C320.77 63.4663 318.944 63.1597 316.635 63.1597H307.169V64.07H308.141C309.119 64.07 309.856 64.4293 310.355 65.1479C310.7 65.6557 310.872 66.954 310.872 69.0428V90.4861C310.872 92.3832 310.743 93.5809 310.489 94.0887C310.019 95.0038 309.234 95.4589 308.141 95.4589H307.169V96.3691H318.221V95.4589H317.234C316.257 95.4589 315.533 95.0996 315.049 94.381C314.695 93.8731 314.518 92.5749 314.518 90.4861V80.8232C315.342 81.0531 316.118 81.2256 316.841 81.3406C317.565 81.4556 318.24 81.5131 318.863 81.5131C321.402 81.5131 323.366 80.6651 324.76 78.9644C326.15 77.2637 326.844 75.0599 326.844 72.3484C326.844 70.3602 326.384 68.6356 325.474 67.1792ZM322.47 72.837C322.475 74.9258 322.001 76.6265 321.043 77.9392C320.085 79.2518 318.949 79.9082 317.632 79.9082C317.263 79.9082 316.822 79.8698 316.3 79.7836C315.782 79.7022 315.184 79.5776 314.513 79.4147V65.6174C315.524 65.306 316.357 65.1527 316.999 65.1527C318.063 65.1527 319.011 65.4593 319.85 66.0725C320.688 66.6857 321.33 67.6055 321.785 68.8368C322.24 70.068 322.47 71.4046 322.47 72.837ZM349.902 94.357C349.313 93.6959 348.657 92.2587 347.933 90.0406L338.979 62.4172H338.261L329.163 89.734C328.377 92.1341 327.659 93.7294 327.012 94.5151C326.696 94.9079 325.996 95.2241 324.918 95.4733V96.3835H333.087V95.4733C331.841 95.3583 331.031 95.1092 330.658 94.7259C330.284 94.3426 330.097 93.8971 330.097 93.3941C330.097 92.7569 330.313 91.794 330.744 90.5053L332.483 85.3025H342.52L344.048 90.0358C344.556 91.588 344.81 92.7186 344.81 93.4372C344.81 93.9738 344.627 94.4337 344.268 94.8073C343.904 95.181 343.209 95.4014 342.184 95.4685V96.3787H352.369V95.4685C351.315 95.387 350.496 95.0181 349.902 94.357ZM333.091 83.4773L337.585 70.0584L341.959 83.4773H333.091ZM352.269 63.1645H359.244L375.068 88.0859V68.9134C375.068 66.8774 374.891 65.6078 374.536 65.1048C374.067 64.4197 373.324 64.0796 372.313 64.0796H371.422V63.1693H380.405V64.0796H379.494C378.407 64.0796 377.631 64.5011 377.176 65.3491C376.898 65.8713 376.759 67.0594 376.759 68.9134V96.9201H376.069L359.038 70.1782V90.6346C359.038 92.6707 359.21 93.9402 359.551 94.4432C360.03 95.1283 360.772 95.4685 361.774 95.4685H362.684V96.3787H353.701V95.4685H354.592C355.694 95.4685 356.475 95.0469 356.93 94.1989C357.208 93.6767 357.347 92.4886 357.347 90.6346V67.5289C356.6 66.4031 356.029 65.6605 355.641 65.3012C355.253 64.9419 354.688 64.6065 353.936 64.2951C353.567 64.1466 353.006 64.0748 352.259 64.0748V63.1645H352.269ZM406.672 96.3835L396.698 68.4343V90.6346C396.698 92.6707 396.87 93.9402 397.211 94.4432C397.68 95.1283 398.418 95.4685 399.434 95.4685H400.344V96.3787H391.361V95.4685H392.271C393.359 95.4685 394.135 95.0469 394.59 94.1989C394.868 93.6767 395.007 92.4886 395.007 90.6346V68.9134C395.007 67.4474 394.878 66.3887 394.628 65.7372C394.451 65.2629 394.125 64.87 393.651 64.5538C393.177 64.2377 392.41 64.0796 391.361 64.0796V63.1693H398.677L408.033 89.1399L417.245 63.1693H424.551V64.0796H423.66C422.558 64.0796 421.778 64.5011 421.322 65.3491C421.045 65.8713 420.906 67.0594 420.906 68.9134V90.6346C420.906 92.6707 421.083 93.9402 421.437 94.4432C421.907 95.1283 422.645 95.4685 423.66 95.4685H424.551V96.3787H413.609V95.4685H414.52C415.621 95.4685 416.393 95.0469 416.838 94.1989C417.116 93.6767 417.255 92.4886 417.255 90.6346V68.4295L407.305 96.3835H406.672ZM477.015 62.4172L477.594 73.7185H477.015C476.229 70.3267 475.108 67.8834 473.652 66.3935C472.195 64.9036 470.447 64.1562 468.411 64.1562C466.7 64.1562 465.158 64.7167 463.773 65.833C462.393 66.9492 461.306 68.7362 460.515 71.1842C459.725 73.6323 459.327 76.6792 459.327 80.3202C459.327 83.3239 459.701 85.9301 460.448 88.1338C461.196 90.3376 462.317 92.0287 463.816 93.2024C465.316 94.3762 467.026 94.9654 468.952 94.9654C470.624 94.9654 472.095 94.5055 473.374 93.5809C474.653 92.6563 476.057 90.8262 477.585 88.0812L478.174 88.5794C476.881 91.5305 475.371 93.6911 473.647 95.0613C471.922 96.4314 469.876 97.1165 467.505 97.1165C463.232 97.1165 459.926 95.0756 457.579 90.9987C455.83 87.9614 454.953 84.3875 454.953 80.277C454.953 76.9666 455.528 73.9197 456.683 71.1459C457.837 68.3721 459.428 66.221 461.45 64.6976C463.481 63.1789 465.694 62.4172 468.09 62.4172C469.953 62.4172 471.793 63.0016 473.609 64.1754C474.14 64.5347 474.524 64.7119 474.749 64.7119C475.089 64.7119 475.391 64.5586 475.645 64.2472C475.975 63.8065 476.21 63.1981 476.349 62.4172H477.015ZM495.502 96.3835L485.528 68.4343V90.6346C485.528 92.6707 485.7 93.9402 486.04 94.4432C486.51 95.1283 487.248 95.4685 488.263 95.4685H489.174V96.3787H480.191V95.4685H481.101C482.189 95.4685 482.965 95.0469 483.42 94.1989C483.698 93.6767 483.837 92.4886 483.837 90.6346V68.9134C483.837 67.4474 483.707 66.3887 483.458 65.7372C483.281 65.2629 482.955 64.87 482.481 64.5538C482.007 64.2377 481.245 64.0796 480.191 64.0796V63.1693H487.506L496.863 89.1399L506.075 63.1693H513.381V64.0796H512.49C511.388 64.0796 510.607 64.5011 510.152 65.3491C509.874 65.8713 509.735 67.0594 509.735 68.9134V90.6346C509.735 92.6707 509.913 93.9402 510.267 94.4432C510.737 95.1283 511.474 95.4685 512.49 95.4685H513.381V96.3787H502.439V95.4685H503.349C504.451 95.4685 505.223 95.0469 505.668 94.1989C505.946 93.6767 506.085 92.4886 506.085 90.6346V68.4295L496.135 96.3835H495.502ZM526.216 95.4685V96.3787H515.163V95.4685H516.078C517.147 95.4685 517.923 95.066 518.407 94.266C518.713 93.7438 518.867 92.4838 518.867 90.4909V69.0476C518.867 67.366 518.785 66.2546 518.617 65.7132C518.488 65.306 518.229 64.9515 517.837 64.6592C517.276 64.2664 516.692 64.07 516.078 64.07H515.163V63.1597H526.216V64.07H525.286C524.237 64.07 523.47 64.4724 522.987 65.2725C522.67 65.7946 522.512 67.0546 522.512 69.0476V90.4909C522.512 92.1724 522.594 93.2839 522.761 93.8252C522.886 94.2325 523.154 94.587 523.557 94.8792C524.103 95.272 524.678 95.4685 525.286 95.4685H526.216ZM549.537 87.2044L550.174 87.3769L547.961 96.3835H527.979V95.4733H528.946C530.034 95.4733 530.815 95.0181 531.284 94.1079C531.552 93.5857 531.682 92.3832 531.682 90.5005V69.0476C531.682 66.9732 531.505 65.6749 531.15 65.1527C530.657 64.4341 529.924 64.0748 528.946 64.0748H527.979V63.1645H539.639V64.0748C538.274 64.0604 537.311 64.2233 536.76 64.5634C536.209 64.9036 535.831 65.3395 535.629 65.8617C535.428 66.3839 535.328 67.6295 535.328 69.6033V90.4813C535.328 91.8371 535.428 92.7713 535.634 93.2743C535.787 93.6192 536.022 93.8731 536.338 94.036C536.655 94.1989 537.646 94.2804 539.309 94.2804H541.196C543.175 94.2804 544.564 94.0935 545.364 93.7151C546.164 93.3414 546.892 92.6755 547.554 91.7221C548.215 90.7688 548.876 89.2645 549.537 87.2044ZM573.352 87.2044L573.989 87.3769L571.775 96.3835H551.793V95.4733H552.761C553.849 95.4733 554.629 95.0181 555.099 94.1079C555.367 93.5857 555.497 92.3832 555.497 90.5005V69.0476C555.497 66.9732 555.319 65.6749 554.965 65.1527C554.471 64.4341 553.738 64.0748 552.761 64.0748H551.793V63.1645H563.454V64.0748C562.089 64.0604 561.126 64.2233 560.575 64.5634C560.024 64.9036 559.645 65.3395 559.444 65.8617C559.243 66.3839 559.142 67.6295 559.142 69.6033V90.4813C559.142 91.8371 559.243 92.7713 559.449 93.2743C559.602 93.6192 559.837 93.8731 560.153 94.036C560.469 94.1989 561.461 94.2804 563.123 94.2804H565.011C566.99 94.2804 568.379 94.0935 569.179 93.7151C569.979 93.3414 570.707 92.6755 571.368 91.7221C572.034 90.7688 572.691 89.2645 573.352 87.2044ZM592.692 85.2977H582.66L580.921 90.5005C580.49 91.7892 580.274 92.7521 580.274 93.3893C580.274 93.8971 580.461 94.3379 580.835 94.7211C581.208 95.1044 582.018 95.3535 583.264 95.4685V96.3787H575.095V95.4685C576.173 95.2241 576.873 94.9032 577.189 94.5103C577.836 93.7246 578.554 92.1341 579.34 89.7292L588.438 62.4172H589.156L598.11 90.0358C598.834 92.2539 599.49 93.6911 600.079 94.3522C600.668 95.0133 601.492 95.3822 602.546 95.4637V96.3739H592.356V95.4637C593.386 95.3966 594.081 95.1762 594.44 94.8026C594.805 94.4289 594.982 93.969 594.982 93.4324C594.982 92.7138 594.728 91.5784 594.22 90.031L592.692 85.2977ZM592.131 83.4773L587.757 70.0584L583.264 83.4773H592.131ZM602.446 63.1645H609.421L625.245 88.0859V68.9134C625.245 66.8774 625.068 65.6078 624.713 65.1048C624.244 64.4197 623.501 64.0796 622.49 64.0796H621.599V63.1693H630.582V64.0796H629.672C628.584 64.0796 627.808 64.5011 627.353 65.3491C627.075 65.8713 626.936 67.0594 626.936 68.9134V96.9201H626.246L609.215 70.1782V90.6346C609.215 92.6707 609.388 93.9402 609.728 94.4432C610.207 95.1283 610.949 95.4685 611.951 95.4685H612.861V96.3787H603.883V95.4685H604.774C605.876 95.4685 606.657 95.0469 607.112 94.1989C607.39 93.6767 607.529 92.4886 607.529 90.6346V67.5289C606.781 66.4031 606.211 65.6605 605.823 65.3012C605.435 64.9419 604.87 64.6065 604.118 64.2951C603.749 64.1466 603.188 64.0748 602.441 64.0748V63.1645H602.446ZM450.632 94.357C450.043 93.6959 449.387 92.2587 448.663 90.0406L439.709 62.4172H438.991L429.893 89.734C429.107 92.1341 428.389 93.7294 427.742 94.5151C427.426 94.9079 426.726 95.2241 425.648 95.4733V96.3835H433.817V95.4733C432.571 95.3583 431.761 95.1092 431.388 94.7259C431.014 94.3426 430.827 93.8971 430.827 93.3941C430.827 92.7569 431.043 91.794 431.474 90.5053L433.213 85.3025H443.25L444.778 90.0358C445.286 91.588 445.54 92.7186 445.54 93.4372C445.54 93.9738 445.358 94.4337 444.998 94.8073C444.634 95.181 443.939 95.4014 442.914 95.4685V96.3787H453.104V95.4685C452.045 95.387 451.221 95.0181 450.632 94.357ZM433.821 83.4773L438.315 70.0584L442.689 83.4773H433.821Z" fill="white"/>
</g>
<g clip-path="url(#clip6)">
<path d="M886.432 201.549C886.424 201.549 886.415 201.549 886.407 201.549C883.598 201.549 880.956 202.644 878.961 204.634C876.944 206.646 875.833 209.325 875.833 212.177V371.542C875.833 377.386 880.606 382.152 886.474 382.167C911.212 382.226 952.658 387.382 981.25 417.303V250.523C981.25 248.542 980.744 246.681 979.789 245.141C956.322 207.349 911.226 201.607 886.432 201.549Z" fill="url(#paint2_linear)"/>
<path d="M1103.17 371.542V212.176C1103.17 209.324 1102.06 206.645 1100.04 204.633C1098.04 202.643 1095.4 201.548 1092.59 201.548C1092.58 201.548 1092.58 201.548 1092.57 201.548C1067.77 201.607 1022.68 207.349 999.211 245.141C998.256 246.681 997.751 248.542 997.751 250.523V417.302C1026.34 387.381 1067.79 382.225 1092.53 382.166C1098.39 382.151 1103.17 377.385 1103.17 371.542Z" fill="url(#paint3_linear)"/>
<path d="M1127.37 238.301H1119.67V371.542C1119.67 386.463 1107.51 398.63 1092.57 398.667C1071.58 398.717 1036.98 402.82 1012.48 426.011C1054.86 415.635 1099.53 422.38 1124.99 428.182C1128.17 428.906 1131.46 428.158 1134.01 426.128C1136.54 424.103 1138 421.076 1138 417.827V248.927C1138 243.068 1133.23 238.301 1127.37 238.301Z" fill="url(#paint4_linear)"/>
<path d="M859.332 371.542V238.301H851.626C845.768 238.301 841 243.068 841 248.927V417.824C841 421.074 842.456 424.1 844.994 426.125C847.539 428.154 850.821 428.905 854.005 428.179C879.465 422.376 924.14 415.632 966.516 426.008C942.014 402.818 907.416 398.716 886.433 398.666C871.49 398.63 859.332 386.463 859.332 371.542Z" fill="url(#paint5_linear)"/>
</g>
</g>
<defs>
<radialGradient id="paint0_radial" cx="0" cy="0" r="1" gradientUnits="userSpaceOnUse" gradientTransform="translate(1015 420.286) rotate(89.905) scale(361.614 389.821)">
<stop stop-color="#084C53"/>
<stop offset="0.95606" stop-color="#3A97A3" stop-opacity="0"/>
</radialGradient>
<radialGradient id="paint1_radial" cx="0" cy="0" r="1" gradientUnits="userSpaceOnUse" gradientTransform="translate(42.7652 79.1555) rotate(90) scale(40.906 47.1992)">
<stop stop-color="#20C6B7"/>
<stop offset="1" stop-color="#4D9ABF"/>
</radialGradient>
<linearGradient id="paint2_linear" x1="904.455" y1="246.077" x2="1012.53" y2="316.146" gradientUnits="userSpaceOnUse">
<stop stop-color="#5BEDC9"/>
<stop offset="1" stop-color="#006EFF"/>
</linearGradient>
<linearGradient id="paint3_linear" x1="1026.37" y1="246.076" x2="1134.45" y2="316.144" gradientUnits="userSpaceOnUse">
<stop stop-color="#5BEDC9"/>
<stop offset="1" stop-color="#006EFF"/>
</linearGradient>
<linearGradient id="paint4_linear" x1="1046.56" y1="277.545" x2="1149.99" y2="368.135" gradientUnits="userSpaceOnUse">
<stop stop-color="#5BEDC9"/>
<stop offset="1" stop-color="#006EFF"/>
</linearGradient>
<linearGradient id="paint5_linear" x1="875.079" y1="277.545" x2="978.502" y2="368.134" gradientUnits="userSpaceOnUse">
<stop stop-color="#5BEDC9"/>
<stop offset="1" stop-color="#006EFF"/>
</linearGradient>
<clipPath id="clip0">
<rect width="1200" height="630" fill="white"/>
</clipPath>
<clipPath id="clip1">
<rect width="320" height="68" fill="white" transform="translate(45 507.006)"/>
</clipPath>
<clipPath id="clip2">
<rect width="320.111" height="68.1976" fill="white" transform="translate(45 507.006)"/>
</clipPath>
<clipPath id="clip3">
<rect width="320.111" height="68.1976" fill="white" transform="translate(45 507.006)"/>
</clipPath>
<clipPath id="clip4">
<rect width="156.904" height="42.7207" fill="white" transform="translate(44 58.3724)"/>
</clipPath>
<clipPath id="clip5">
<rect width="375.9" height="36.0695" fill="white" transform="translate(257.082 61.6985)"/>
</clipPath>
<clipPath id="clip6">
<rect width="296.999" height="296.999" fill="white" transform="translate(841 166.5)"/>
</clipPath>
</defs>
</svg>
