<?xml version="1.0" encoding="UTF-8"?>
<svg width="53px" height="25px" viewBox="0 0 53 25" version="1.1" xmlns="http://www.w3.org/2000/svg" xmlns:xlink="http://www.w3.org/1999/xlink">
    <!-- Generator: Sketch 43.1 (39012) - http://www.bohemiancoding.com/sketch -->
    <title>view-on-dribbble</title>
    <desc>Created with Sketch.</desc>
    <defs></defs>
    <g id="Page-1" stroke="none" stroke-width="1" fill="none" fill-rule="evenodd">
        <g id="view-on-dribbble" fill-rule="nonzero" fill="#FFFFFF">
            <g id="noun_841313_cc">
                <path d="M12.5062657,0.181 C5.88892926,0.181 0.506,5.56392926 0.506,12.1812657 C0.506,18.7975394 5.88892926,24.1804686 12.5062657,24.1804686 C19.1225394,24.1804686 24.506,18.7975394 24.506,12.1812657 C24.506,5.56392926 19.1225394,0.181 12.5062657,0.181 Z M12.5062657,22.4603756 C6.83745135,22.4603756 2.22503022,17.8490173 2.22503022,12.1807343 C2.22503022,6.51138858 6.83745135,1.89949884 12.5062657,1.89949884 C18.1745487,1.89949884 22.7864384,6.51138858 22.7864384,12.1807343 C22.7864384,17.8495487 18.1745487,22.4603756 12.5062657,22.4603756 Z M19.6475477,11.7210864 C18.0863388,9.25067785 15.4166609,7.77502192 12.5062657,7.77502192 C9.59480771,7.77502192 6.92512986,9.25014646 5.36392096,11.7210864 C5.18696978,12.0016576 5.18696978,12.3587483 5.36392096,12.6398509 C6.92512986,15.1102594 9.59480771,16.5859153 12.5062657,16.5859153 C15.4171923,16.5859153 18.0863388,15.1107908 19.6475477,12.6398509 C19.8244988,12.3592796 19.8244988,12.002189 19.6475477,11.7210864 Z M12.5062657,14.8658223 C10.3743494,14.8658223 8.40450548,13.8716011 7.13449552,12.1802029 C8.40503686,10.4888047 10.3748808,9.49458353 12.5062657,9.49458353 C14.6376506,9.49458353 16.6069631,10.4888047 17.8769731,12.1802029 C16.6069631,13.8716011 14.6376506,14.8658223 12.5062657,14.8658223 Z M12.5057343,10.6758522 C11.6762424,10.6758522 11.0013836,11.3512424 11.0013836,12.1807343 C11.0013836,13.0102262 11.6767738,13.685085 12.5057343,13.685085 C13.3357576,13.685085 14.0106164,13.0096948 14.0106164,12.1807343 C14.0106164,11.3507111 13.3352262,10.6758522 12.5057343,10.6758522 Z M12.5057343,12.3954138 C12.3872355,12.3954138 12.2910548,12.2987018 12.2910548,12.1807343 C12.2910548,12.0617041 12.3877669,11.9655234 12.5057343,11.9655234 C12.6247645,11.9655234 12.7209452,12.0622355 12.7209452,12.1807343 C12.7209452,12.2987018 12.6247645,12.3954138 12.5057343,12.3954138 Z" id="Shape"></path>
            </g>
            <g id="dribbble-icon" transform="translate(29.000000, 1.000000)">
                <path d="M0,12 C0,9.823992 0.536016,7.816008 1.608,5.976 C2.680008,4.135992 4.136016,2.680008 5.976,1.608 C7.816008,0.535992 9.824016,0 12,0 C14.176008,0 16.184016,0.535992 18.024,1.608 C19.864008,2.680008 21.320016,4.135992 22.392,5.976 C23.464008,7.816008 24,9.823992 24,12 C24,14.176008 23.464008,16.183992 22.392,18.024 C21.320016,19.864008 19.864008,21.319992 18.024,22.392 C16.184016,23.464008 14.176008,24 12,24 C9.824016,24 7.816008,23.464008 5.976,22.392 C4.136016,21.319992 2.680008,19.864008 1.608,18.024 C0.536016,16.183992 0,14.176008 0,12 Z M1.992,12 C1.992,14.496 2.832,16.696008 4.512,18.6 C5.28,17.095992 6.496008,15.664008 8.16,14.304 C9.824016,12.943992 11.448,12.088008 13.032,11.736 C12.792,11.176008 12.560016,10.672008 12.336,10.224 C9.584016,11.104008 6.608016,11.544 3.408,11.544 C2.784,11.544 2.320008,11.536008 2.016,11.52 C2.016,11.584008 2.012016,11.664 2.004,11.76 C1.996008,11.856 1.992,11.935992 1.992,12 Z M2.304,9.528 C2.656008,9.559992 3.176016,9.576 3.864,9.576 C6.536016,9.576 9.072,9.216 11.472,8.496 C10.256016,6.336 8.920008,4.536 7.464,3.096 C6.200016,3.736008 5.116008,4.624008 4.212,5.76 C3.308016,6.895992 2.672016,8.152008 2.304,9.528 Z M5.88,19.896 C7.688016,21.304008 9.728016,22.008 12,22.008 C13.184016,22.008 14.360016,21.784008 15.528,21.336 C15.208008,18.6 14.584008,15.952008 13.656,13.392 C12.184008,13.711992 10.700016,14.52 9.204,15.816 C7.708008,17.112 6.6,18.472008 5.88,19.896 Z M9.552,2.328 C10.960008,3.784008 12.264,5.599992 13.464,7.776 C15.640008,6.864 17.28,5.704008 18.384,4.296 C16.528008,2.76 14.4,1.992 12,1.992 C11.184,1.992 10.368,2.104008 9.552,2.328 Z M14.328,9.48 C14.568,9.991992 14.840016,10.639992 15.144,11.424 C16.328016,11.311992 17.616,11.256 19.008,11.256 C20.000016,11.256 20.984016,11.28 21.96,11.328 C21.832008,9.151992 21.048,7.216008 19.608,5.52 C18.568008,7.072008 16.808016,8.392008 14.328,9.48 Z M15.744,13.104 C16.56,15.472008 17.112,17.904 17.4,20.4 C18.664008,19.584 19.696008,18.535992 20.496,17.256 C21.296016,15.976008 21.776016,14.592 21.936,13.104 C20.768016,13.024008 19.704,12.984 18.744,12.984 C17.864016,12.984 16.864008,13.024008 15.744,13.104 Z" id="Shape"></path>
            </g>
        </g>
    </g>
</svg>